%TF.GenerationSoftware,KiCad,Pcbnew,10.0.0*%
%TF.CreationDate,2026-06-03T00:00:44+05:30*%
%TF.ProjectId,ESP32,45535033-322e-46b6-9963-61645f706362,rev?*%
%TF.SameCoordinates,Original*%
%TF.FileFunction,Copper,L3,Inr*%
%TF.FilePolarity,Positive*%
%FSLAX46Y46*%
G04 Gerber Fmt 4.6, Leading zero omitted, Abs format (unit mm)*
G04 Created by KiCad (PCBNEW 10.0.0) date 2026-06-03 00:00:44*
%MOMM*%
%LPD*%
G01*
G04 APERTURE LIST*
%TA.AperFunction,ComponentPad*%
%ADD10C,1.208000*%
%TD*%
%TA.AperFunction,ComponentPad*%
%ADD11R,1.700000X1.700000*%
%TD*%
%TA.AperFunction,ComponentPad*%
%ADD12C,1.700000*%
%TD*%
%TA.AperFunction,ComponentPad*%
%ADD13C,0.650000*%
%TD*%
%TA.AperFunction,ComponentPad*%
%ADD14O,1.050000X2.100000*%
%TD*%
%TA.AperFunction,ComponentPad*%
%ADD15C,0.400000*%
%TD*%
%TA.AperFunction,ViaPad*%
%ADD16C,0.800000*%
%TD*%
%TA.AperFunction,ViaPad*%
%ADD17C,0.500000*%
%TD*%
G04 APERTURE END LIST*
D10*
%TO.N,GND*%
%TO.C,MK1*%
X143750000Y-132950000D03*
%TO.N,Net-(C23-Pad1)*%
X143750000Y-131050000D03*
%TD*%
D11*
%TO.N,+3.3V*%
%TO.C,J4*%
X167515000Y-139625000D03*
D12*
%TO.N,/ESP32-C3-02/SDA*%
X170055000Y-139625000D03*
%TO.N,/ESP32-C3-02/SCL*%
X172595000Y-139625000D03*
%TO.N,GND*%
X175135000Y-139625000D03*
%TD*%
D11*
%TO.N,+3.3V*%
%TO.C,J5*%
X143250000Y-114130000D03*
D12*
%TO.N,/ESP32-C3-02/GPIO8*%
X143250000Y-116670000D03*
%TO.N,/ESP32-C3-02/GPIO18*%
X143250000Y-119210000D03*
%TO.N,/ESP32-C3-02/GPIO19*%
X143250000Y-121750000D03*
%TO.N,GND*%
X143250000Y-124290000D03*
%TD*%
D13*
%TO.N,GND*%
%TO.C,J1*%
X156946750Y-79380000D03*
%TO.N,unconnected-(J1-SSTXP2-PadB2)*%
X157346750Y-78670000D03*
%TO.N,unconnected-(J1-SSTXN2-PadB3)*%
X158146750Y-78670000D03*
%TO.N,/VBUS*%
X158546750Y-79380000D03*
%TO.N,Net-(J1-CC2)*%
X158946750Y-78670000D03*
%TO.N,/USB_D+*%
X159346750Y-79380000D03*
%TO.N,/USB_D-*%
X160146750Y-79380000D03*
%TO.N,unconnected-(J1-SBU2-PadB8)*%
X160546750Y-78670000D03*
%TO.N,/VBUS*%
X160946750Y-79380000D03*
%TO.N,unconnected-(J1-SSRXN1-PadB10)*%
X161346750Y-78670000D03*
%TO.N,unconnected-(J1-SSRXP1-PadB11)*%
X162146750Y-78670000D03*
%TO.N,GND*%
X162546750Y-79380000D03*
X157746750Y-79380000D03*
X161746750Y-79380000D03*
D14*
X164016750Y-78230000D03*
X155476750Y-78230000D03*
X164016750Y-73500000D03*
X155476750Y-73500000D03*
%TD*%
D15*
%TO.N,GND*%
%TO.C,U3*%
X187600000Y-130810000D03*
X187600000Y-131910000D03*
X187050000Y-130260000D03*
X187050000Y-131360000D03*
X187050000Y-132460000D03*
X186500000Y-130810000D03*
X186500000Y-131910000D03*
X185950000Y-130260000D03*
X185950000Y-131360000D03*
X185950000Y-132460000D03*
X185400000Y-130810000D03*
X185400000Y-131910000D03*
%TD*%
D16*
%TO.N,+3.3V*%
X168640000Y-71560000D03*
D17*
%TO.N,GND*%
X149300000Y-82575000D03*
%TO.N,/ESP32-C3-02/BOOT*%
X156950000Y-118450000D03*
%TO.N,/ESP32-C3-02/SCL*%
X171000000Y-135975000D03*
X188190000Y-137430000D03*
%TO.N,+3.3V*%
X175540000Y-112240000D03*
X168490000Y-113890000D03*
D16*
X187900000Y-118260000D03*
D17*
X168040000Y-110140000D03*
X162740000Y-110840000D03*
X164240000Y-110140000D03*
X170260000Y-83580000D03*
X170600000Y-132420000D03*
X189850000Y-102760000D03*
X162790000Y-113890000D03*
X166990000Y-113890000D03*
X187200000Y-111750000D03*
X164290000Y-112340000D03*
X169140000Y-112290000D03*
X171640000Y-113390000D03*
X170190000Y-113890000D03*
X159650000Y-132910000D03*
X167140000Y-108740000D03*
X161010000Y-98760000D03*
X175140000Y-113890000D03*
X164290000Y-113890000D03*
X172790000Y-113890000D03*
D16*
X175900000Y-86992986D03*
D17*
X153870000Y-130730000D03*
D16*
X156190000Y-92780000D03*
D17*
X156340000Y-115850000D03*
X173940000Y-113390000D03*
X166140000Y-110140000D03*
X165640000Y-113890000D03*
X165530000Y-131500000D03*
X166640000Y-104890000D03*
X173260000Y-121500000D03*
X184445000Y-106635000D03*
X173915000Y-132345000D03*
X170337500Y-80750000D03*
%TO.N,GND*%
X146050000Y-70700000D03*
X166780000Y-136430000D03*
X168740000Y-104890000D03*
X160000000Y-95650000D03*
X174620000Y-123300000D03*
X146050000Y-72850000D03*
X152139060Y-117360169D03*
X155590000Y-132920000D03*
D16*
X173550000Y-75050000D03*
X175940000Y-84492986D03*
D17*
X175540000Y-109190000D03*
D16*
X180700000Y-123380000D03*
D17*
X170290000Y-109990000D03*
X146050000Y-71770000D03*
X175540000Y-110440000D03*
X171860000Y-123337500D03*
X154940000Y-98240000D03*
X159737500Y-88710000D03*
X159750000Y-74450000D03*
D16*
X142050000Y-71050000D03*
D17*
X145590000Y-86382500D03*
D16*
X173070000Y-100570000D03*
D17*
X148120000Y-86382500D03*
D16*
X152000000Y-90750000D03*
D17*
X169890000Y-106290000D03*
X197833927Y-74930000D03*
X182350000Y-109550000D03*
X147450000Y-72850000D03*
X143850000Y-80250000D03*
X155450000Y-135660000D03*
X169875000Y-131500000D03*
X185300000Y-111760000D03*
X152860000Y-81520000D03*
X171690000Y-109290000D03*
D16*
X173550000Y-73320000D03*
X177110000Y-94130000D03*
D17*
X169940000Y-108390000D03*
X161000000Y-89530000D03*
D16*
X165700000Y-88550000D03*
D17*
X173940000Y-109190000D03*
X151620000Y-130730000D03*
D16*
X192750000Y-116060000D03*
D17*
X197833927Y-97780000D03*
X160510000Y-109580000D03*
X169990000Y-104890000D03*
X166250000Y-81050000D03*
%TO.N,/ESP32-C3-02/DTR*%
X158300000Y-113280000D03*
X163260000Y-102800000D03*
%TO.N,Net-(Q2-B)*%
X162010000Y-115390000D03*
X162010000Y-122910000D03*
%TO.N,/ESP32-C3-02/MOSI_DI*%
X181350000Y-119000000D03*
X191670000Y-107905000D03*
%TO.N,/ESP32-C3-02/CS*%
X176980000Y-104095000D03*
X177470000Y-132040000D03*
%TO.N,Net-(FB2-Pad1)*%
X145065000Y-78800000D03*
X142110000Y-78800000D03*
%TO.N,/+5V_USB*%
X147500000Y-76850000D03*
X151450000Y-85700000D03*
X148970000Y-99750000D03*
X143970000Y-81200000D03*
X152700000Y-83700000D03*
X151450000Y-84400000D03*
X151450000Y-86950000D03*
X152700000Y-87750000D03*
X146140000Y-99720000D03*
%TO.N,Net-(U1-~{PG})*%
X145090000Y-82660000D03*
X144740000Y-91450000D03*
%TO.N,Net-(U1-STAT2)*%
X147570000Y-91430000D03*
X145850000Y-83390000D03*
%TO.N,Net-(U1-STAT1{slash}~{LBO})*%
X150400000Y-91460000D03*
X146750000Y-83310000D03*
%TO.N,/ESP32-C3-02/SDA*%
X170587500Y-133862500D03*
X189700000Y-123330000D03*
%TO.N,/USB_D+*%
X161372500Y-84960000D03*
%TO.N,/VBUS*%
X156050000Y-83750000D03*
X163800000Y-88600000D03*
X162150000Y-82200000D03*
X157000000Y-87700000D03*
X155050000Y-87700000D03*
X155050000Y-83750000D03*
X156110000Y-102800000D03*
X157000000Y-83750000D03*
X159750000Y-83300000D03*
X157000000Y-85700000D03*
X156050000Y-87700000D03*
%TO.N,/USB_D-*%
X158132500Y-84960000D03*
%TO.N,/ESP32-C3-02/RTS*%
X156960000Y-120620000D03*
X164080000Y-102250000D03*
%TO.N,/ESP32-C3-02/EN*%
X184290000Y-128150000D03*
X191190000Y-128150000D03*
%TO.N,/ESP32-C3-02/BOOT*%
X153710000Y-121420000D03*
%TO.N,/ESP32-C3-02/GPIO8*%
X176200000Y-121850000D03*
D16*
%TO.N,+5V*%
X157060000Y-106330000D03*
X148080000Y-106330000D03*
X157060000Y-104980000D03*
X142100000Y-86920000D03*
X142100000Y-90310000D03*
X143850000Y-106330000D03*
X142100000Y-99610000D03*
X142110000Y-84020000D03*
X142100000Y-95340000D03*
X152820000Y-106330000D03*
X142100000Y-103950000D03*
D17*
%TO.N,/ESP32-C3-02/RX_TX*%
X166700000Y-93690000D03*
X179170000Y-132040000D03*
%TO.N,/ESP32-C3-02/TX_RX*%
X178320000Y-132040000D03*
X165820000Y-93070000D03*
%TO.N,/ESP32-C3-02/MISO_DO*%
X170130000Y-96242986D03*
X181740000Y-127360000D03*
X180170000Y-109660000D03*
%TO.N,/ESP32-C3-02/CS_SD*%
X188200000Y-123340000D03*
X190000000Y-111975000D03*
%TD*%
%TA.AperFunction,Conductor*%
%TO.N,GND*%
G36*
X200042539Y-70220185D02*
G01*
X200088294Y-70272989D01*
X200099500Y-70324500D01*
X200099500Y-101375500D01*
X200079815Y-101442539D01*
X200027011Y-101488294D01*
X199975500Y-101499500D01*
X193934108Y-101499500D01*
X193806812Y-101533608D01*
X193692686Y-101599500D01*
X193692683Y-101599502D01*
X193599502Y-101692683D01*
X193599500Y-101692686D01*
X193533608Y-101806812D01*
X193499500Y-101934108D01*
X193499500Y-141375500D01*
X193479815Y-141442539D01*
X193427011Y-141488294D01*
X193375500Y-141499500D01*
X140624500Y-141499500D01*
X140557461Y-141479815D01*
X140511706Y-141427011D01*
X140500500Y-141375500D01*
X140500500Y-138730131D01*
X166364500Y-138730131D01*
X166364500Y-140519856D01*
X166364502Y-140519882D01*
X166367413Y-140544987D01*
X166367415Y-140544991D01*
X166412793Y-140647764D01*
X166412794Y-140647765D01*
X166492235Y-140727206D01*
X166595009Y-140772585D01*
X166620135Y-140775500D01*
X168409864Y-140775499D01*
X168409879Y-140775497D01*
X168409882Y-140775497D01*
X168434987Y-140772586D01*
X168434988Y-140772585D01*
X168434991Y-140772585D01*
X168537765Y-140727206D01*
X168617206Y-140647765D01*
X168662585Y-140544991D01*
X168665500Y-140519865D01*
X168665499Y-139782125D01*
X168685183Y-139715089D01*
X168737987Y-139669334D01*
X168807146Y-139659390D01*
X168870702Y-139688415D01*
X168908476Y-139747193D01*
X168911972Y-139762729D01*
X168932829Y-139894410D01*
X168988787Y-140066636D01*
X168988788Y-140066639D01*
X169071006Y-140227997D01*
X169177441Y-140374494D01*
X169177445Y-140374499D01*
X169305500Y-140502554D01*
X169305505Y-140502558D01*
X169433287Y-140595396D01*
X169452006Y-140608996D01*
X169528094Y-140647765D01*
X169613360Y-140691211D01*
X169613363Y-140691212D01*
X169699476Y-140719191D01*
X169785591Y-140747171D01*
X169868429Y-140760291D01*
X169964449Y-140775500D01*
X169964454Y-140775500D01*
X170145551Y-140775500D01*
X170232259Y-140761765D01*
X170324409Y-140747171D01*
X170496639Y-140691211D01*
X170657994Y-140608996D01*
X170804501Y-140502553D01*
X170932553Y-140374501D01*
X171038996Y-140227994D01*
X171121211Y-140066639D01*
X171177171Y-139894409D01*
X171191422Y-139804425D01*
X171202527Y-139734321D01*
X171232456Y-139671186D01*
X171291768Y-139634255D01*
X171361630Y-139635253D01*
X171419863Y-139673863D01*
X171447473Y-139734321D01*
X171472829Y-139894410D01*
X171528787Y-140066636D01*
X171528788Y-140066639D01*
X171611006Y-140227997D01*
X171717441Y-140374494D01*
X171717445Y-140374499D01*
X171845500Y-140502554D01*
X171845505Y-140502558D01*
X171973287Y-140595396D01*
X171992006Y-140608996D01*
X172068094Y-140647765D01*
X172153360Y-140691211D01*
X172153363Y-140691212D01*
X172239476Y-140719191D01*
X172325591Y-140747171D01*
X172408429Y-140760291D01*
X172504449Y-140775500D01*
X172504454Y-140775500D01*
X172685551Y-140775500D01*
X172772259Y-140761765D01*
X172864409Y-140747171D01*
X173036639Y-140691211D01*
X173197994Y-140608996D01*
X173344501Y-140502553D01*
X173472553Y-140374501D01*
X173578996Y-140227994D01*
X173661211Y-140066639D01*
X173717171Y-139894409D01*
X173731765Y-139802259D01*
X173745500Y-139715551D01*
X173745500Y-139534448D01*
X173729019Y-139430397D01*
X173717171Y-139355591D01*
X173661211Y-139183361D01*
X173661211Y-139183360D01*
X173632740Y-139127484D01*
X173578996Y-139022006D01*
X173565396Y-139003287D01*
X173472558Y-138875505D01*
X173472554Y-138875500D01*
X173344499Y-138747445D01*
X173344494Y-138747441D01*
X173197997Y-138641006D01*
X173197996Y-138641005D01*
X173197994Y-138641004D01*
X173121906Y-138602235D01*
X173036639Y-138558788D01*
X173036636Y-138558787D01*
X172864410Y-138502829D01*
X172685551Y-138474500D01*
X172685546Y-138474500D01*
X172504454Y-138474500D01*
X172504449Y-138474500D01*
X172325589Y-138502829D01*
X172153363Y-138558787D01*
X172153360Y-138558788D01*
X171992002Y-138641006D01*
X171845505Y-138747441D01*
X171845500Y-138747445D01*
X171717445Y-138875500D01*
X171717441Y-138875505D01*
X171611006Y-139022002D01*
X171528788Y-139183360D01*
X171528787Y-139183363D01*
X171472829Y-139355589D01*
X171447473Y-139515678D01*
X171417544Y-139578813D01*
X171358232Y-139615744D01*
X171288369Y-139614746D01*
X171230137Y-139576136D01*
X171202527Y-139515678D01*
X171188740Y-139428639D01*
X171177171Y-139355591D01*
X171121211Y-139183361D01*
X171121211Y-139183360D01*
X171092740Y-139127484D01*
X171038996Y-139022006D01*
X171025396Y-139003287D01*
X170932558Y-138875505D01*
X170932554Y-138875500D01*
X170804499Y-138747445D01*
X170804494Y-138747441D01*
X170657997Y-138641006D01*
X170657996Y-138641005D01*
X170657994Y-138641004D01*
X170581906Y-138602235D01*
X170496639Y-138558788D01*
X170496636Y-138558787D01*
X170324410Y-138502829D01*
X170145551Y-138474500D01*
X170145546Y-138474500D01*
X169964454Y-138474500D01*
X169964449Y-138474500D01*
X169785589Y-138502829D01*
X169613363Y-138558787D01*
X169613360Y-138558788D01*
X169452002Y-138641006D01*
X169305505Y-138747441D01*
X169305500Y-138747445D01*
X169177445Y-138875500D01*
X169177441Y-138875505D01*
X169071006Y-139022002D01*
X168988788Y-139183360D01*
X168988787Y-139183363D01*
X168932829Y-139355589D01*
X168911972Y-139487271D01*
X168882042Y-139550405D01*
X168822731Y-139587336D01*
X168752868Y-139586338D01*
X168694636Y-139547728D01*
X168666522Y-139483764D01*
X168665499Y-139467872D01*
X168665499Y-138730143D01*
X168665499Y-138730136D01*
X168665497Y-138730117D01*
X168662586Y-138705012D01*
X168662585Y-138705010D01*
X168662585Y-138705009D01*
X168617206Y-138602235D01*
X168537765Y-138522794D01*
X168537763Y-138522793D01*
X168434992Y-138477415D01*
X168409865Y-138474500D01*
X166620143Y-138474500D01*
X166620117Y-138474502D01*
X166595012Y-138477413D01*
X166595008Y-138477415D01*
X166492235Y-138522793D01*
X166412794Y-138602234D01*
X166367415Y-138705006D01*
X166367415Y-138705008D01*
X166364500Y-138730131D01*
X140500500Y-138730131D01*
X140500500Y-137357525D01*
X187639500Y-137357525D01*
X187639500Y-137502475D01*
X187677016Y-137642485D01*
X187677017Y-137642488D01*
X187749488Y-137768011D01*
X187749490Y-137768013D01*
X187749491Y-137768015D01*
X187851985Y-137870509D01*
X187851986Y-137870510D01*
X187851988Y-137870511D01*
X187977511Y-137942982D01*
X187977512Y-137942982D01*
X187977515Y-137942984D01*
X188117525Y-137980500D01*
X188117528Y-137980500D01*
X188262472Y-137980500D01*
X188262475Y-137980500D01*
X188402485Y-137942984D01*
X188528015Y-137870509D01*
X188630509Y-137768015D01*
X188702984Y-137642485D01*
X188740500Y-137502475D01*
X188740500Y-137357525D01*
X188702984Y-137217515D01*
X188630509Y-137091985D01*
X188528015Y-136989491D01*
X188528013Y-136989490D01*
X188528011Y-136989488D01*
X188402488Y-136917017D01*
X188402489Y-136917017D01*
X188391006Y-136913940D01*
X188262475Y-136879500D01*
X188117525Y-136879500D01*
X187988993Y-136913940D01*
X187977511Y-136917017D01*
X187851988Y-136989488D01*
X187851982Y-136989493D01*
X187749493Y-137091982D01*
X187749488Y-137091988D01*
X187677017Y-137217511D01*
X187677016Y-137217515D01*
X187639500Y-137357525D01*
X140500500Y-137357525D01*
X140500500Y-135902525D01*
X170449500Y-135902525D01*
X170449500Y-136047475D01*
X170487016Y-136187485D01*
X170487017Y-136187488D01*
X170559488Y-136313011D01*
X170559490Y-136313013D01*
X170559491Y-136313015D01*
X170661985Y-136415509D01*
X170661986Y-136415510D01*
X170661988Y-136415511D01*
X170787511Y-136487982D01*
X170787512Y-136487982D01*
X170787515Y-136487984D01*
X170927525Y-136525500D01*
X170927528Y-136525500D01*
X171072472Y-136525500D01*
X171072475Y-136525500D01*
X171212485Y-136487984D01*
X171338015Y-136415509D01*
X171440509Y-136313015D01*
X171512984Y-136187485D01*
X171550500Y-136047475D01*
X171550500Y-135902525D01*
X171512984Y-135762515D01*
X171440509Y-135636985D01*
X171338015Y-135534491D01*
X171338013Y-135534490D01*
X171338011Y-135534488D01*
X171212488Y-135462017D01*
X171212489Y-135462017D01*
X171201006Y-135458940D01*
X171072475Y-135424500D01*
X170927525Y-135424500D01*
X170798993Y-135458940D01*
X170787511Y-135462017D01*
X170661988Y-135534488D01*
X170661982Y-135534493D01*
X170559493Y-135636982D01*
X170559488Y-135636988D01*
X170487017Y-135762511D01*
X170487016Y-135762515D01*
X170449500Y-135902525D01*
X140500500Y-135902525D01*
X140500500Y-133790025D01*
X170037000Y-133790025D01*
X170037000Y-133934975D01*
X170074516Y-134074985D01*
X170074517Y-134074988D01*
X170146988Y-134200511D01*
X170146990Y-134200513D01*
X170146991Y-134200515D01*
X170249485Y-134303009D01*
X170249486Y-134303010D01*
X170249488Y-134303011D01*
X170375011Y-134375482D01*
X170375012Y-134375482D01*
X170375015Y-134375484D01*
X170515025Y-134413000D01*
X170515028Y-134413000D01*
X170659972Y-134413000D01*
X170659975Y-134413000D01*
X170799985Y-134375484D01*
X170925515Y-134303009D01*
X171028009Y-134200515D01*
X171100484Y-134074985D01*
X171138000Y-133934975D01*
X171138000Y-133790025D01*
X171100484Y-133650015D01*
X171028009Y-133524485D01*
X170925515Y-133421991D01*
X170925513Y-133421990D01*
X170925511Y-133421988D01*
X170799988Y-133349517D01*
X170799989Y-133349517D01*
X170788506Y-133346440D01*
X170659975Y-133312000D01*
X170515025Y-133312000D01*
X170386493Y-133346440D01*
X170375011Y-133349517D01*
X170249488Y-133421988D01*
X170249482Y-133421993D01*
X170146993Y-133524482D01*
X170146988Y-133524488D01*
X170074517Y-133650011D01*
X170074516Y-133650015D01*
X170037000Y-133790025D01*
X140500500Y-133790025D01*
X140500500Y-132837525D01*
X159099500Y-132837525D01*
X159099500Y-132982475D01*
X159137016Y-133122485D01*
X159137017Y-133122488D01*
X159209488Y-133248011D01*
X159209490Y-133248013D01*
X159209491Y-133248015D01*
X159311985Y-133350509D01*
X159311986Y-133350510D01*
X159311988Y-133350511D01*
X159437511Y-133422982D01*
X159437512Y-133422982D01*
X159437515Y-133422984D01*
X159577525Y-133460500D01*
X159577528Y-133460500D01*
X159722472Y-133460500D01*
X159722475Y-133460500D01*
X159862485Y-133422984D01*
X159988015Y-133350509D01*
X160090509Y-133248015D01*
X160162984Y-133122485D01*
X160200500Y-132982475D01*
X160200500Y-132837525D01*
X160162984Y-132697515D01*
X160154612Y-132683015D01*
X160090511Y-132571988D01*
X160090506Y-132571982D01*
X159988017Y-132469493D01*
X159988015Y-132469491D01*
X159862485Y-132397016D01*
X159722475Y-132359500D01*
X159577525Y-132359500D01*
X159450547Y-132393524D01*
X159437511Y-132397017D01*
X159311988Y-132469488D01*
X159311982Y-132469493D01*
X159209493Y-132571982D01*
X159209488Y-132571988D01*
X159137017Y-132697511D01*
X159137016Y-132697515D01*
X159099500Y-132837525D01*
X140500500Y-132837525D01*
X140500500Y-132347525D01*
X170049500Y-132347525D01*
X170049500Y-132492475D01*
X170070805Y-132571985D01*
X170087017Y-132632488D01*
X170159488Y-132758011D01*
X170159490Y-132758013D01*
X170159491Y-132758015D01*
X170261985Y-132860509D01*
X170261986Y-132860510D01*
X170261988Y-132860511D01*
X170387511Y-132932982D01*
X170387512Y-132932982D01*
X170387515Y-132932984D01*
X170527525Y-132970500D01*
X170527528Y-132970500D01*
X170672472Y-132970500D01*
X170672475Y-132970500D01*
X170812485Y-132932984D01*
X170938015Y-132860509D01*
X171040509Y-132758015D01*
X171112984Y-132632485D01*
X171150500Y-132492475D01*
X171150500Y-132347525D01*
X171130404Y-132272525D01*
X173364500Y-132272525D01*
X173364500Y-132417475D01*
X173400810Y-132552984D01*
X173402017Y-132557488D01*
X173474488Y-132683011D01*
X173474490Y-132683013D01*
X173474491Y-132683015D01*
X173576985Y-132785509D01*
X173576986Y-132785510D01*
X173576988Y-132785511D01*
X173702511Y-132857982D01*
X173702512Y-132857982D01*
X173702515Y-132857984D01*
X173842525Y-132895500D01*
X173842528Y-132895500D01*
X173987472Y-132895500D01*
X173987475Y-132895500D01*
X174127485Y-132857984D01*
X174253015Y-132785509D01*
X174355509Y-132683015D01*
X174427984Y-132557485D01*
X174465500Y-132417475D01*
X174465500Y-132272525D01*
X174427984Y-132132515D01*
X174355509Y-132006985D01*
X174316049Y-131967525D01*
X176919500Y-131967525D01*
X176919500Y-132112475D01*
X176957016Y-132252485D01*
X176957017Y-132252488D01*
X177029488Y-132378011D01*
X177029490Y-132378013D01*
X177029491Y-132378015D01*
X177131985Y-132480509D01*
X177131986Y-132480510D01*
X177131988Y-132480511D01*
X177257511Y-132552982D01*
X177257512Y-132552982D01*
X177257515Y-132552984D01*
X177397525Y-132590500D01*
X177397528Y-132590500D01*
X177542472Y-132590500D01*
X177542475Y-132590500D01*
X177682485Y-132552984D01*
X177808015Y-132480509D01*
X177808019Y-132480504D01*
X177814461Y-132475562D01*
X177815403Y-132476790D01*
X177868642Y-132447720D01*
X177938334Y-132452704D01*
X177974997Y-132476267D01*
X177975539Y-132475562D01*
X177981988Y-132480511D01*
X178107511Y-132552982D01*
X178107512Y-132552982D01*
X178107515Y-132552984D01*
X178247525Y-132590500D01*
X178247528Y-132590500D01*
X178392472Y-132590500D01*
X178392475Y-132590500D01*
X178532485Y-132552984D01*
X178658015Y-132480509D01*
X178658019Y-132480504D01*
X178664461Y-132475562D01*
X178665403Y-132476790D01*
X178718642Y-132447720D01*
X178788334Y-132452704D01*
X178824997Y-132476267D01*
X178825539Y-132475562D01*
X178831988Y-132480511D01*
X178957511Y-132552982D01*
X178957512Y-132552982D01*
X178957515Y-132552984D01*
X179097525Y-132590500D01*
X179097528Y-132590500D01*
X179242472Y-132590500D01*
X179242475Y-132590500D01*
X179382485Y-132552984D01*
X179508015Y-132480509D01*
X179610509Y-132378015D01*
X179682984Y-132252485D01*
X179720500Y-132112475D01*
X179720500Y-131967525D01*
X179682984Y-131827515D01*
X179610509Y-131701985D01*
X179508015Y-131599491D01*
X179508013Y-131599490D01*
X179508011Y-131599488D01*
X179382488Y-131527017D01*
X179382489Y-131527017D01*
X179371006Y-131523940D01*
X179242475Y-131489500D01*
X179097525Y-131489500D01*
X178968993Y-131523940D01*
X178957511Y-131527017D01*
X178831988Y-131599488D01*
X178825539Y-131604438D01*
X178824596Y-131603209D01*
X178771358Y-131632280D01*
X178701666Y-131627296D01*
X178665002Y-131603732D01*
X178664461Y-131604438D01*
X178658011Y-131599488D01*
X178532488Y-131527017D01*
X178532489Y-131527017D01*
X178521006Y-131523940D01*
X178392475Y-131489500D01*
X178247525Y-131489500D01*
X178118993Y-131523940D01*
X178107511Y-131527017D01*
X177981988Y-131599488D01*
X177975539Y-131604438D01*
X177974596Y-131603209D01*
X177921358Y-131632280D01*
X177851666Y-131627296D01*
X177815002Y-131603732D01*
X177814461Y-131604438D01*
X177808011Y-131599488D01*
X177682488Y-131527017D01*
X177682489Y-131527017D01*
X177671006Y-131523940D01*
X177542475Y-131489500D01*
X177397525Y-131489500D01*
X177268993Y-131523940D01*
X177257511Y-131527017D01*
X177131988Y-131599488D01*
X177131982Y-131599493D01*
X177029493Y-131701982D01*
X177029488Y-131701988D01*
X176957017Y-131827511D01*
X176954202Y-131838017D01*
X176919500Y-131967525D01*
X174316049Y-131967525D01*
X174253015Y-131904491D01*
X174253013Y-131904490D01*
X174253011Y-131904488D01*
X174127488Y-131832017D01*
X174127489Y-131832017D01*
X174110672Y-131827511D01*
X173987475Y-131794500D01*
X173842525Y-131794500D01*
X173719328Y-131827511D01*
X173702511Y-131832017D01*
X173576988Y-131904488D01*
X173576982Y-131904493D01*
X173474493Y-132006982D01*
X173474488Y-132006988D01*
X173402017Y-132132511D01*
X173402016Y-132132515D01*
X173364500Y-132272525D01*
X171130404Y-132272525D01*
X171112984Y-132207515D01*
X171069681Y-132132513D01*
X171040511Y-132081988D01*
X171040506Y-132081982D01*
X170938017Y-131979493D01*
X170938011Y-131979488D01*
X170812488Y-131907017D01*
X170812489Y-131907017D01*
X170801006Y-131903940D01*
X170672475Y-131869500D01*
X170527525Y-131869500D01*
X170398993Y-131903940D01*
X170387511Y-131907017D01*
X170261988Y-131979488D01*
X170261982Y-131979493D01*
X170159493Y-132081982D01*
X170159488Y-132081988D01*
X170087017Y-132207511D01*
X170087016Y-132207515D01*
X170049500Y-132347525D01*
X140500500Y-132347525D01*
X140500500Y-131139087D01*
X142845499Y-131139087D01*
X142880258Y-131313827D01*
X142880260Y-131313833D01*
X142948443Y-131478441D01*
X142980900Y-131527016D01*
X143047430Y-131626587D01*
X143173412Y-131752569D01*
X143173415Y-131752571D01*
X143321559Y-131851557D01*
X143486167Y-131919740D01*
X143486171Y-131919740D01*
X143486172Y-131919741D01*
X143660912Y-131954500D01*
X143660915Y-131954500D01*
X143839087Y-131954500D01*
X143956649Y-131931114D01*
X144013833Y-131919740D01*
X144178441Y-131851557D01*
X144326585Y-131752571D01*
X144452571Y-131626585D01*
X144551557Y-131478441D01*
X144572647Y-131427525D01*
X164979500Y-131427525D01*
X164979500Y-131572475D01*
X165017016Y-131712485D01*
X165017017Y-131712488D01*
X165089488Y-131838011D01*
X165089490Y-131838013D01*
X165089491Y-131838015D01*
X165191985Y-131940509D01*
X165191986Y-131940510D01*
X165191988Y-131940511D01*
X165317511Y-132012982D01*
X165317512Y-132012982D01*
X165317515Y-132012984D01*
X165457525Y-132050500D01*
X165457528Y-132050500D01*
X165602472Y-132050500D01*
X165602475Y-132050500D01*
X165742485Y-132012984D01*
X165868015Y-131940509D01*
X165970509Y-131838015D01*
X166042984Y-131712485D01*
X166080500Y-131572475D01*
X166080500Y-131427525D01*
X166042984Y-131287515D01*
X165975430Y-131170509D01*
X165970511Y-131161988D01*
X165970506Y-131161982D01*
X165868017Y-131059493D01*
X165868011Y-131059488D01*
X165742488Y-130987017D01*
X165742489Y-130987017D01*
X165731006Y-130983940D01*
X165602475Y-130949500D01*
X165457525Y-130949500D01*
X165328993Y-130983940D01*
X165317511Y-130987017D01*
X165191988Y-131059488D01*
X165191982Y-131059493D01*
X165089493Y-131161982D01*
X165089488Y-131161988D01*
X165017017Y-131287511D01*
X165017016Y-131287515D01*
X164979500Y-131427525D01*
X144572647Y-131427525D01*
X144619740Y-131313833D01*
X144648249Y-131170511D01*
X144654500Y-131139087D01*
X144654500Y-130960912D01*
X144619741Y-130786172D01*
X144619740Y-130786171D01*
X144619740Y-130786167D01*
X144566455Y-130657525D01*
X153319500Y-130657525D01*
X153319500Y-130802475D01*
X153357016Y-130942485D01*
X153357017Y-130942488D01*
X153429488Y-131068011D01*
X153429490Y-131068013D01*
X153429491Y-131068015D01*
X153531985Y-131170509D01*
X153531986Y-131170510D01*
X153531988Y-131170511D01*
X153657511Y-131242982D01*
X153657512Y-131242982D01*
X153657515Y-131242984D01*
X153797525Y-131280500D01*
X153797528Y-131280500D01*
X153942472Y-131280500D01*
X153942475Y-131280500D01*
X154082485Y-131242984D01*
X154208015Y-131170509D01*
X154310509Y-131068015D01*
X154382984Y-130942485D01*
X154420500Y-130802475D01*
X154420500Y-130657525D01*
X154382984Y-130517515D01*
X154310509Y-130391985D01*
X154208015Y-130289491D01*
X154208013Y-130289490D01*
X154208011Y-130289488D01*
X154082488Y-130217017D01*
X154082489Y-130217017D01*
X154071006Y-130213940D01*
X153942475Y-130179500D01*
X153797525Y-130179500D01*
X153668993Y-130213940D01*
X153657511Y-130217017D01*
X153531988Y-130289488D01*
X153531982Y-130289493D01*
X153429493Y-130391982D01*
X153429488Y-130391988D01*
X153357017Y-130517511D01*
X153357016Y-130517515D01*
X153319500Y-130657525D01*
X144566455Y-130657525D01*
X144551557Y-130621559D01*
X144452571Y-130473415D01*
X144452569Y-130473412D01*
X144326587Y-130347430D01*
X144239870Y-130289488D01*
X144178441Y-130248443D01*
X144013833Y-130180260D01*
X144013827Y-130180258D01*
X143839087Y-130145500D01*
X143839085Y-130145500D01*
X143660915Y-130145500D01*
X143660913Y-130145500D01*
X143486172Y-130180258D01*
X143486166Y-130180260D01*
X143321560Y-130248442D01*
X143173412Y-130347430D01*
X143047430Y-130473412D01*
X142948442Y-130621560D01*
X142880260Y-130786166D01*
X142880258Y-130786172D01*
X142845500Y-130960912D01*
X142845500Y-130960915D01*
X142845500Y-131139085D01*
X142845500Y-131139087D01*
X142845499Y-131139087D01*
X140500500Y-131139087D01*
X140500500Y-128077525D01*
X183739500Y-128077525D01*
X183739500Y-128222475D01*
X183777016Y-128362485D01*
X183777017Y-128362488D01*
X183849488Y-128488011D01*
X183849490Y-128488013D01*
X183849491Y-128488015D01*
X183951985Y-128590509D01*
X183951986Y-128590510D01*
X183951988Y-128590511D01*
X184077511Y-128662982D01*
X184077512Y-128662982D01*
X184077515Y-128662984D01*
X184217525Y-128700500D01*
X184217528Y-128700500D01*
X184362472Y-128700500D01*
X184362475Y-128700500D01*
X184502485Y-128662984D01*
X184628015Y-128590509D01*
X184730509Y-128488015D01*
X184802984Y-128362485D01*
X184840500Y-128222475D01*
X184840500Y-128077525D01*
X190639500Y-128077525D01*
X190639500Y-128222475D01*
X190677016Y-128362485D01*
X190677017Y-128362488D01*
X190749488Y-128488011D01*
X190749490Y-128488013D01*
X190749491Y-128488015D01*
X190851985Y-128590509D01*
X190851986Y-128590510D01*
X190851988Y-128590511D01*
X190977511Y-128662982D01*
X190977512Y-128662982D01*
X190977515Y-128662984D01*
X191117525Y-128700500D01*
X191117528Y-128700500D01*
X191262472Y-128700500D01*
X191262475Y-128700500D01*
X191402485Y-128662984D01*
X191528015Y-128590509D01*
X191630509Y-128488015D01*
X191702984Y-128362485D01*
X191740500Y-128222475D01*
X191740500Y-128077525D01*
X191702984Y-127937515D01*
X191630509Y-127811985D01*
X191528015Y-127709491D01*
X191528013Y-127709490D01*
X191528011Y-127709488D01*
X191402488Y-127637017D01*
X191402489Y-127637017D01*
X191391006Y-127633940D01*
X191262475Y-127599500D01*
X191117525Y-127599500D01*
X190988993Y-127633940D01*
X190977511Y-127637017D01*
X190851988Y-127709488D01*
X190851982Y-127709493D01*
X190749493Y-127811982D01*
X190749488Y-127811988D01*
X190677017Y-127937511D01*
X190677016Y-127937515D01*
X190639500Y-128077525D01*
X184840500Y-128077525D01*
X184802984Y-127937515D01*
X184730509Y-127811985D01*
X184628015Y-127709491D01*
X184628013Y-127709490D01*
X184628011Y-127709488D01*
X184502488Y-127637017D01*
X184502489Y-127637017D01*
X184491006Y-127633940D01*
X184362475Y-127599500D01*
X184217525Y-127599500D01*
X184088993Y-127633940D01*
X184077511Y-127637017D01*
X183951988Y-127709488D01*
X183951982Y-127709493D01*
X183849493Y-127811982D01*
X183849488Y-127811988D01*
X183777017Y-127937511D01*
X183777016Y-127937515D01*
X183739500Y-128077525D01*
X140500500Y-128077525D01*
X140500500Y-127287525D01*
X181189500Y-127287525D01*
X181189500Y-127432475D01*
X181227016Y-127572485D01*
X181227017Y-127572488D01*
X181299488Y-127698011D01*
X181299490Y-127698013D01*
X181299491Y-127698015D01*
X181401985Y-127800509D01*
X181401986Y-127800510D01*
X181401988Y-127800511D01*
X181527511Y-127872982D01*
X181527512Y-127872982D01*
X181527515Y-127872984D01*
X181667525Y-127910500D01*
X181667528Y-127910500D01*
X181812472Y-127910500D01*
X181812475Y-127910500D01*
X181952485Y-127872984D01*
X182078015Y-127800509D01*
X182180509Y-127698015D01*
X182252984Y-127572485D01*
X182290500Y-127432475D01*
X182290500Y-127287525D01*
X182252984Y-127147515D01*
X182180509Y-127021985D01*
X182078015Y-126919491D01*
X182078013Y-126919490D01*
X182078011Y-126919488D01*
X181952488Y-126847017D01*
X181952489Y-126847017D01*
X181941006Y-126843940D01*
X181812475Y-126809500D01*
X181667525Y-126809500D01*
X181538993Y-126843940D01*
X181527511Y-126847017D01*
X181401988Y-126919488D01*
X181401982Y-126919493D01*
X181299493Y-127021982D01*
X181299488Y-127021988D01*
X181227017Y-127147511D01*
X181227016Y-127147515D01*
X181189500Y-127287525D01*
X140500500Y-127287525D01*
X140500500Y-113235131D01*
X142099500Y-113235131D01*
X142099500Y-115024856D01*
X142099502Y-115024882D01*
X142102413Y-115049987D01*
X142102415Y-115049991D01*
X142147793Y-115152764D01*
X142147794Y-115152765D01*
X142227235Y-115232206D01*
X142330009Y-115277585D01*
X142355135Y-115280500D01*
X143092873Y-115280499D01*
X143159910Y-115300183D01*
X143205665Y-115352987D01*
X143215609Y-115422146D01*
X143186584Y-115485702D01*
X143127806Y-115523476D01*
X143112270Y-115526972D01*
X142980589Y-115547829D01*
X142808363Y-115603787D01*
X142808360Y-115603788D01*
X142647002Y-115686006D01*
X142500505Y-115792441D01*
X142500500Y-115792445D01*
X142372445Y-115920500D01*
X142372441Y-115920505D01*
X142266006Y-116067002D01*
X142183788Y-116228360D01*
X142183787Y-116228363D01*
X142127829Y-116400589D01*
X142099500Y-116579448D01*
X142099500Y-116760551D01*
X142127829Y-116939410D01*
X142183787Y-117111636D01*
X142183788Y-117111639D01*
X142266006Y-117272997D01*
X142372441Y-117419494D01*
X142372445Y-117419499D01*
X142500500Y-117547554D01*
X142500505Y-117547558D01*
X142553992Y-117586418D01*
X142647006Y-117653996D01*
X142752484Y-117707740D01*
X142808360Y-117736211D01*
X142808363Y-117736212D01*
X142894476Y-117764191D01*
X142980591Y-117792171D01*
X143053639Y-117803740D01*
X143140678Y-117817527D01*
X143203813Y-117847456D01*
X143240744Y-117906768D01*
X143239746Y-117976631D01*
X143201136Y-118034863D01*
X143140678Y-118062473D01*
X142980589Y-118087829D01*
X142808363Y-118143787D01*
X142808360Y-118143788D01*
X142647002Y-118226006D01*
X142500505Y-118332441D01*
X142500500Y-118332445D01*
X142372445Y-118460500D01*
X142372441Y-118460505D01*
X142266006Y-118607002D01*
X142183788Y-118768360D01*
X142183787Y-118768363D01*
X142127829Y-118940589D01*
X142099500Y-119119448D01*
X142099500Y-119300551D01*
X142127829Y-119479410D01*
X142183787Y-119651636D01*
X142183788Y-119651639D01*
X142266006Y-119812997D01*
X142372441Y-119959494D01*
X142372445Y-119959499D01*
X142500500Y-120087554D01*
X142500505Y-120087558D01*
X142627037Y-120179488D01*
X142647006Y-120193996D01*
X142752484Y-120247740D01*
X142808360Y-120276211D01*
X142808363Y-120276212D01*
X142894476Y-120304191D01*
X142980591Y-120332171D01*
X143053639Y-120343740D01*
X143140678Y-120357527D01*
X143203813Y-120387456D01*
X143240744Y-120446768D01*
X143239746Y-120516631D01*
X143201136Y-120574863D01*
X143140678Y-120602473D01*
X142980589Y-120627829D01*
X142808363Y-120683787D01*
X142808360Y-120683788D01*
X142647002Y-120766006D01*
X142500505Y-120872441D01*
X142500500Y-120872445D01*
X142372445Y-121000500D01*
X142372441Y-121000505D01*
X142266006Y-121147002D01*
X142183788Y-121308360D01*
X142183787Y-121308363D01*
X142127829Y-121480589D01*
X142099500Y-121659448D01*
X142099500Y-121840551D01*
X142127829Y-122019410D01*
X142183787Y-122191636D01*
X142183788Y-122191639D01*
X142266006Y-122352997D01*
X142372441Y-122499494D01*
X142372445Y-122499499D01*
X142500500Y-122627554D01*
X142500505Y-122627558D01*
X142596788Y-122697511D01*
X142647006Y-122733996D01*
X142736312Y-122779500D01*
X142808360Y-122816211D01*
X142808363Y-122816212D01*
X142873960Y-122837525D01*
X142980591Y-122872171D01*
X143063429Y-122885291D01*
X143159449Y-122900500D01*
X143159454Y-122900500D01*
X143340551Y-122900500D01*
X143427259Y-122886765D01*
X143519409Y-122872171D01*
X143626040Y-122837525D01*
X161459500Y-122837525D01*
X161459500Y-122982475D01*
X161464728Y-123001985D01*
X161497017Y-123122488D01*
X161569488Y-123248011D01*
X161569490Y-123248013D01*
X161569491Y-123248015D01*
X161671985Y-123350509D01*
X161671986Y-123350510D01*
X161671988Y-123350511D01*
X161797511Y-123422982D01*
X161797512Y-123422982D01*
X161797515Y-123422984D01*
X161937525Y-123460500D01*
X161937528Y-123460500D01*
X162082472Y-123460500D01*
X162082475Y-123460500D01*
X162222485Y-123422984D01*
X162348015Y-123350509D01*
X162430999Y-123267525D01*
X187649500Y-123267525D01*
X187649500Y-123412475D01*
X187687016Y-123552485D01*
X187687017Y-123552488D01*
X187759488Y-123678011D01*
X187759490Y-123678013D01*
X187759491Y-123678015D01*
X187861985Y-123780509D01*
X187861986Y-123780510D01*
X187861988Y-123780511D01*
X187987511Y-123852982D01*
X187987512Y-123852982D01*
X187987515Y-123852984D01*
X188127525Y-123890500D01*
X188127528Y-123890500D01*
X188272472Y-123890500D01*
X188272475Y-123890500D01*
X188412485Y-123852984D01*
X188538015Y-123780509D01*
X188640509Y-123678015D01*
X188712984Y-123552485D01*
X188750500Y-123412475D01*
X188750500Y-123267525D01*
X188747820Y-123257525D01*
X189149500Y-123257525D01*
X189149500Y-123402475D01*
X189165048Y-123460500D01*
X189187017Y-123542488D01*
X189259488Y-123668011D01*
X189259490Y-123668013D01*
X189259491Y-123668015D01*
X189361985Y-123770509D01*
X189361986Y-123770510D01*
X189361988Y-123770511D01*
X189487511Y-123842982D01*
X189487512Y-123842982D01*
X189487515Y-123842984D01*
X189627525Y-123880500D01*
X189627528Y-123880500D01*
X189772472Y-123880500D01*
X189772475Y-123880500D01*
X189912485Y-123842984D01*
X190038015Y-123770509D01*
X190140509Y-123668015D01*
X190212984Y-123542485D01*
X190250500Y-123402475D01*
X190250500Y-123257525D01*
X190212984Y-123117515D01*
X190146284Y-123001988D01*
X190140511Y-122991988D01*
X190140506Y-122991982D01*
X190038017Y-122889493D01*
X190038011Y-122889488D01*
X189912488Y-122817017D01*
X189912489Y-122817017D01*
X189901006Y-122813940D01*
X189772475Y-122779500D01*
X189627525Y-122779500D01*
X189498993Y-122813940D01*
X189487511Y-122817017D01*
X189361988Y-122889488D01*
X189361982Y-122889493D01*
X189259493Y-122991982D01*
X189259488Y-122991988D01*
X189187017Y-123117511D01*
X189187016Y-123117515D01*
X189149500Y-123257525D01*
X188747820Y-123257525D01*
X188712984Y-123127515D01*
X188710080Y-123122486D01*
X188640511Y-123001988D01*
X188640506Y-123001982D01*
X188538017Y-122899493D01*
X188538011Y-122899488D01*
X188412488Y-122827017D01*
X188412489Y-122827017D01*
X188401006Y-122823940D01*
X188272475Y-122789500D01*
X188127525Y-122789500D01*
X187998993Y-122823940D01*
X187987511Y-122827017D01*
X187861988Y-122899488D01*
X187861982Y-122899493D01*
X187759493Y-123001982D01*
X187759488Y-123001988D01*
X187687017Y-123127511D01*
X187687016Y-123127515D01*
X187649500Y-123267525D01*
X162430999Y-123267525D01*
X162450509Y-123248015D01*
X162522984Y-123122485D01*
X162560500Y-122982475D01*
X162560500Y-122837525D01*
X162522984Y-122697515D01*
X162482591Y-122627553D01*
X162450511Y-122571988D01*
X162450506Y-122571982D01*
X162348017Y-122469493D01*
X162348011Y-122469488D01*
X162222488Y-122397017D01*
X162222489Y-122397017D01*
X162211006Y-122393940D01*
X162082475Y-122359500D01*
X161937525Y-122359500D01*
X161808993Y-122393940D01*
X161797511Y-122397017D01*
X161671988Y-122469488D01*
X161671982Y-122469493D01*
X161569493Y-122571982D01*
X161569488Y-122571988D01*
X161497017Y-122697511D01*
X161497016Y-122697515D01*
X161459500Y-122837525D01*
X143626040Y-122837525D01*
X143691639Y-122816211D01*
X143852994Y-122733996D01*
X143853740Y-122733453D01*
X143859760Y-122729081D01*
X143859761Y-122729080D01*
X143999495Y-122627558D01*
X143999497Y-122627555D01*
X143999501Y-122627553D01*
X144127553Y-122499501D01*
X144233996Y-122352994D01*
X144316211Y-122191639D01*
X144317389Y-122188015D01*
X144358174Y-122062488D01*
X144372171Y-122019409D01*
X144397338Y-121860511D01*
X144400500Y-121840551D01*
X144400500Y-121659448D01*
X144374053Y-121492475D01*
X144372171Y-121480591D01*
X144354930Y-121427527D01*
X144338746Y-121377715D01*
X144328937Y-121347525D01*
X153159500Y-121347525D01*
X153159500Y-121492475D01*
X153197016Y-121632485D01*
X153197017Y-121632488D01*
X153269488Y-121758011D01*
X153269490Y-121758013D01*
X153269491Y-121758015D01*
X153371985Y-121860509D01*
X153371986Y-121860510D01*
X153371988Y-121860511D01*
X153497511Y-121932982D01*
X153497512Y-121932982D01*
X153497515Y-121932984D01*
X153637525Y-121970500D01*
X153637528Y-121970500D01*
X153782472Y-121970500D01*
X153782475Y-121970500D01*
X153922485Y-121932984D01*
X154048015Y-121860509D01*
X154150509Y-121758015D01*
X154222984Y-121632485D01*
X154260500Y-121492475D01*
X154260500Y-121427525D01*
X172709500Y-121427525D01*
X172709500Y-121572475D01*
X172747016Y-121712485D01*
X172747017Y-121712488D01*
X172819488Y-121838011D01*
X172819490Y-121838013D01*
X172819491Y-121838015D01*
X172921985Y-121940509D01*
X172921986Y-121940510D01*
X172921988Y-121940511D01*
X173047511Y-122012982D01*
X173047512Y-122012982D01*
X173047515Y-122012984D01*
X173187525Y-122050500D01*
X173187528Y-122050500D01*
X173332472Y-122050500D01*
X173332475Y-122050500D01*
X173472485Y-122012984D01*
X173598015Y-121940509D01*
X173700509Y-121838015D01*
X173735433Y-121777525D01*
X175649500Y-121777525D01*
X175649500Y-121922475D01*
X175675474Y-122019409D01*
X175687017Y-122062488D01*
X175759488Y-122188011D01*
X175759490Y-122188013D01*
X175759491Y-122188015D01*
X175861985Y-122290509D01*
X175861986Y-122290510D01*
X175861988Y-122290511D01*
X175987511Y-122362982D01*
X175987512Y-122362982D01*
X175987515Y-122362984D01*
X176127525Y-122400500D01*
X176127528Y-122400500D01*
X176272472Y-122400500D01*
X176272475Y-122400500D01*
X176412485Y-122362984D01*
X176538015Y-122290509D01*
X176640509Y-122188015D01*
X176712984Y-122062485D01*
X176750500Y-121922475D01*
X176750500Y-121777525D01*
X176712984Y-121637515D01*
X176675431Y-121572472D01*
X176640511Y-121511988D01*
X176640506Y-121511982D01*
X176538017Y-121409493D01*
X176538011Y-121409488D01*
X176412488Y-121337017D01*
X176412489Y-121337017D01*
X176401006Y-121333940D01*
X176272475Y-121299500D01*
X176127525Y-121299500D01*
X175998993Y-121333940D01*
X175987511Y-121337017D01*
X175861988Y-121409488D01*
X175861982Y-121409493D01*
X175759493Y-121511982D01*
X175759488Y-121511988D01*
X175687017Y-121637511D01*
X175687016Y-121637515D01*
X175649500Y-121777525D01*
X173735433Y-121777525D01*
X173772984Y-121712485D01*
X173810500Y-121572475D01*
X173810500Y-121427525D01*
X173772984Y-121287515D01*
X173700509Y-121161985D01*
X173598015Y-121059491D01*
X173598013Y-121059490D01*
X173598011Y-121059488D01*
X173472488Y-120987017D01*
X173472489Y-120987017D01*
X173444409Y-120979493D01*
X173332475Y-120949500D01*
X173187525Y-120949500D01*
X173075591Y-120979493D01*
X173047511Y-120987017D01*
X172921988Y-121059488D01*
X172921982Y-121059493D01*
X172819493Y-121161982D01*
X172819488Y-121161988D01*
X172747017Y-121287511D01*
X172747016Y-121287515D01*
X172709500Y-121427525D01*
X154260500Y-121427525D01*
X154260500Y-121347525D01*
X154222984Y-121207515D01*
X154201613Y-121170500D01*
X154150511Y-121081988D01*
X154150506Y-121081982D01*
X154048017Y-120979493D01*
X154048011Y-120979488D01*
X153922488Y-120907017D01*
X153922489Y-120907017D01*
X153911006Y-120903940D01*
X153782475Y-120869500D01*
X153637525Y-120869500D01*
X153508993Y-120903940D01*
X153497511Y-120907017D01*
X153371988Y-120979488D01*
X153371982Y-120979493D01*
X153269493Y-121081982D01*
X153269488Y-121081988D01*
X153197017Y-121207511D01*
X153197016Y-121207515D01*
X153159500Y-121347525D01*
X144328937Y-121347525D01*
X144316212Y-121308363D01*
X144316211Y-121308360D01*
X144264825Y-121207511D01*
X144233996Y-121147006D01*
X144171153Y-121060509D01*
X144127558Y-121000505D01*
X144127554Y-121000500D01*
X143999499Y-120872445D01*
X143999494Y-120872441D01*
X143852997Y-120766006D01*
X143852996Y-120766005D01*
X143852994Y-120766004D01*
X143801300Y-120739664D01*
X143691639Y-120683788D01*
X143691633Y-120683786D01*
X143610204Y-120657329D01*
X143610203Y-120657329D01*
X143519410Y-120627829D01*
X143359321Y-120602473D01*
X143296186Y-120572544D01*
X143280608Y-120547525D01*
X156409500Y-120547525D01*
X156409500Y-120692475D01*
X156429203Y-120766006D01*
X156447017Y-120832488D01*
X156519488Y-120958011D01*
X156519490Y-120958013D01*
X156519491Y-120958015D01*
X156621985Y-121060509D01*
X156621986Y-121060510D01*
X156621988Y-121060511D01*
X156747511Y-121132982D01*
X156747512Y-121132982D01*
X156747515Y-121132984D01*
X156887525Y-121170500D01*
X156887528Y-121170500D01*
X157032472Y-121170500D01*
X157032475Y-121170500D01*
X157172485Y-121132984D01*
X157298015Y-121060509D01*
X157400509Y-120958015D01*
X157472984Y-120832485D01*
X157510500Y-120692475D01*
X157510500Y-120547525D01*
X157472984Y-120407515D01*
X157444123Y-120357527D01*
X157400511Y-120281988D01*
X157400506Y-120281982D01*
X157298017Y-120179493D01*
X157298011Y-120179488D01*
X157172488Y-120107017D01*
X157172489Y-120107017D01*
X157161006Y-120103940D01*
X157032475Y-120069500D01*
X156887525Y-120069500D01*
X156758993Y-120103940D01*
X156747511Y-120107017D01*
X156621988Y-120179488D01*
X156621982Y-120179493D01*
X156519493Y-120281982D01*
X156519488Y-120281988D01*
X156447017Y-120407511D01*
X156447016Y-120407515D01*
X156409500Y-120547525D01*
X143280608Y-120547525D01*
X143259255Y-120513232D01*
X143260253Y-120443370D01*
X143298863Y-120385137D01*
X143359321Y-120357527D01*
X143429425Y-120346422D01*
X143519409Y-120332171D01*
X143691639Y-120276211D01*
X143852994Y-120193996D01*
X143999501Y-120087553D01*
X144127553Y-119959501D01*
X144233996Y-119812994D01*
X144316211Y-119651639D01*
X144372171Y-119479409D01*
X144386765Y-119387259D01*
X144400500Y-119300551D01*
X144400500Y-119119448D01*
X144384019Y-119015397D01*
X144372171Y-118940591D01*
X144322596Y-118788011D01*
X144316212Y-118768363D01*
X144316211Y-118768360D01*
X144284712Y-118706541D01*
X144233996Y-118607006D01*
X144172579Y-118522472D01*
X144127558Y-118460505D01*
X144127554Y-118460500D01*
X144044579Y-118377525D01*
X156399500Y-118377525D01*
X156399500Y-118522475D01*
X156436881Y-118661982D01*
X156437017Y-118662488D01*
X156509488Y-118788011D01*
X156509490Y-118788013D01*
X156509491Y-118788015D01*
X156611985Y-118890509D01*
X156611986Y-118890510D01*
X156611988Y-118890511D01*
X156737511Y-118962982D01*
X156737512Y-118962982D01*
X156737515Y-118962984D01*
X156877525Y-119000500D01*
X156877528Y-119000500D01*
X157022472Y-119000500D01*
X157022475Y-119000500D01*
X157162485Y-118962984D01*
X157223902Y-118927525D01*
X180799500Y-118927525D01*
X180799500Y-119072475D01*
X180837016Y-119212485D01*
X180837017Y-119212488D01*
X180909488Y-119338011D01*
X180909490Y-119338013D01*
X180909491Y-119338015D01*
X181011985Y-119440509D01*
X181011986Y-119440510D01*
X181011988Y-119440511D01*
X181137511Y-119512982D01*
X181137512Y-119512982D01*
X181137515Y-119512984D01*
X181277525Y-119550500D01*
X181277528Y-119550500D01*
X181422472Y-119550500D01*
X181422475Y-119550500D01*
X181562485Y-119512984D01*
X181688015Y-119440509D01*
X181790509Y-119338015D01*
X181862984Y-119212485D01*
X181900500Y-119072475D01*
X181900500Y-118927525D01*
X181862984Y-118787515D01*
X181851925Y-118768361D01*
X181790511Y-118661988D01*
X181790506Y-118661982D01*
X181688017Y-118559493D01*
X181688011Y-118559488D01*
X181562488Y-118487017D01*
X181562489Y-118487017D01*
X181551006Y-118483940D01*
X181422475Y-118449500D01*
X181277525Y-118449500D01*
X181148993Y-118483940D01*
X181137511Y-118487017D01*
X181011988Y-118559488D01*
X181011982Y-118559493D01*
X180909493Y-118661982D01*
X180909488Y-118661988D01*
X180837017Y-118787511D01*
X180837016Y-118787515D01*
X180799500Y-118927525D01*
X157223902Y-118927525D01*
X157288015Y-118890509D01*
X157390509Y-118788015D01*
X157462984Y-118662485D01*
X157500500Y-118522475D01*
X157500500Y-118377525D01*
X157487496Y-118328995D01*
X187199499Y-118328995D01*
X187226418Y-118464322D01*
X187226421Y-118464332D01*
X187279221Y-118591804D01*
X187279228Y-118591817D01*
X187355885Y-118706541D01*
X187355888Y-118706545D01*
X187453454Y-118804111D01*
X187453458Y-118804114D01*
X187568182Y-118880771D01*
X187568195Y-118880778D01*
X187695667Y-118933578D01*
X187695672Y-118933580D01*
X187695676Y-118933580D01*
X187695677Y-118933581D01*
X187831004Y-118960500D01*
X187831007Y-118960500D01*
X187968995Y-118960500D01*
X188060041Y-118942389D01*
X188104328Y-118933580D01*
X188231811Y-118880775D01*
X188346542Y-118804114D01*
X188444114Y-118706542D01*
X188520775Y-118591811D01*
X188573580Y-118464328D01*
X188590846Y-118377527D01*
X188600500Y-118328995D01*
X188600500Y-118191004D01*
X188573581Y-118055677D01*
X188573580Y-118055676D01*
X188573580Y-118055672D01*
X188554452Y-118009493D01*
X188520778Y-117928195D01*
X188520771Y-117928182D01*
X188444114Y-117813458D01*
X188444111Y-117813454D01*
X188346545Y-117715888D01*
X188346541Y-117715885D01*
X188231817Y-117639228D01*
X188231804Y-117639221D01*
X188104332Y-117586421D01*
X188104322Y-117586418D01*
X187968995Y-117559500D01*
X187968993Y-117559500D01*
X187831007Y-117559500D01*
X187831005Y-117559500D01*
X187695677Y-117586418D01*
X187695667Y-117586421D01*
X187568195Y-117639221D01*
X187568182Y-117639228D01*
X187453458Y-117715885D01*
X187453454Y-117715888D01*
X187355888Y-117813454D01*
X187355885Y-117813458D01*
X187279228Y-117928182D01*
X187279221Y-117928195D01*
X187226421Y-118055667D01*
X187226418Y-118055677D01*
X187199500Y-118191004D01*
X187199500Y-118191007D01*
X187199500Y-118328993D01*
X187199500Y-118328995D01*
X187199499Y-118328995D01*
X157487496Y-118328995D01*
X157462984Y-118237515D01*
X157456339Y-118226006D01*
X157390511Y-118111988D01*
X157390506Y-118111982D01*
X157288017Y-118009493D01*
X157288011Y-118009488D01*
X157162488Y-117937017D01*
X157162489Y-117937017D01*
X157151006Y-117933940D01*
X157022475Y-117899500D01*
X156877525Y-117899500D01*
X156748993Y-117933940D01*
X156737511Y-117937017D01*
X156611988Y-118009488D01*
X156611982Y-118009493D01*
X156509493Y-118111982D01*
X156509488Y-118111988D01*
X156437017Y-118237511D01*
X156437016Y-118237515D01*
X156399500Y-118377525D01*
X144044579Y-118377525D01*
X143999499Y-118332445D01*
X143999494Y-118332441D01*
X143852997Y-118226006D01*
X143852996Y-118226005D01*
X143852994Y-118226004D01*
X143784303Y-118191004D01*
X143691639Y-118143788D01*
X143691636Y-118143787D01*
X143519410Y-118087829D01*
X143359321Y-118062473D01*
X143296186Y-118032544D01*
X143259255Y-117973232D01*
X143260253Y-117903370D01*
X143298863Y-117845137D01*
X143359321Y-117817527D01*
X143429425Y-117806422D01*
X143519409Y-117792171D01*
X143691639Y-117736211D01*
X143852994Y-117653996D01*
X143999501Y-117547553D01*
X144127553Y-117419501D01*
X144233996Y-117272994D01*
X144316211Y-117111639D01*
X144372171Y-116939409D01*
X144386765Y-116847259D01*
X144400500Y-116760551D01*
X144400500Y-116579448D01*
X144384019Y-116475397D01*
X144372171Y-116400591D01*
X144344191Y-116314476D01*
X144316212Y-116228363D01*
X144316211Y-116228360D01*
X144287740Y-116172484D01*
X144233996Y-116067006D01*
X144220396Y-116048287D01*
X144127558Y-115920505D01*
X144127554Y-115920500D01*
X143999499Y-115792445D01*
X143999494Y-115792441D01*
X143978964Y-115777525D01*
X155789500Y-115777525D01*
X155789500Y-115922475D01*
X155827016Y-116062485D01*
X155827017Y-116062488D01*
X155899488Y-116188011D01*
X155899490Y-116188013D01*
X155899491Y-116188015D01*
X156001985Y-116290509D01*
X156001986Y-116290510D01*
X156001988Y-116290511D01*
X156127511Y-116362982D01*
X156127512Y-116362982D01*
X156127515Y-116362984D01*
X156267525Y-116400500D01*
X156267528Y-116400500D01*
X156412472Y-116400500D01*
X156412475Y-116400500D01*
X156552485Y-116362984D01*
X156678015Y-116290509D01*
X156780509Y-116188015D01*
X156852984Y-116062485D01*
X156890500Y-115922475D01*
X156890500Y-115777525D01*
X156852984Y-115637515D01*
X156833512Y-115603789D01*
X156780511Y-115511988D01*
X156780506Y-115511982D01*
X156678016Y-115409492D01*
X156678015Y-115409491D01*
X156656113Y-115396846D01*
X156552488Y-115337017D01*
X156552489Y-115337017D01*
X156541006Y-115333940D01*
X156479745Y-115317525D01*
X161459500Y-115317525D01*
X161459500Y-115462475D01*
X161482371Y-115547829D01*
X161497017Y-115602488D01*
X161569488Y-115728011D01*
X161569490Y-115728013D01*
X161569491Y-115728015D01*
X161671985Y-115830509D01*
X161671986Y-115830510D01*
X161671988Y-115830511D01*
X161797511Y-115902982D01*
X161797512Y-115902982D01*
X161797515Y-115902984D01*
X161937525Y-115940500D01*
X161937528Y-115940500D01*
X162082472Y-115940500D01*
X162082475Y-115940500D01*
X162222485Y-115902984D01*
X162348015Y-115830509D01*
X162450509Y-115728015D01*
X162522984Y-115602485D01*
X162560500Y-115462475D01*
X162560500Y-115317525D01*
X162522984Y-115177515D01*
X162450509Y-115051985D01*
X162348015Y-114949491D01*
X162348013Y-114949490D01*
X162348011Y-114949488D01*
X162222488Y-114877017D01*
X162222489Y-114877017D01*
X162211006Y-114873940D01*
X162082475Y-114839500D01*
X161937525Y-114839500D01*
X161808993Y-114873940D01*
X161797511Y-114877017D01*
X161671988Y-114949488D01*
X161671982Y-114949493D01*
X161569493Y-115051982D01*
X161569488Y-115051988D01*
X161497017Y-115177511D01*
X161497016Y-115177515D01*
X161459500Y-115317525D01*
X156479745Y-115317525D01*
X156412475Y-115299500D01*
X156267525Y-115299500D01*
X156138993Y-115333940D01*
X156127511Y-115337017D01*
X156001988Y-115409488D01*
X156001982Y-115409493D01*
X155899493Y-115511982D01*
X155899488Y-115511988D01*
X155827017Y-115637511D01*
X155827016Y-115637515D01*
X155789500Y-115777525D01*
X143978964Y-115777525D01*
X143852997Y-115686006D01*
X143852996Y-115686005D01*
X143852994Y-115686004D01*
X143757830Y-115637515D01*
X143691639Y-115603788D01*
X143691636Y-115603787D01*
X143519410Y-115547829D01*
X143387728Y-115526972D01*
X143324594Y-115497042D01*
X143287663Y-115437731D01*
X143288661Y-115367868D01*
X143327271Y-115309636D01*
X143391235Y-115281522D01*
X143407120Y-115280499D01*
X144144864Y-115280499D01*
X144144879Y-115280497D01*
X144144882Y-115280497D01*
X144169987Y-115277586D01*
X144169988Y-115277585D01*
X144169991Y-115277585D01*
X144272765Y-115232206D01*
X144352206Y-115152765D01*
X144397585Y-115049991D01*
X144400500Y-115024865D01*
X144400499Y-113235136D01*
X144397585Y-113210009D01*
X144396488Y-113207525D01*
X157749500Y-113207525D01*
X157749500Y-113352475D01*
X157783310Y-113478653D01*
X157787017Y-113492488D01*
X157859488Y-113618011D01*
X157859490Y-113618013D01*
X157859491Y-113618015D01*
X157961985Y-113720509D01*
X157961986Y-113720510D01*
X157961988Y-113720511D01*
X158087511Y-113792982D01*
X158087512Y-113792982D01*
X158087515Y-113792984D01*
X158227525Y-113830500D01*
X158227528Y-113830500D01*
X158372472Y-113830500D01*
X158372475Y-113830500D01*
X158420898Y-113817525D01*
X162239500Y-113817525D01*
X162239500Y-113962475D01*
X162277016Y-114102485D01*
X162277017Y-114102488D01*
X162349488Y-114228011D01*
X162349490Y-114228013D01*
X162349491Y-114228015D01*
X162451985Y-114330509D01*
X162451986Y-114330510D01*
X162451988Y-114330511D01*
X162577511Y-114402982D01*
X162577512Y-114402982D01*
X162577515Y-114402984D01*
X162717525Y-114440500D01*
X162717528Y-114440500D01*
X162862472Y-114440500D01*
X162862475Y-114440500D01*
X163002485Y-114402984D01*
X163128015Y-114330509D01*
X163230509Y-114228015D01*
X163302984Y-114102485D01*
X163340500Y-113962475D01*
X163340500Y-113817525D01*
X163739500Y-113817525D01*
X163739500Y-113962475D01*
X163777016Y-114102485D01*
X163777017Y-114102488D01*
X163849488Y-114228011D01*
X163849490Y-114228013D01*
X163849491Y-114228015D01*
X163951985Y-114330509D01*
X163951986Y-114330510D01*
X163951988Y-114330511D01*
X164077511Y-114402982D01*
X164077512Y-114402982D01*
X164077515Y-114402984D01*
X164217525Y-114440500D01*
X164217528Y-114440500D01*
X164362472Y-114440500D01*
X164362475Y-114440500D01*
X164502485Y-114402984D01*
X164628015Y-114330509D01*
X164730509Y-114228015D01*
X164802984Y-114102485D01*
X164840500Y-113962475D01*
X164840500Y-113817525D01*
X165089500Y-113817525D01*
X165089500Y-113962475D01*
X165127016Y-114102485D01*
X165127017Y-114102488D01*
X165199488Y-114228011D01*
X165199490Y-114228013D01*
X165199491Y-114228015D01*
X165301985Y-114330509D01*
X165301986Y-114330510D01*
X165301988Y-114330511D01*
X165427511Y-114402982D01*
X165427512Y-114402982D01*
X165427515Y-114402984D01*
X165567525Y-114440500D01*
X165567528Y-114440500D01*
X165712472Y-114440500D01*
X165712475Y-114440500D01*
X165852485Y-114402984D01*
X165978015Y-114330509D01*
X166080509Y-114228015D01*
X166152984Y-114102485D01*
X166190500Y-113962475D01*
X166190500Y-113817525D01*
X166439500Y-113817525D01*
X166439500Y-113962475D01*
X166477016Y-114102485D01*
X166477017Y-114102488D01*
X166549488Y-114228011D01*
X166549490Y-114228013D01*
X166549491Y-114228015D01*
X166651985Y-114330509D01*
X166651986Y-114330510D01*
X166651988Y-114330511D01*
X166777511Y-114402982D01*
X166777512Y-114402982D01*
X166777515Y-114402984D01*
X166917525Y-114440500D01*
X166917528Y-114440500D01*
X167062472Y-114440500D01*
X167062475Y-114440500D01*
X167202485Y-114402984D01*
X167328015Y-114330509D01*
X167430509Y-114228015D01*
X167502984Y-114102485D01*
X167540500Y-113962475D01*
X167540500Y-113817525D01*
X167939500Y-113817525D01*
X167939500Y-113962475D01*
X167977016Y-114102485D01*
X167977017Y-114102488D01*
X168049488Y-114228011D01*
X168049490Y-114228013D01*
X168049491Y-114228015D01*
X168151985Y-114330509D01*
X168151986Y-114330510D01*
X168151988Y-114330511D01*
X168277511Y-114402982D01*
X168277512Y-114402982D01*
X168277515Y-114402984D01*
X168417525Y-114440500D01*
X168417528Y-114440500D01*
X168562472Y-114440500D01*
X168562475Y-114440500D01*
X168702485Y-114402984D01*
X168828015Y-114330509D01*
X168930509Y-114228015D01*
X169002984Y-114102485D01*
X169040500Y-113962475D01*
X169040500Y-113817525D01*
X169639500Y-113817525D01*
X169639500Y-113962475D01*
X169677016Y-114102485D01*
X169677017Y-114102488D01*
X169749488Y-114228011D01*
X169749490Y-114228013D01*
X169749491Y-114228015D01*
X169851985Y-114330509D01*
X169851986Y-114330510D01*
X169851988Y-114330511D01*
X169977511Y-114402982D01*
X169977512Y-114402982D01*
X169977515Y-114402984D01*
X170117525Y-114440500D01*
X170117528Y-114440500D01*
X170262472Y-114440500D01*
X170262475Y-114440500D01*
X170402485Y-114402984D01*
X170528015Y-114330509D01*
X170630509Y-114228015D01*
X170702984Y-114102485D01*
X170740500Y-113962475D01*
X170740500Y-113817525D01*
X170702984Y-113677515D01*
X170668629Y-113618011D01*
X170630511Y-113551988D01*
X170630506Y-113551982D01*
X170528017Y-113449493D01*
X170528015Y-113449491D01*
X170402485Y-113377016D01*
X170262475Y-113339500D01*
X170117525Y-113339500D01*
X169988993Y-113373940D01*
X169977511Y-113377017D01*
X169851988Y-113449488D01*
X169851982Y-113449493D01*
X169749493Y-113551982D01*
X169749488Y-113551988D01*
X169677017Y-113677511D01*
X169677016Y-113677515D01*
X169639500Y-113817525D01*
X169040500Y-113817525D01*
X169002984Y-113677515D01*
X168968629Y-113618011D01*
X168930511Y-113551988D01*
X168930506Y-113551982D01*
X168828017Y-113449493D01*
X168828011Y-113449488D01*
X168702488Y-113377017D01*
X168702489Y-113377017D01*
X168691006Y-113373940D01*
X168562475Y-113339500D01*
X168417525Y-113339500D01*
X168288993Y-113373940D01*
X168277511Y-113377017D01*
X168151988Y-113449488D01*
X168151982Y-113449493D01*
X168049493Y-113551982D01*
X168049488Y-113551988D01*
X167977017Y-113677511D01*
X167977016Y-113677515D01*
X167939500Y-113817525D01*
X167540500Y-113817525D01*
X167502984Y-113677515D01*
X167468629Y-113618011D01*
X167430511Y-113551988D01*
X167430506Y-113551982D01*
X167328017Y-113449493D01*
X167328011Y-113449488D01*
X167202488Y-113377017D01*
X167202489Y-113377017D01*
X167191006Y-113373940D01*
X167062475Y-113339500D01*
X166917525Y-113339500D01*
X166788993Y-113373940D01*
X166777511Y-113377017D01*
X166651988Y-113449488D01*
X166651982Y-113449493D01*
X166549493Y-113551982D01*
X166549488Y-113551988D01*
X166477017Y-113677511D01*
X166477016Y-113677515D01*
X166439500Y-113817525D01*
X166190500Y-113817525D01*
X166152984Y-113677515D01*
X166118629Y-113618011D01*
X166080511Y-113551988D01*
X166080506Y-113551982D01*
X165978017Y-113449493D01*
X165978011Y-113449488D01*
X165852488Y-113377017D01*
X165852489Y-113377017D01*
X165841006Y-113373940D01*
X165712475Y-113339500D01*
X165567525Y-113339500D01*
X165438993Y-113373940D01*
X165427511Y-113377017D01*
X165301988Y-113449488D01*
X165301982Y-113449493D01*
X165199493Y-113551982D01*
X165199488Y-113551988D01*
X165127017Y-113677511D01*
X165127016Y-113677515D01*
X165089500Y-113817525D01*
X164840500Y-113817525D01*
X164802984Y-113677515D01*
X164768629Y-113618011D01*
X164730511Y-113551988D01*
X164730506Y-113551982D01*
X164628017Y-113449493D01*
X164628011Y-113449488D01*
X164502488Y-113377017D01*
X164502489Y-113377017D01*
X164491006Y-113373940D01*
X164362475Y-113339500D01*
X164217525Y-113339500D01*
X164088993Y-113373940D01*
X164077511Y-113377017D01*
X163951988Y-113449488D01*
X163951982Y-113449493D01*
X163849493Y-113551982D01*
X163849488Y-113551988D01*
X163777017Y-113677511D01*
X163777016Y-113677515D01*
X163739500Y-113817525D01*
X163340500Y-113817525D01*
X163302984Y-113677515D01*
X163268629Y-113618011D01*
X163230511Y-113551988D01*
X163230506Y-113551982D01*
X163128017Y-113449493D01*
X163128011Y-113449488D01*
X163002488Y-113377017D01*
X163002489Y-113377017D01*
X162991006Y-113373940D01*
X162862475Y-113339500D01*
X162717525Y-113339500D01*
X162588993Y-113373940D01*
X162577511Y-113377017D01*
X162451988Y-113449488D01*
X162451982Y-113449493D01*
X162349493Y-113551982D01*
X162349488Y-113551988D01*
X162277017Y-113677511D01*
X162277016Y-113677515D01*
X162239500Y-113817525D01*
X158420898Y-113817525D01*
X158512485Y-113792984D01*
X158638015Y-113720509D01*
X158740509Y-113618015D01*
X158812984Y-113492485D01*
X158850500Y-113352475D01*
X158850500Y-113317525D01*
X171089500Y-113317525D01*
X171089500Y-113462475D01*
X171120401Y-113577796D01*
X171127017Y-113602488D01*
X171199488Y-113728011D01*
X171199490Y-113728013D01*
X171199491Y-113728015D01*
X171301985Y-113830509D01*
X171301986Y-113830510D01*
X171301988Y-113830511D01*
X171427511Y-113902982D01*
X171427512Y-113902982D01*
X171427515Y-113902984D01*
X171567525Y-113940500D01*
X171567528Y-113940500D01*
X171712472Y-113940500D01*
X171712475Y-113940500D01*
X171852485Y-113902984D01*
X171978015Y-113830509D01*
X172027819Y-113780705D01*
X172089142Y-113747220D01*
X172158834Y-113752204D01*
X172214767Y-113794076D01*
X172239184Y-113859540D01*
X172239500Y-113868386D01*
X172239500Y-113962475D01*
X172277016Y-114102485D01*
X172277017Y-114102488D01*
X172349488Y-114228011D01*
X172349490Y-114228013D01*
X172349491Y-114228015D01*
X172451985Y-114330509D01*
X172451986Y-114330510D01*
X172451988Y-114330511D01*
X172577511Y-114402982D01*
X172577512Y-114402982D01*
X172577515Y-114402984D01*
X172717525Y-114440500D01*
X172717528Y-114440500D01*
X172862472Y-114440500D01*
X172862475Y-114440500D01*
X173002485Y-114402984D01*
X173128015Y-114330509D01*
X173230509Y-114228015D01*
X173302984Y-114102485D01*
X173340500Y-113962475D01*
X173340500Y-113868386D01*
X173360185Y-113801347D01*
X173412989Y-113755592D01*
X173482147Y-113745648D01*
X173545703Y-113774673D01*
X173552181Y-113780705D01*
X173601985Y-113830509D01*
X173601986Y-113830510D01*
X173601988Y-113830511D01*
X173727511Y-113902982D01*
X173727512Y-113902982D01*
X173727515Y-113902984D01*
X173867525Y-113940500D01*
X173867528Y-113940500D01*
X174012472Y-113940500D01*
X174012475Y-113940500D01*
X174152485Y-113902984D01*
X174278015Y-113830509D01*
X174377819Y-113730705D01*
X174439142Y-113697220D01*
X174508834Y-113702204D01*
X174564767Y-113744076D01*
X174589184Y-113809540D01*
X174589500Y-113818386D01*
X174589500Y-113962475D01*
X174627016Y-114102485D01*
X174627017Y-114102488D01*
X174699488Y-114228011D01*
X174699490Y-114228013D01*
X174699491Y-114228015D01*
X174801985Y-114330509D01*
X174801986Y-114330510D01*
X174801988Y-114330511D01*
X174927511Y-114402982D01*
X174927512Y-114402982D01*
X174927515Y-114402984D01*
X175067525Y-114440500D01*
X175067528Y-114440500D01*
X175212472Y-114440500D01*
X175212475Y-114440500D01*
X175352485Y-114402984D01*
X175478015Y-114330509D01*
X175580509Y-114228015D01*
X175652984Y-114102485D01*
X175690500Y-113962475D01*
X175690500Y-113817525D01*
X175652984Y-113677515D01*
X175618629Y-113618011D01*
X175580511Y-113551988D01*
X175580506Y-113551982D01*
X175478017Y-113449493D01*
X175478011Y-113449488D01*
X175352488Y-113377017D01*
X175352489Y-113377017D01*
X175341006Y-113373940D01*
X175212475Y-113339500D01*
X175067525Y-113339500D01*
X174938993Y-113373940D01*
X174927511Y-113377017D01*
X174801988Y-113449488D01*
X174801982Y-113449493D01*
X174702181Y-113549295D01*
X174640858Y-113582780D01*
X174571166Y-113577796D01*
X174515233Y-113535924D01*
X174490816Y-113470460D01*
X174490500Y-113461614D01*
X174490500Y-113317527D01*
X174490500Y-113317525D01*
X174452984Y-113177515D01*
X174389475Y-113067515D01*
X174380511Y-113051988D01*
X174380506Y-113051982D01*
X174278017Y-112949493D01*
X174278011Y-112949488D01*
X174152488Y-112877017D01*
X174152489Y-112877017D01*
X174141006Y-112873940D01*
X174012475Y-112839500D01*
X173867525Y-112839500D01*
X173738993Y-112873940D01*
X173727511Y-112877017D01*
X173601988Y-112949488D01*
X173601982Y-112949493D01*
X173499493Y-113051982D01*
X173499488Y-113051988D01*
X173427017Y-113177511D01*
X173427016Y-113177515D01*
X173389500Y-113317525D01*
X173389500Y-113317527D01*
X173389500Y-113411614D01*
X173369815Y-113478653D01*
X173317011Y-113524408D01*
X173247853Y-113534352D01*
X173184297Y-113505327D01*
X173177819Y-113499295D01*
X173128017Y-113449493D01*
X173128011Y-113449488D01*
X173002488Y-113377017D01*
X173002489Y-113377017D01*
X172991006Y-113373940D01*
X172862475Y-113339500D01*
X172717525Y-113339500D01*
X172588993Y-113373940D01*
X172577511Y-113377017D01*
X172451988Y-113449488D01*
X172451982Y-113449493D01*
X172402181Y-113499295D01*
X172340858Y-113532780D01*
X172271166Y-113527796D01*
X172215233Y-113485924D01*
X172190816Y-113420460D01*
X172190500Y-113411614D01*
X172190500Y-113317527D01*
X172190500Y-113317525D01*
X172152984Y-113177515D01*
X172089475Y-113067515D01*
X172080511Y-113051988D01*
X172080506Y-113051982D01*
X171978017Y-112949493D01*
X171978011Y-112949488D01*
X171852488Y-112877017D01*
X171852489Y-112877017D01*
X171841006Y-112873940D01*
X171712475Y-112839500D01*
X171567525Y-112839500D01*
X171438993Y-112873940D01*
X171427511Y-112877017D01*
X171301988Y-112949488D01*
X171301982Y-112949493D01*
X171199493Y-113051982D01*
X171199488Y-113051988D01*
X171127017Y-113177511D01*
X171127016Y-113177515D01*
X171089500Y-113317525D01*
X158850500Y-113317525D01*
X158850500Y-113207525D01*
X158812984Y-113067515D01*
X158804019Y-113051988D01*
X158740511Y-112941988D01*
X158740506Y-112941982D01*
X158638017Y-112839493D01*
X158638011Y-112839488D01*
X158512488Y-112767017D01*
X158512489Y-112767017D01*
X158460117Y-112752984D01*
X158372475Y-112729500D01*
X158227525Y-112729500D01*
X158139883Y-112752984D01*
X158087511Y-112767017D01*
X157961988Y-112839488D01*
X157961982Y-112839493D01*
X157859493Y-112941982D01*
X157859488Y-112941988D01*
X157787017Y-113067511D01*
X157787016Y-113067515D01*
X157749500Y-113207525D01*
X144396488Y-113207525D01*
X144352206Y-113107235D01*
X144272765Y-113027794D01*
X144272763Y-113027793D01*
X144169992Y-112982415D01*
X144144865Y-112979500D01*
X142355143Y-112979500D01*
X142355117Y-112979502D01*
X142330012Y-112982413D01*
X142330008Y-112982415D01*
X142227235Y-113027793D01*
X142147794Y-113107234D01*
X142102415Y-113210006D01*
X142102415Y-113210008D01*
X142099500Y-113235131D01*
X140500500Y-113235131D01*
X140500500Y-112267525D01*
X163739500Y-112267525D01*
X163739500Y-112412475D01*
X163777016Y-112552485D01*
X163777017Y-112552488D01*
X163849488Y-112678011D01*
X163849490Y-112678013D01*
X163849491Y-112678015D01*
X163951985Y-112780509D01*
X163951986Y-112780510D01*
X163951988Y-112780511D01*
X164077511Y-112852982D01*
X164077512Y-112852982D01*
X164077515Y-112852984D01*
X164217525Y-112890500D01*
X164217528Y-112890500D01*
X164362472Y-112890500D01*
X164362475Y-112890500D01*
X164502485Y-112852984D01*
X164628015Y-112780509D01*
X164730509Y-112678015D01*
X164802984Y-112552485D01*
X164840500Y-112412475D01*
X164840500Y-112267525D01*
X164827102Y-112217525D01*
X168589500Y-112217525D01*
X168589500Y-112362475D01*
X168627016Y-112502485D01*
X168627017Y-112502488D01*
X168699488Y-112628011D01*
X168699490Y-112628013D01*
X168699491Y-112628015D01*
X168801985Y-112730509D01*
X168801986Y-112730510D01*
X168801988Y-112730511D01*
X168927511Y-112802982D01*
X168927512Y-112802982D01*
X168927515Y-112802984D01*
X169067525Y-112840500D01*
X169067528Y-112840500D01*
X169212472Y-112840500D01*
X169212475Y-112840500D01*
X169352485Y-112802984D01*
X169478015Y-112730509D01*
X169580509Y-112628015D01*
X169652984Y-112502485D01*
X169690500Y-112362475D01*
X169690500Y-112217525D01*
X169677102Y-112167525D01*
X174989500Y-112167525D01*
X174989500Y-112312475D01*
X175017109Y-112415511D01*
X175027017Y-112452488D01*
X175099488Y-112578011D01*
X175099490Y-112578013D01*
X175099491Y-112578015D01*
X175201985Y-112680509D01*
X175201986Y-112680510D01*
X175201988Y-112680511D01*
X175327511Y-112752982D01*
X175327512Y-112752982D01*
X175327515Y-112752984D01*
X175467525Y-112790500D01*
X175467528Y-112790500D01*
X175612472Y-112790500D01*
X175612475Y-112790500D01*
X175752485Y-112752984D01*
X175878015Y-112680509D01*
X175980509Y-112578015D01*
X176052984Y-112452485D01*
X176090500Y-112312475D01*
X176090500Y-112167525D01*
X176052984Y-112027515D01*
X176038244Y-112001985D01*
X175980511Y-111901988D01*
X175980506Y-111901982D01*
X175878017Y-111799493D01*
X175878015Y-111799491D01*
X175752485Y-111727016D01*
X175612475Y-111689500D01*
X175467525Y-111689500D01*
X175338993Y-111723940D01*
X175327511Y-111727017D01*
X175201988Y-111799488D01*
X175201982Y-111799493D01*
X175099493Y-111901982D01*
X175099488Y-111901988D01*
X175027017Y-112027511D01*
X175027016Y-112027515D01*
X174989500Y-112167525D01*
X169677102Y-112167525D01*
X169652984Y-112077515D01*
X169635640Y-112047475D01*
X169580511Y-111951988D01*
X169580506Y-111951982D01*
X169478017Y-111849493D01*
X169478011Y-111849488D01*
X169352488Y-111777017D01*
X169352489Y-111777017D01*
X169341006Y-111773940D01*
X169212475Y-111739500D01*
X169067525Y-111739500D01*
X168938993Y-111773940D01*
X168927511Y-111777017D01*
X168801988Y-111849488D01*
X168801982Y-111849493D01*
X168699493Y-111951982D01*
X168699488Y-111951988D01*
X168627017Y-112077511D01*
X168624202Y-112088017D01*
X168589500Y-112217525D01*
X164827102Y-112217525D01*
X164802984Y-112127515D01*
X164780176Y-112088011D01*
X164730511Y-112001988D01*
X164730506Y-112001982D01*
X164628017Y-111899493D01*
X164628011Y-111899488D01*
X164502488Y-111827017D01*
X164502489Y-111827017D01*
X164485527Y-111822472D01*
X164362475Y-111789500D01*
X164217525Y-111789500D01*
X164094473Y-111822472D01*
X164077511Y-111827017D01*
X163951988Y-111899488D01*
X163951982Y-111899493D01*
X163849493Y-112001982D01*
X163849488Y-112001988D01*
X163777017Y-112127511D01*
X163777016Y-112127515D01*
X163739500Y-112267525D01*
X140500500Y-112267525D01*
X140500500Y-111677525D01*
X186649500Y-111677525D01*
X186649500Y-111822475D01*
X186687016Y-111962485D01*
X186687017Y-111962488D01*
X186759488Y-112088011D01*
X186759490Y-112088013D01*
X186759491Y-112088015D01*
X186861985Y-112190509D01*
X186861986Y-112190510D01*
X186861988Y-112190511D01*
X186987511Y-112262982D01*
X186987512Y-112262982D01*
X186987515Y-112262984D01*
X187127525Y-112300500D01*
X187127528Y-112300500D01*
X187272472Y-112300500D01*
X187272475Y-112300500D01*
X187412485Y-112262984D01*
X187538015Y-112190509D01*
X187640509Y-112088015D01*
X187712984Y-111962485D01*
X187729050Y-111902525D01*
X189449500Y-111902525D01*
X189449500Y-112047475D01*
X189470946Y-112127511D01*
X189487017Y-112187488D01*
X189559488Y-112313011D01*
X189559490Y-112313013D01*
X189559491Y-112313015D01*
X189661985Y-112415509D01*
X189661986Y-112415510D01*
X189661988Y-112415511D01*
X189787511Y-112487982D01*
X189787512Y-112487982D01*
X189787515Y-112487984D01*
X189927525Y-112525500D01*
X189927528Y-112525500D01*
X190072472Y-112525500D01*
X190072475Y-112525500D01*
X190212485Y-112487984D01*
X190338015Y-112415509D01*
X190440509Y-112313015D01*
X190512984Y-112187485D01*
X190550500Y-112047475D01*
X190550500Y-111902525D01*
X190512984Y-111762515D01*
X190499696Y-111739500D01*
X190440511Y-111636988D01*
X190440506Y-111636982D01*
X190338017Y-111534493D01*
X190338011Y-111534488D01*
X190212488Y-111462017D01*
X190212489Y-111462017D01*
X190201006Y-111458940D01*
X190072475Y-111424500D01*
X189927525Y-111424500D01*
X189798993Y-111458940D01*
X189787511Y-111462017D01*
X189661988Y-111534488D01*
X189661982Y-111534493D01*
X189559493Y-111636982D01*
X189559488Y-111636988D01*
X189487017Y-111762511D01*
X189487016Y-111762515D01*
X189449500Y-111902525D01*
X187729050Y-111902525D01*
X187750500Y-111822475D01*
X187750500Y-111677525D01*
X187712984Y-111537515D01*
X187711239Y-111534493D01*
X187640511Y-111411988D01*
X187640506Y-111411982D01*
X187538017Y-111309493D01*
X187538011Y-111309488D01*
X187412488Y-111237017D01*
X187412489Y-111237017D01*
X187401006Y-111233940D01*
X187272475Y-111199500D01*
X187127525Y-111199500D01*
X186998993Y-111233940D01*
X186987511Y-111237017D01*
X186861988Y-111309488D01*
X186861982Y-111309493D01*
X186759493Y-111411982D01*
X186759488Y-111411988D01*
X186687017Y-111537511D01*
X186687016Y-111537515D01*
X186649500Y-111677525D01*
X140500500Y-111677525D01*
X140500500Y-110767525D01*
X162189500Y-110767525D01*
X162189500Y-110912475D01*
X162227016Y-111052485D01*
X162227017Y-111052488D01*
X162299488Y-111178011D01*
X162299490Y-111178013D01*
X162299491Y-111178015D01*
X162401985Y-111280509D01*
X162401986Y-111280510D01*
X162401988Y-111280511D01*
X162527511Y-111352982D01*
X162527512Y-111352982D01*
X162527515Y-111352984D01*
X162667525Y-111390500D01*
X162667528Y-111390500D01*
X162812472Y-111390500D01*
X162812475Y-111390500D01*
X162952485Y-111352984D01*
X163078015Y-111280509D01*
X163180509Y-111178015D01*
X163252984Y-111052485D01*
X163290500Y-110912475D01*
X163290500Y-110767525D01*
X163252984Y-110627515D01*
X163225843Y-110580506D01*
X163180511Y-110501988D01*
X163180506Y-110501982D01*
X163078017Y-110399493D01*
X163078011Y-110399488D01*
X162952488Y-110327017D01*
X162952489Y-110327017D01*
X162941006Y-110323940D01*
X162812475Y-110289500D01*
X162667525Y-110289500D01*
X162538993Y-110323940D01*
X162527511Y-110327017D01*
X162401988Y-110399488D01*
X162401982Y-110399493D01*
X162299493Y-110501982D01*
X162299488Y-110501988D01*
X162227017Y-110627511D01*
X162227016Y-110627515D01*
X162189500Y-110767525D01*
X140500500Y-110767525D01*
X140500500Y-110067525D01*
X163689500Y-110067525D01*
X163689500Y-110212475D01*
X163710139Y-110289500D01*
X163727017Y-110352488D01*
X163799488Y-110478011D01*
X163799490Y-110478013D01*
X163799491Y-110478015D01*
X163901985Y-110580509D01*
X163901986Y-110580510D01*
X163901988Y-110580511D01*
X164027511Y-110652982D01*
X164027512Y-110652982D01*
X164027515Y-110652984D01*
X164167525Y-110690500D01*
X164167528Y-110690500D01*
X164312472Y-110690500D01*
X164312475Y-110690500D01*
X164452485Y-110652984D01*
X164578015Y-110580509D01*
X164680509Y-110478015D01*
X164752984Y-110352485D01*
X164790500Y-110212475D01*
X164790500Y-110067525D01*
X165589500Y-110067525D01*
X165589500Y-110212475D01*
X165610139Y-110289500D01*
X165627017Y-110352488D01*
X165699488Y-110478011D01*
X165699490Y-110478013D01*
X165699491Y-110478015D01*
X165801985Y-110580509D01*
X165801986Y-110580510D01*
X165801988Y-110580511D01*
X165927511Y-110652982D01*
X165927512Y-110652982D01*
X165927515Y-110652984D01*
X166067525Y-110690500D01*
X166067528Y-110690500D01*
X166212472Y-110690500D01*
X166212475Y-110690500D01*
X166352485Y-110652984D01*
X166478015Y-110580509D01*
X166580509Y-110478015D01*
X166652984Y-110352485D01*
X166690500Y-110212475D01*
X166690500Y-110067525D01*
X167489500Y-110067525D01*
X167489500Y-110212475D01*
X167510139Y-110289500D01*
X167527017Y-110352488D01*
X167599488Y-110478011D01*
X167599490Y-110478013D01*
X167599491Y-110478015D01*
X167701985Y-110580509D01*
X167701986Y-110580510D01*
X167701988Y-110580511D01*
X167827511Y-110652982D01*
X167827512Y-110652982D01*
X167827515Y-110652984D01*
X167967525Y-110690500D01*
X167967528Y-110690500D01*
X168112472Y-110690500D01*
X168112475Y-110690500D01*
X168252485Y-110652984D01*
X168378015Y-110580509D01*
X168480509Y-110478015D01*
X168552984Y-110352485D01*
X168590500Y-110212475D01*
X168590500Y-110067525D01*
X168552984Y-109927515D01*
X168521212Y-109872485D01*
X168480511Y-109801988D01*
X168480506Y-109801982D01*
X168378017Y-109699493D01*
X168378015Y-109699491D01*
X168356006Y-109686784D01*
X168356005Y-109686783D01*
X168252488Y-109627017D01*
X168252489Y-109627017D01*
X168241006Y-109623940D01*
X168112475Y-109589500D01*
X167967525Y-109589500D01*
X167838993Y-109623940D01*
X167827511Y-109627017D01*
X167701988Y-109699488D01*
X167701982Y-109699493D01*
X167599493Y-109801982D01*
X167599488Y-109801988D01*
X167527017Y-109927511D01*
X167527016Y-109927515D01*
X167489500Y-110067525D01*
X166690500Y-110067525D01*
X166652984Y-109927515D01*
X166621212Y-109872485D01*
X166580511Y-109801988D01*
X166580506Y-109801982D01*
X166478017Y-109699493D01*
X166478011Y-109699488D01*
X166352488Y-109627017D01*
X166352489Y-109627017D01*
X166341006Y-109623940D01*
X166212475Y-109589500D01*
X166067525Y-109589500D01*
X165938993Y-109623940D01*
X165927511Y-109627017D01*
X165801988Y-109699488D01*
X165801982Y-109699493D01*
X165699493Y-109801982D01*
X165699488Y-109801988D01*
X165627017Y-109927511D01*
X165627016Y-109927515D01*
X165589500Y-110067525D01*
X164790500Y-110067525D01*
X164752984Y-109927515D01*
X164721212Y-109872485D01*
X164680511Y-109801988D01*
X164680506Y-109801982D01*
X164578017Y-109699493D01*
X164578011Y-109699488D01*
X164452488Y-109627017D01*
X164452489Y-109627017D01*
X164441006Y-109623940D01*
X164312475Y-109589500D01*
X164167525Y-109589500D01*
X164038993Y-109623940D01*
X164027511Y-109627017D01*
X163901988Y-109699488D01*
X163901982Y-109699493D01*
X163799493Y-109801982D01*
X163799488Y-109801988D01*
X163727017Y-109927511D01*
X163727016Y-109927515D01*
X163689500Y-110067525D01*
X140500500Y-110067525D01*
X140500500Y-109587525D01*
X179619500Y-109587525D01*
X179619500Y-109732475D01*
X179657016Y-109872485D01*
X179657017Y-109872488D01*
X179729488Y-109998011D01*
X179729490Y-109998013D01*
X179729491Y-109998015D01*
X179831985Y-110100509D01*
X179831986Y-110100510D01*
X179831988Y-110100511D01*
X179957511Y-110172982D01*
X179957512Y-110172982D01*
X179957515Y-110172984D01*
X180097525Y-110210500D01*
X180097528Y-110210500D01*
X180242472Y-110210500D01*
X180242475Y-110210500D01*
X180382485Y-110172984D01*
X180508015Y-110100509D01*
X180610509Y-109998015D01*
X180682984Y-109872485D01*
X180720500Y-109732475D01*
X180720500Y-109587525D01*
X180682984Y-109447515D01*
X180610509Y-109321985D01*
X180508015Y-109219491D01*
X180508013Y-109219490D01*
X180508011Y-109219488D01*
X180382488Y-109147017D01*
X180382489Y-109147017D01*
X180371006Y-109143940D01*
X180242475Y-109109500D01*
X180097525Y-109109500D01*
X179968993Y-109143940D01*
X179957511Y-109147017D01*
X179831988Y-109219488D01*
X179831982Y-109219493D01*
X179729493Y-109321982D01*
X179729488Y-109321988D01*
X179657017Y-109447511D01*
X179657016Y-109447515D01*
X179619500Y-109587525D01*
X140500500Y-109587525D01*
X140500500Y-108667525D01*
X166589500Y-108667525D01*
X166589500Y-108812475D01*
X166627016Y-108952485D01*
X166627017Y-108952488D01*
X166699488Y-109078011D01*
X166699490Y-109078013D01*
X166699491Y-109078015D01*
X166801985Y-109180509D01*
X166801986Y-109180510D01*
X166801988Y-109180511D01*
X166927511Y-109252982D01*
X166927512Y-109252982D01*
X166927515Y-109252984D01*
X167067525Y-109290500D01*
X167067528Y-109290500D01*
X167212472Y-109290500D01*
X167212475Y-109290500D01*
X167352485Y-109252984D01*
X167478015Y-109180509D01*
X167580509Y-109078015D01*
X167652984Y-108952485D01*
X167690500Y-108812475D01*
X167690500Y-108667525D01*
X167652984Y-108527515D01*
X167580509Y-108401985D01*
X167478015Y-108299491D01*
X167478013Y-108299490D01*
X167478011Y-108299488D01*
X167352488Y-108227017D01*
X167352489Y-108227017D01*
X167341006Y-108223940D01*
X167212475Y-108189500D01*
X167067525Y-108189500D01*
X166938993Y-108223940D01*
X166927511Y-108227017D01*
X166801988Y-108299488D01*
X166801982Y-108299493D01*
X166699493Y-108401982D01*
X166699488Y-108401988D01*
X166627017Y-108527511D01*
X166627016Y-108527515D01*
X166589500Y-108667525D01*
X140500500Y-108667525D01*
X140500500Y-107832525D01*
X191119500Y-107832525D01*
X191119500Y-107977475D01*
X191157016Y-108117485D01*
X191157017Y-108117488D01*
X191229488Y-108243011D01*
X191229490Y-108243013D01*
X191229491Y-108243015D01*
X191331985Y-108345509D01*
X191331986Y-108345510D01*
X191331988Y-108345511D01*
X191457511Y-108417982D01*
X191457512Y-108417982D01*
X191457515Y-108417984D01*
X191597525Y-108455500D01*
X191597528Y-108455500D01*
X191742472Y-108455500D01*
X191742475Y-108455500D01*
X191882485Y-108417984D01*
X192008015Y-108345509D01*
X192110509Y-108243015D01*
X192182984Y-108117485D01*
X192220500Y-107977475D01*
X192220500Y-107832525D01*
X192182984Y-107692515D01*
X192110509Y-107566985D01*
X192008015Y-107464491D01*
X192008013Y-107464490D01*
X192008011Y-107464488D01*
X191882488Y-107392017D01*
X191882489Y-107392017D01*
X191871006Y-107388940D01*
X191742475Y-107354500D01*
X191597525Y-107354500D01*
X191468993Y-107388940D01*
X191457511Y-107392017D01*
X191331988Y-107464488D01*
X191331982Y-107464493D01*
X191229493Y-107566982D01*
X191229488Y-107566988D01*
X191157017Y-107692511D01*
X191157016Y-107692515D01*
X191119500Y-107832525D01*
X140500500Y-107832525D01*
X140500500Y-106398995D01*
X143149499Y-106398995D01*
X143176418Y-106534322D01*
X143176421Y-106534332D01*
X143229221Y-106661804D01*
X143229228Y-106661817D01*
X143305885Y-106776541D01*
X143305888Y-106776545D01*
X143403454Y-106874111D01*
X143403458Y-106874114D01*
X143518182Y-106950771D01*
X143518195Y-106950778D01*
X143645667Y-107003578D01*
X143645672Y-107003580D01*
X143645676Y-107003580D01*
X143645677Y-107003581D01*
X143781004Y-107030500D01*
X143781007Y-107030500D01*
X143918995Y-107030500D01*
X144010041Y-107012389D01*
X144054328Y-107003580D01*
X144181811Y-106950775D01*
X144296542Y-106874114D01*
X144394114Y-106776542D01*
X144470775Y-106661811D01*
X144523580Y-106534328D01*
X144550500Y-106398995D01*
X147379499Y-106398995D01*
X147406418Y-106534322D01*
X147406421Y-106534332D01*
X147459221Y-106661804D01*
X147459228Y-106661817D01*
X147535885Y-106776541D01*
X147535888Y-106776545D01*
X147633454Y-106874111D01*
X147633458Y-106874114D01*
X147748182Y-106950771D01*
X147748195Y-106950778D01*
X147875667Y-107003578D01*
X147875672Y-107003580D01*
X147875676Y-107003580D01*
X147875677Y-107003581D01*
X148011004Y-107030500D01*
X148011007Y-107030500D01*
X148148995Y-107030500D01*
X148240041Y-107012389D01*
X148284328Y-107003580D01*
X148411811Y-106950775D01*
X148526542Y-106874114D01*
X148624114Y-106776542D01*
X148700775Y-106661811D01*
X148753580Y-106534328D01*
X148780500Y-106398995D01*
X152119499Y-106398995D01*
X152146418Y-106534322D01*
X152146421Y-106534332D01*
X152199221Y-106661804D01*
X152199228Y-106661817D01*
X152275885Y-106776541D01*
X152275888Y-106776545D01*
X152373454Y-106874111D01*
X152373458Y-106874114D01*
X152488182Y-106950771D01*
X152488195Y-106950778D01*
X152615667Y-107003578D01*
X152615672Y-107003580D01*
X152615676Y-107003580D01*
X152615677Y-107003581D01*
X152751004Y-107030500D01*
X152751007Y-107030500D01*
X152888995Y-107030500D01*
X152980041Y-107012389D01*
X153024328Y-107003580D01*
X153151811Y-106950775D01*
X153266542Y-106874114D01*
X153364114Y-106776542D01*
X153440775Y-106661811D01*
X153493580Y-106534328D01*
X153520500Y-106398993D01*
X153520500Y-106261007D01*
X153520500Y-106261004D01*
X153493581Y-106125677D01*
X153493580Y-106125676D01*
X153493580Y-106125672D01*
X153476526Y-106084500D01*
X153440778Y-105998195D01*
X153440771Y-105998182D01*
X153364114Y-105883458D01*
X153364111Y-105883454D01*
X153266545Y-105785888D01*
X153266541Y-105785885D01*
X153151817Y-105709228D01*
X153151804Y-105709221D01*
X153024332Y-105656421D01*
X153024322Y-105656418D01*
X152888995Y-105629500D01*
X152888993Y-105629500D01*
X152751007Y-105629500D01*
X152751005Y-105629500D01*
X152615677Y-105656418D01*
X152615667Y-105656421D01*
X152488195Y-105709221D01*
X152488182Y-105709228D01*
X152373458Y-105785885D01*
X152373454Y-105785888D01*
X152275888Y-105883454D01*
X152275885Y-105883458D01*
X152199228Y-105998182D01*
X152199221Y-105998195D01*
X152146421Y-106125667D01*
X152146418Y-106125677D01*
X152119500Y-106261004D01*
X152119500Y-106261007D01*
X152119500Y-106398993D01*
X152119500Y-106398995D01*
X152119499Y-106398995D01*
X148780500Y-106398995D01*
X148780500Y-106398993D01*
X148780500Y-106261007D01*
X148780500Y-106261004D01*
X148753581Y-106125677D01*
X148753580Y-106125676D01*
X148753580Y-106125672D01*
X148736526Y-106084500D01*
X148700778Y-105998195D01*
X148700771Y-105998182D01*
X148624114Y-105883458D01*
X148624111Y-105883454D01*
X148526545Y-105785888D01*
X148526541Y-105785885D01*
X148411817Y-105709228D01*
X148411804Y-105709221D01*
X148284332Y-105656421D01*
X148284322Y-105656418D01*
X148148995Y-105629500D01*
X148148993Y-105629500D01*
X148011007Y-105629500D01*
X148011005Y-105629500D01*
X147875677Y-105656418D01*
X147875667Y-105656421D01*
X147748195Y-105709221D01*
X147748182Y-105709228D01*
X147633458Y-105785885D01*
X147633454Y-105785888D01*
X147535888Y-105883454D01*
X147535885Y-105883458D01*
X147459228Y-105998182D01*
X147459221Y-105998195D01*
X147406421Y-106125667D01*
X147406418Y-106125677D01*
X147379500Y-106261004D01*
X147379500Y-106261007D01*
X147379500Y-106398993D01*
X147379500Y-106398995D01*
X147379499Y-106398995D01*
X144550500Y-106398995D01*
X144550500Y-106398993D01*
X144550500Y-106261007D01*
X144550500Y-106261004D01*
X144523581Y-106125677D01*
X144523580Y-106125676D01*
X144523580Y-106125672D01*
X144506526Y-106084500D01*
X144470778Y-105998195D01*
X144470771Y-105998182D01*
X144394114Y-105883458D01*
X144394111Y-105883454D01*
X144296545Y-105785888D01*
X144296541Y-105785885D01*
X144181817Y-105709228D01*
X144181804Y-105709221D01*
X144054332Y-105656421D01*
X144054322Y-105656418D01*
X143918995Y-105629500D01*
X143918993Y-105629500D01*
X143781007Y-105629500D01*
X143781005Y-105629500D01*
X143645677Y-105656418D01*
X143645667Y-105656421D01*
X143518195Y-105709221D01*
X143518182Y-105709228D01*
X143403458Y-105785885D01*
X143403454Y-105785888D01*
X143305888Y-105883454D01*
X143305885Y-105883458D01*
X143229228Y-105998182D01*
X143229221Y-105998195D01*
X143176421Y-106125667D01*
X143176418Y-106125677D01*
X143149500Y-106261004D01*
X143149500Y-106261007D01*
X143149500Y-106398993D01*
X143149500Y-106398995D01*
X143149499Y-106398995D01*
X140500500Y-106398995D01*
X140500500Y-105048995D01*
X156359499Y-105048995D01*
X156386418Y-105184322D01*
X156386421Y-105184332D01*
X156439221Y-105311804D01*
X156439228Y-105311817D01*
X156515885Y-105426541D01*
X156515888Y-105426545D01*
X156613454Y-105524111D01*
X156613460Y-105524116D01*
X156655039Y-105551899D01*
X156699843Y-105605511D01*
X156708550Y-105674836D01*
X156678395Y-105737864D01*
X156655039Y-105758101D01*
X156613460Y-105785883D01*
X156613454Y-105785888D01*
X156515888Y-105883454D01*
X156515885Y-105883458D01*
X156439228Y-105998182D01*
X156439221Y-105998195D01*
X156386421Y-106125667D01*
X156386418Y-106125677D01*
X156359500Y-106261004D01*
X156359500Y-106261007D01*
X156359500Y-106398993D01*
X156359500Y-106398995D01*
X156359499Y-106398995D01*
X156386418Y-106534322D01*
X156386421Y-106534332D01*
X156439221Y-106661804D01*
X156439228Y-106661817D01*
X156515885Y-106776541D01*
X156515888Y-106776545D01*
X156613454Y-106874111D01*
X156613458Y-106874114D01*
X156728182Y-106950771D01*
X156728195Y-106950778D01*
X156855667Y-107003578D01*
X156855672Y-107003580D01*
X156855676Y-107003580D01*
X156855677Y-107003581D01*
X156991004Y-107030500D01*
X156991007Y-107030500D01*
X157128995Y-107030500D01*
X157220041Y-107012389D01*
X157264328Y-107003580D01*
X157391811Y-106950775D01*
X157506542Y-106874114D01*
X157604114Y-106776542D01*
X157680775Y-106661811D01*
X157721900Y-106562525D01*
X183894500Y-106562525D01*
X183894500Y-106707475D01*
X183932016Y-106847485D01*
X183932017Y-106847488D01*
X184004488Y-106973011D01*
X184004490Y-106973013D01*
X184004491Y-106973015D01*
X184106985Y-107075509D01*
X184106986Y-107075510D01*
X184106988Y-107075511D01*
X184232511Y-107147982D01*
X184232512Y-107147982D01*
X184232515Y-107147984D01*
X184372525Y-107185500D01*
X184372528Y-107185500D01*
X184517472Y-107185500D01*
X184517475Y-107185500D01*
X184657485Y-107147984D01*
X184783015Y-107075509D01*
X184885509Y-106973015D01*
X184957984Y-106847485D01*
X184995500Y-106707475D01*
X184995500Y-106562525D01*
X184957984Y-106422515D01*
X184885509Y-106296985D01*
X184783015Y-106194491D01*
X184783013Y-106194490D01*
X184783011Y-106194488D01*
X184657488Y-106122017D01*
X184657489Y-106122017D01*
X184646006Y-106118940D01*
X184517475Y-106084500D01*
X184372525Y-106084500D01*
X184243993Y-106118940D01*
X184232511Y-106122017D01*
X184106988Y-106194488D01*
X184106982Y-106194493D01*
X184004493Y-106296982D01*
X184004488Y-106296988D01*
X183932017Y-106422511D01*
X183932016Y-106422515D01*
X183894500Y-106562525D01*
X157721900Y-106562525D01*
X157733580Y-106534328D01*
X157760500Y-106398993D01*
X157760500Y-106261007D01*
X157760500Y-106261004D01*
X157733581Y-106125677D01*
X157733580Y-106125676D01*
X157733580Y-106125672D01*
X157716526Y-106084500D01*
X157680778Y-105998195D01*
X157680771Y-105998182D01*
X157604114Y-105883458D01*
X157604111Y-105883454D01*
X157506545Y-105785888D01*
X157506541Y-105785885D01*
X157464961Y-105758102D01*
X157420156Y-105704490D01*
X157411449Y-105635165D01*
X157441604Y-105572137D01*
X157464961Y-105551898D01*
X157480354Y-105541612D01*
X157506542Y-105524114D01*
X157604114Y-105426542D01*
X157680775Y-105311811D01*
X157733580Y-105184328D01*
X157760500Y-105048993D01*
X157760500Y-104911007D01*
X157760500Y-104911004D01*
X157745101Y-104833590D01*
X157745101Y-104833589D01*
X157741905Y-104817525D01*
X166089500Y-104817525D01*
X166089500Y-104962475D01*
X166127016Y-105102485D01*
X166127017Y-105102488D01*
X166199488Y-105228011D01*
X166199490Y-105228013D01*
X166199491Y-105228015D01*
X166301985Y-105330509D01*
X166301986Y-105330510D01*
X166301988Y-105330511D01*
X166427511Y-105402982D01*
X166427512Y-105402982D01*
X166427515Y-105402984D01*
X166567525Y-105440500D01*
X166567528Y-105440500D01*
X166712472Y-105440500D01*
X166712475Y-105440500D01*
X166852485Y-105402984D01*
X166978015Y-105330509D01*
X167080509Y-105228015D01*
X167152984Y-105102485D01*
X167190500Y-104962475D01*
X167190500Y-104817525D01*
X167152984Y-104677515D01*
X167121843Y-104623578D01*
X167080511Y-104551988D01*
X167080506Y-104551982D01*
X166978017Y-104449493D01*
X166978011Y-104449488D01*
X166852488Y-104377017D01*
X166852489Y-104377017D01*
X166841006Y-104373940D01*
X166712475Y-104339500D01*
X166567525Y-104339500D01*
X166438993Y-104373940D01*
X166427511Y-104377017D01*
X166301988Y-104449488D01*
X166301982Y-104449493D01*
X166199493Y-104551982D01*
X166199488Y-104551988D01*
X166127017Y-104677511D01*
X166127016Y-104677515D01*
X166089500Y-104817525D01*
X157741905Y-104817525D01*
X157733581Y-104775679D01*
X157733581Y-104775677D01*
X157733580Y-104775672D01*
X157733578Y-104775667D01*
X157680778Y-104648195D01*
X157680771Y-104648182D01*
X157604114Y-104533458D01*
X157604111Y-104533454D01*
X157506545Y-104435888D01*
X157506541Y-104435885D01*
X157391817Y-104359228D01*
X157391804Y-104359221D01*
X157264332Y-104306421D01*
X157264322Y-104306418D01*
X157128995Y-104279500D01*
X157128993Y-104279500D01*
X156991007Y-104279500D01*
X156991005Y-104279500D01*
X156855677Y-104306418D01*
X156855667Y-104306421D01*
X156728195Y-104359221D01*
X156728182Y-104359228D01*
X156613458Y-104435885D01*
X156613454Y-104435888D01*
X156515888Y-104533454D01*
X156515885Y-104533458D01*
X156439228Y-104648182D01*
X156439221Y-104648195D01*
X156386421Y-104775667D01*
X156386418Y-104775677D01*
X156359500Y-104911004D01*
X156359500Y-104911007D01*
X156359500Y-105048993D01*
X156359500Y-105048995D01*
X156359499Y-105048995D01*
X140500500Y-105048995D01*
X140500500Y-104018995D01*
X141399499Y-104018995D01*
X141426418Y-104154322D01*
X141426421Y-104154332D01*
X141479221Y-104281804D01*
X141479228Y-104281817D01*
X141555885Y-104396541D01*
X141555888Y-104396545D01*
X141653454Y-104494111D01*
X141653458Y-104494114D01*
X141768182Y-104570771D01*
X141768195Y-104570778D01*
X141895667Y-104623578D01*
X141895672Y-104623580D01*
X141895676Y-104623580D01*
X141895677Y-104623581D01*
X142031004Y-104650500D01*
X142031007Y-104650500D01*
X142168995Y-104650500D01*
X142260041Y-104632389D01*
X142304328Y-104623580D01*
X142431811Y-104570775D01*
X142546542Y-104494114D01*
X142644114Y-104396542D01*
X142720775Y-104281811D01*
X142773580Y-104154328D01*
X142799797Y-104022527D01*
X142799797Y-104022525D01*
X176429500Y-104022525D01*
X176429500Y-104167475D01*
X176466730Y-104306418D01*
X176467017Y-104307488D01*
X176539488Y-104433011D01*
X176539490Y-104433013D01*
X176539491Y-104433015D01*
X176641985Y-104535509D01*
X176641986Y-104535510D01*
X176641988Y-104535511D01*
X176767511Y-104607982D01*
X176767512Y-104607982D01*
X176767515Y-104607984D01*
X176907525Y-104645500D01*
X176907528Y-104645500D01*
X177052472Y-104645500D01*
X177052475Y-104645500D01*
X177192485Y-104607984D01*
X177318015Y-104535509D01*
X177420509Y-104433015D01*
X177492984Y-104307485D01*
X177530500Y-104167475D01*
X177530500Y-104022525D01*
X177492984Y-103882515D01*
X177492113Y-103881007D01*
X177420511Y-103756988D01*
X177420506Y-103756982D01*
X177318017Y-103654493D01*
X177318011Y-103654488D01*
X177192488Y-103582017D01*
X177192489Y-103582017D01*
X177181006Y-103578940D01*
X177052475Y-103544500D01*
X176907525Y-103544500D01*
X176778993Y-103578940D01*
X176767511Y-103582017D01*
X176641988Y-103654488D01*
X176641982Y-103654493D01*
X176539493Y-103756982D01*
X176539488Y-103756988D01*
X176467017Y-103882511D01*
X176467016Y-103882515D01*
X176429500Y-104022525D01*
X142799797Y-104022525D01*
X142800500Y-104018995D01*
X142800500Y-103881004D01*
X142773581Y-103745677D01*
X142773580Y-103745676D01*
X142773580Y-103745672D01*
X142735812Y-103654491D01*
X142720778Y-103618195D01*
X142720771Y-103618182D01*
X142644114Y-103503458D01*
X142644111Y-103503454D01*
X142546545Y-103405888D01*
X142546541Y-103405885D01*
X142431817Y-103329228D01*
X142431804Y-103329221D01*
X142304332Y-103276421D01*
X142304322Y-103276418D01*
X142168995Y-103249500D01*
X142168993Y-103249500D01*
X142031007Y-103249500D01*
X142031005Y-103249500D01*
X141895677Y-103276418D01*
X141895667Y-103276421D01*
X141768195Y-103329221D01*
X141768182Y-103329228D01*
X141653458Y-103405885D01*
X141653454Y-103405888D01*
X141555888Y-103503454D01*
X141555885Y-103503458D01*
X141479228Y-103618182D01*
X141479221Y-103618195D01*
X141426421Y-103745667D01*
X141426418Y-103745677D01*
X141399500Y-103881004D01*
X141399500Y-103881007D01*
X141399500Y-104018993D01*
X141399500Y-104018995D01*
X141399499Y-104018995D01*
X140500500Y-104018995D01*
X140500500Y-102727525D01*
X155559500Y-102727525D01*
X155559500Y-102872475D01*
X155586298Y-102972485D01*
X155597017Y-103012488D01*
X155669488Y-103138011D01*
X155669490Y-103138013D01*
X155669491Y-103138015D01*
X155771985Y-103240509D01*
X155771986Y-103240510D01*
X155771988Y-103240511D01*
X155897511Y-103312982D01*
X155897512Y-103312982D01*
X155897515Y-103312984D01*
X156037525Y-103350500D01*
X156037528Y-103350500D01*
X156182472Y-103350500D01*
X156182475Y-103350500D01*
X156322485Y-103312984D01*
X156448015Y-103240509D01*
X156550509Y-103138015D01*
X156622984Y-103012485D01*
X156660500Y-102872475D01*
X156660500Y-102727525D01*
X162709500Y-102727525D01*
X162709500Y-102872475D01*
X162736298Y-102972485D01*
X162747017Y-103012488D01*
X162819488Y-103138011D01*
X162819490Y-103138013D01*
X162819491Y-103138015D01*
X162921985Y-103240509D01*
X162921986Y-103240510D01*
X162921988Y-103240511D01*
X163047511Y-103312982D01*
X163047512Y-103312982D01*
X163047515Y-103312984D01*
X163187525Y-103350500D01*
X163187528Y-103350500D01*
X163332472Y-103350500D01*
X163332475Y-103350500D01*
X163472485Y-103312984D01*
X163598015Y-103240509D01*
X163700509Y-103138015D01*
X163772984Y-103012485D01*
X163809599Y-102875834D01*
X163845962Y-102816178D01*
X163908808Y-102785649D01*
X163961464Y-102788157D01*
X164007525Y-102800500D01*
X164007527Y-102800500D01*
X164152472Y-102800500D01*
X164152475Y-102800500D01*
X164292485Y-102762984D01*
X164418015Y-102690509D01*
X164420999Y-102687525D01*
X189299500Y-102687525D01*
X189299500Y-102832475D01*
X189337016Y-102972485D01*
X189337017Y-102972488D01*
X189409488Y-103098011D01*
X189409490Y-103098013D01*
X189409491Y-103098015D01*
X189511985Y-103200509D01*
X189511986Y-103200510D01*
X189511988Y-103200511D01*
X189637511Y-103272982D01*
X189637512Y-103272982D01*
X189637515Y-103272984D01*
X189777525Y-103310500D01*
X189777528Y-103310500D01*
X189922472Y-103310500D01*
X189922475Y-103310500D01*
X190062485Y-103272984D01*
X190188015Y-103200509D01*
X190290509Y-103098015D01*
X190362984Y-102972485D01*
X190400500Y-102832475D01*
X190400500Y-102687525D01*
X190362984Y-102547515D01*
X190316147Y-102466392D01*
X190290511Y-102421988D01*
X190290506Y-102421982D01*
X190188017Y-102319493D01*
X190188011Y-102319488D01*
X190062488Y-102247017D01*
X190062489Y-102247017D01*
X190051006Y-102243940D01*
X189922475Y-102209500D01*
X189777525Y-102209500D01*
X189648993Y-102243940D01*
X189637511Y-102247017D01*
X189511988Y-102319488D01*
X189511982Y-102319493D01*
X189409493Y-102421982D01*
X189409488Y-102421988D01*
X189337017Y-102547511D01*
X189337016Y-102547515D01*
X189299500Y-102687525D01*
X164420999Y-102687525D01*
X164520509Y-102588015D01*
X164592984Y-102462485D01*
X164630500Y-102322475D01*
X164630500Y-102177525D01*
X164592984Y-102037515D01*
X164520509Y-101911985D01*
X164418015Y-101809491D01*
X164418013Y-101809490D01*
X164418011Y-101809488D01*
X164292488Y-101737017D01*
X164292489Y-101737017D01*
X164281006Y-101733940D01*
X164152475Y-101699500D01*
X164007525Y-101699500D01*
X163878993Y-101733940D01*
X163867511Y-101737017D01*
X163741988Y-101809488D01*
X163741982Y-101809493D01*
X163639493Y-101911982D01*
X163639488Y-101911988D01*
X163567017Y-102037511D01*
X163567016Y-102037515D01*
X163530400Y-102174162D01*
X163494037Y-102233821D01*
X163431190Y-102264350D01*
X163378535Y-102261842D01*
X163332475Y-102249500D01*
X163187525Y-102249500D01*
X163058993Y-102283940D01*
X163047511Y-102287017D01*
X162921988Y-102359488D01*
X162921982Y-102359493D01*
X162819493Y-102461982D01*
X162819488Y-102461988D01*
X162747017Y-102587511D01*
X162747016Y-102587515D01*
X162709500Y-102727525D01*
X156660500Y-102727525D01*
X156622984Y-102587515D01*
X156553053Y-102466392D01*
X156550511Y-102461988D01*
X156550506Y-102461982D01*
X156448017Y-102359493D01*
X156448011Y-102359488D01*
X156322488Y-102287017D01*
X156322489Y-102287017D01*
X156311006Y-102283940D01*
X156182475Y-102249500D01*
X156037525Y-102249500D01*
X155908993Y-102283940D01*
X155897511Y-102287017D01*
X155771988Y-102359488D01*
X155771982Y-102359493D01*
X155669493Y-102461982D01*
X155669488Y-102461988D01*
X155597017Y-102587511D01*
X155597016Y-102587515D01*
X155559500Y-102727525D01*
X140500500Y-102727525D01*
X140500500Y-99678995D01*
X141399499Y-99678995D01*
X141426418Y-99814322D01*
X141426421Y-99814332D01*
X141479221Y-99941804D01*
X141479228Y-99941817D01*
X141555885Y-100056541D01*
X141555888Y-100056545D01*
X141653454Y-100154111D01*
X141653458Y-100154114D01*
X141768182Y-100230771D01*
X141768195Y-100230778D01*
X141864094Y-100270500D01*
X141895672Y-100283580D01*
X141895676Y-100283580D01*
X141895677Y-100283581D01*
X142031004Y-100310500D01*
X142031007Y-100310500D01*
X142168995Y-100310500D01*
X142260041Y-100292389D01*
X142304328Y-100283580D01*
X142431811Y-100230775D01*
X142546542Y-100154114D01*
X142644114Y-100056542D01*
X142720775Y-99941811D01*
X142773580Y-99814328D01*
X142800500Y-99678993D01*
X142800500Y-99647525D01*
X145589500Y-99647525D01*
X145589500Y-99792475D01*
X145595356Y-99814328D01*
X145627017Y-99932488D01*
X145699488Y-100058011D01*
X145699490Y-100058013D01*
X145699491Y-100058015D01*
X145801985Y-100160509D01*
X145801986Y-100160510D01*
X145801988Y-100160511D01*
X145927511Y-100232982D01*
X145927512Y-100232982D01*
X145927515Y-100232984D01*
X146067525Y-100270500D01*
X146067528Y-100270500D01*
X146212472Y-100270500D01*
X146212475Y-100270500D01*
X146352485Y-100232984D01*
X146478015Y-100160509D01*
X146580509Y-100058015D01*
X146652984Y-99932485D01*
X146690500Y-99792475D01*
X146690500Y-99677525D01*
X148419500Y-99677525D01*
X148419500Y-99822475D01*
X148451478Y-99941817D01*
X148457017Y-99962488D01*
X148529488Y-100088011D01*
X148529490Y-100088013D01*
X148529491Y-100088015D01*
X148631985Y-100190509D01*
X148631986Y-100190510D01*
X148631988Y-100190511D01*
X148757511Y-100262982D01*
X148757512Y-100262982D01*
X148757515Y-100262984D01*
X148897525Y-100300500D01*
X148897528Y-100300500D01*
X149042472Y-100300500D01*
X149042475Y-100300500D01*
X149182485Y-100262984D01*
X149308015Y-100190509D01*
X149410509Y-100088015D01*
X149482984Y-99962485D01*
X149520500Y-99822475D01*
X149520500Y-99677525D01*
X149482984Y-99537515D01*
X149465663Y-99507515D01*
X149410511Y-99411988D01*
X149410506Y-99411982D01*
X149308017Y-99309493D01*
X149308011Y-99309488D01*
X149182488Y-99237017D01*
X149182489Y-99237017D01*
X149171006Y-99233940D01*
X149042475Y-99199500D01*
X148897525Y-99199500D01*
X148768993Y-99233940D01*
X148757511Y-99237017D01*
X148631988Y-99309488D01*
X148631982Y-99309493D01*
X148529493Y-99411982D01*
X148529488Y-99411988D01*
X148457017Y-99537511D01*
X148457016Y-99537515D01*
X148419500Y-99677525D01*
X146690500Y-99677525D01*
X146690500Y-99647525D01*
X146652984Y-99507515D01*
X146597831Y-99411988D01*
X146580511Y-99381988D01*
X146580506Y-99381982D01*
X146478017Y-99279493D01*
X146478011Y-99279488D01*
X146352488Y-99207017D01*
X146352489Y-99207017D01*
X146328201Y-99200509D01*
X146212475Y-99169500D01*
X146067525Y-99169500D01*
X145951799Y-99200509D01*
X145927511Y-99207017D01*
X145801988Y-99279488D01*
X145801982Y-99279493D01*
X145699493Y-99381982D01*
X145699488Y-99381988D01*
X145627017Y-99507511D01*
X145627016Y-99507515D01*
X145589500Y-99647525D01*
X142800500Y-99647525D01*
X142800500Y-99541007D01*
X142800500Y-99541004D01*
X142773581Y-99405677D01*
X142773580Y-99405676D01*
X142773580Y-99405672D01*
X142734159Y-99310500D01*
X142720778Y-99278195D01*
X142720771Y-99278182D01*
X142644114Y-99163458D01*
X142644111Y-99163454D01*
X142546545Y-99065888D01*
X142546541Y-99065885D01*
X142431817Y-98989228D01*
X142431804Y-98989221D01*
X142304332Y-98936421D01*
X142304322Y-98936418D01*
X142168995Y-98909500D01*
X142168993Y-98909500D01*
X142031007Y-98909500D01*
X142031005Y-98909500D01*
X141895677Y-98936418D01*
X141895667Y-98936421D01*
X141768195Y-98989221D01*
X141768182Y-98989228D01*
X141653458Y-99065885D01*
X141653454Y-99065888D01*
X141555888Y-99163454D01*
X141555885Y-99163458D01*
X141479228Y-99278182D01*
X141479221Y-99278195D01*
X141426421Y-99405667D01*
X141426418Y-99405677D01*
X141399500Y-99541004D01*
X141399500Y-99541007D01*
X141399500Y-99678993D01*
X141399500Y-99678995D01*
X141399499Y-99678995D01*
X140500500Y-99678995D01*
X140500500Y-98687525D01*
X160459500Y-98687525D01*
X160459500Y-98832475D01*
X160487353Y-98936421D01*
X160497017Y-98972488D01*
X160569488Y-99098011D01*
X160569490Y-99098013D01*
X160569491Y-99098015D01*
X160671985Y-99200509D01*
X160671986Y-99200510D01*
X160671988Y-99200511D01*
X160797511Y-99272982D01*
X160797512Y-99272982D01*
X160797515Y-99272984D01*
X160937525Y-99310500D01*
X160937528Y-99310500D01*
X161082472Y-99310500D01*
X161082475Y-99310500D01*
X161222485Y-99272984D01*
X161348015Y-99200509D01*
X161450509Y-99098015D01*
X161522984Y-98972485D01*
X161560500Y-98832475D01*
X161560500Y-98687525D01*
X161522984Y-98547515D01*
X161478434Y-98470353D01*
X161450511Y-98421988D01*
X161450506Y-98421982D01*
X161348017Y-98319493D01*
X161348011Y-98319488D01*
X161222488Y-98247017D01*
X161222489Y-98247017D01*
X161211006Y-98243940D01*
X161082475Y-98209500D01*
X160937525Y-98209500D01*
X160808993Y-98243940D01*
X160797511Y-98247017D01*
X160671988Y-98319488D01*
X160671982Y-98319493D01*
X160569493Y-98421982D01*
X160569488Y-98421988D01*
X160497017Y-98547511D01*
X160497016Y-98547515D01*
X160459500Y-98687525D01*
X140500500Y-98687525D01*
X140500500Y-97791601D01*
X176558427Y-97791601D01*
X176558427Y-97944370D01*
X176588227Y-98094183D01*
X176588229Y-98094191D01*
X176646686Y-98235320D01*
X176646691Y-98235329D01*
X176731556Y-98362337D01*
X176731559Y-98362341D01*
X176839571Y-98470353D01*
X176839575Y-98470356D01*
X176966583Y-98555221D01*
X176966589Y-98555224D01*
X176966590Y-98555225D01*
X177107722Y-98613684D01*
X177257542Y-98643485D01*
X177257546Y-98643486D01*
X177257547Y-98643486D01*
X177410308Y-98643486D01*
X177410309Y-98643485D01*
X177560132Y-98613684D01*
X177701264Y-98555225D01*
X177828279Y-98470356D01*
X177936297Y-98362338D01*
X178021166Y-98235323D01*
X178079625Y-98094191D01*
X178109427Y-97944366D01*
X178109427Y-97791606D01*
X178079625Y-97641781D01*
X178021166Y-97500649D01*
X178021165Y-97500648D01*
X178021162Y-97500642D01*
X177936297Y-97373634D01*
X177936294Y-97373630D01*
X177828282Y-97265618D01*
X177828278Y-97265615D01*
X177701270Y-97180750D01*
X177701261Y-97180745D01*
X177560132Y-97122288D01*
X177560124Y-97122286D01*
X177410311Y-97092486D01*
X177410307Y-97092486D01*
X177257547Y-97092486D01*
X177257542Y-97092486D01*
X177107729Y-97122286D01*
X177107721Y-97122288D01*
X176966592Y-97180745D01*
X176966583Y-97180750D01*
X176839575Y-97265615D01*
X176839571Y-97265618D01*
X176731559Y-97373630D01*
X176731556Y-97373634D01*
X176646691Y-97500642D01*
X176646686Y-97500651D01*
X176588229Y-97641780D01*
X176588227Y-97641788D01*
X176558427Y-97791601D01*
X140500500Y-97791601D01*
X140500500Y-96170511D01*
X169579500Y-96170511D01*
X169579500Y-96315461D01*
X169617016Y-96455471D01*
X169617017Y-96455474D01*
X169689488Y-96580997D01*
X169689490Y-96580999D01*
X169689491Y-96581001D01*
X169791985Y-96683495D01*
X169791986Y-96683496D01*
X169791988Y-96683497D01*
X169917511Y-96755968D01*
X169917512Y-96755968D01*
X169917515Y-96755970D01*
X170057525Y-96793486D01*
X170057528Y-96793486D01*
X170202472Y-96793486D01*
X170202475Y-96793486D01*
X170342485Y-96755970D01*
X170468015Y-96683495D01*
X170570509Y-96581001D01*
X170642984Y-96455471D01*
X170680500Y-96315461D01*
X170680500Y-96170511D01*
X170642984Y-96030501D01*
X170633215Y-96013581D01*
X170570511Y-95904974D01*
X170570506Y-95904968D01*
X170468017Y-95802479D01*
X170468011Y-95802474D01*
X170342488Y-95730003D01*
X170342489Y-95730003D01*
X170331006Y-95726926D01*
X170202475Y-95692486D01*
X170057525Y-95692486D01*
X169928993Y-95726926D01*
X169917511Y-95730003D01*
X169791988Y-95802474D01*
X169791982Y-95802479D01*
X169689493Y-95904968D01*
X169689488Y-95904974D01*
X169617017Y-96030497D01*
X169617016Y-96030501D01*
X169579500Y-96170511D01*
X140500500Y-96170511D01*
X140500500Y-95408995D01*
X141399499Y-95408995D01*
X141426418Y-95544322D01*
X141426421Y-95544332D01*
X141479221Y-95671804D01*
X141479228Y-95671817D01*
X141555885Y-95786541D01*
X141555888Y-95786545D01*
X141653454Y-95884111D01*
X141653458Y-95884114D01*
X141768182Y-95960771D01*
X141768195Y-95960778D01*
X141895667Y-96013578D01*
X141895672Y-96013580D01*
X141895676Y-96013580D01*
X141895677Y-96013581D01*
X142031004Y-96040500D01*
X142031007Y-96040500D01*
X142168995Y-96040500D01*
X142168996Y-96040499D01*
X142304328Y-96013580D01*
X142431811Y-95960775D01*
X142546542Y-95884114D01*
X142644114Y-95786542D01*
X142720775Y-95671811D01*
X142773580Y-95544328D01*
X142800500Y-95408993D01*
X142800500Y-95271007D01*
X142800500Y-95271004D01*
X142773581Y-95135677D01*
X142773580Y-95135676D01*
X142773580Y-95135672D01*
X142773578Y-95135667D01*
X142720778Y-95008195D01*
X142720771Y-95008182D01*
X142644114Y-94893458D01*
X142644111Y-94893454D01*
X142546545Y-94795888D01*
X142546541Y-94795885D01*
X142431817Y-94719228D01*
X142431804Y-94719221D01*
X142304332Y-94666421D01*
X142304322Y-94666418D01*
X142168995Y-94639500D01*
X142168993Y-94639500D01*
X142031007Y-94639500D01*
X142031005Y-94639500D01*
X141895677Y-94666418D01*
X141895667Y-94666421D01*
X141768195Y-94719221D01*
X141768182Y-94719228D01*
X141653458Y-94795885D01*
X141653454Y-94795888D01*
X141555888Y-94893454D01*
X141555885Y-94893458D01*
X141479228Y-95008182D01*
X141479221Y-95008195D01*
X141426421Y-95135667D01*
X141426418Y-95135677D01*
X141399500Y-95271004D01*
X141399500Y-95271007D01*
X141399500Y-95408993D01*
X141399500Y-95408995D01*
X141399499Y-95408995D01*
X140500500Y-95408995D01*
X140500500Y-92848995D01*
X155489499Y-92848995D01*
X155516418Y-92984322D01*
X155516421Y-92984332D01*
X155569221Y-93111804D01*
X155569228Y-93111817D01*
X155645885Y-93226541D01*
X155645888Y-93226545D01*
X155743454Y-93324111D01*
X155743458Y-93324114D01*
X155858182Y-93400771D01*
X155858195Y-93400778D01*
X155985667Y-93453578D01*
X155985672Y-93453580D01*
X155985676Y-93453580D01*
X155985677Y-93453581D01*
X156121004Y-93480500D01*
X156121007Y-93480500D01*
X156258995Y-93480500D01*
X156350041Y-93462389D01*
X156394328Y-93453580D01*
X156521811Y-93400775D01*
X156636542Y-93324114D01*
X156734114Y-93226542D01*
X156810775Y-93111811D01*
X156858114Y-92997525D01*
X165269500Y-92997525D01*
X165269500Y-93142475D01*
X165307016Y-93282485D01*
X165307017Y-93282488D01*
X165379488Y-93408011D01*
X165379490Y-93408013D01*
X165379491Y-93408015D01*
X165481985Y-93510509D01*
X165481986Y-93510510D01*
X165481988Y-93510511D01*
X165607511Y-93582982D01*
X165607512Y-93582982D01*
X165607515Y-93582984D01*
X165747525Y-93620500D01*
X165747528Y-93620500D01*
X165892471Y-93620500D01*
X165892475Y-93620500D01*
X165993410Y-93593454D01*
X166063255Y-93595117D01*
X166121118Y-93634279D01*
X166148623Y-93698507D01*
X166149500Y-93713229D01*
X166149500Y-93762475D01*
X166187016Y-93902485D01*
X166187017Y-93902488D01*
X166259488Y-94028011D01*
X166259490Y-94028013D01*
X166259491Y-94028015D01*
X166361985Y-94130509D01*
X166361986Y-94130510D01*
X166361988Y-94130511D01*
X166487511Y-94202982D01*
X166487512Y-94202982D01*
X166487515Y-94202984D01*
X166627525Y-94240500D01*
X166627528Y-94240500D01*
X166772472Y-94240500D01*
X166772475Y-94240500D01*
X166912485Y-94202984D01*
X167038015Y-94130509D01*
X167140509Y-94028015D01*
X167212984Y-93902485D01*
X167250500Y-93762475D01*
X167250500Y-93617525D01*
X167212984Y-93477515D01*
X167140509Y-93351985D01*
X167038015Y-93249491D01*
X167038013Y-93249490D01*
X167038011Y-93249488D01*
X166912488Y-93177017D01*
X166912489Y-93177017D01*
X166873407Y-93166545D01*
X166772475Y-93139500D01*
X166627525Y-93139500D01*
X166526592Y-93166544D01*
X166456744Y-93164882D01*
X166398881Y-93125720D01*
X166371377Y-93061491D01*
X166370500Y-93046770D01*
X166370500Y-92997527D01*
X166370500Y-92997525D01*
X166332984Y-92857515D01*
X166260509Y-92731985D01*
X166158015Y-92629491D01*
X166158013Y-92629490D01*
X166158011Y-92629488D01*
X166032488Y-92557017D01*
X166032489Y-92557017D01*
X166021006Y-92553940D01*
X165892475Y-92519500D01*
X165747525Y-92519500D01*
X165618993Y-92553940D01*
X165607511Y-92557017D01*
X165481988Y-92629488D01*
X165481982Y-92629493D01*
X165379493Y-92731982D01*
X165379488Y-92731988D01*
X165307017Y-92857511D01*
X165307016Y-92857515D01*
X165269500Y-92997525D01*
X156858114Y-92997525D01*
X156863580Y-92984328D01*
X156890500Y-92848993D01*
X156890500Y-92711007D01*
X156890500Y-92711004D01*
X156863581Y-92575677D01*
X156863580Y-92575676D01*
X156863580Y-92575672D01*
X156855853Y-92557017D01*
X156810778Y-92448195D01*
X156810771Y-92448182D01*
X156734114Y-92333458D01*
X156734111Y-92333454D01*
X156636545Y-92235888D01*
X156636541Y-92235885D01*
X156521817Y-92159228D01*
X156521804Y-92159221D01*
X156394332Y-92106421D01*
X156394322Y-92106418D01*
X156258995Y-92079500D01*
X156258993Y-92079500D01*
X156121007Y-92079500D01*
X156121005Y-92079500D01*
X155985677Y-92106418D01*
X155985667Y-92106421D01*
X155858195Y-92159221D01*
X155858182Y-92159228D01*
X155743458Y-92235885D01*
X155743454Y-92235888D01*
X155645888Y-92333454D01*
X155645885Y-92333458D01*
X155569228Y-92448182D01*
X155569221Y-92448195D01*
X155516421Y-92575667D01*
X155516418Y-92575677D01*
X155489500Y-92711004D01*
X155489500Y-92711007D01*
X155489500Y-92848993D01*
X155489500Y-92848995D01*
X155489499Y-92848995D01*
X140500500Y-92848995D01*
X140500500Y-91377525D01*
X144189500Y-91377525D01*
X144189500Y-91522475D01*
X144192179Y-91532472D01*
X144227017Y-91662488D01*
X144299488Y-91788011D01*
X144299490Y-91788013D01*
X144299491Y-91788015D01*
X144401985Y-91890509D01*
X144401986Y-91890510D01*
X144401988Y-91890511D01*
X144527511Y-91962982D01*
X144527512Y-91962982D01*
X144527515Y-91962984D01*
X144667525Y-92000500D01*
X144667528Y-92000500D01*
X144812472Y-92000500D01*
X144812475Y-92000500D01*
X144952485Y-91962984D01*
X145078015Y-91890509D01*
X145180509Y-91788015D01*
X145252984Y-91662485D01*
X145290500Y-91522475D01*
X145290500Y-91377525D01*
X145285141Y-91357525D01*
X147019500Y-91357525D01*
X147019500Y-91502475D01*
X147027538Y-91532472D01*
X147057017Y-91642488D01*
X147129488Y-91768011D01*
X147129490Y-91768013D01*
X147129491Y-91768015D01*
X147231985Y-91870509D01*
X147231986Y-91870510D01*
X147231988Y-91870511D01*
X147357511Y-91942982D01*
X147357512Y-91942982D01*
X147357515Y-91942984D01*
X147497525Y-91980500D01*
X147497528Y-91980500D01*
X147642472Y-91980500D01*
X147642475Y-91980500D01*
X147782485Y-91942984D01*
X147908015Y-91870509D01*
X148010509Y-91768015D01*
X148082984Y-91642485D01*
X148120500Y-91502475D01*
X148120500Y-91387525D01*
X149849500Y-91387525D01*
X149849500Y-91532475D01*
X149887016Y-91672485D01*
X149887017Y-91672488D01*
X149959488Y-91798011D01*
X149959490Y-91798013D01*
X149959491Y-91798015D01*
X150061985Y-91900509D01*
X150061986Y-91900510D01*
X150061988Y-91900511D01*
X150187511Y-91972982D01*
X150187512Y-91972982D01*
X150187515Y-91972984D01*
X150327525Y-92010500D01*
X150327528Y-92010500D01*
X150472472Y-92010500D01*
X150472475Y-92010500D01*
X150612485Y-91972984D01*
X150738015Y-91900509D01*
X150840509Y-91798015D01*
X150912984Y-91672485D01*
X150950500Y-91532475D01*
X150950500Y-91387525D01*
X150912984Y-91247515D01*
X150907210Y-91237515D01*
X150840511Y-91121988D01*
X150840506Y-91121982D01*
X150738017Y-91019493D01*
X150738011Y-91019488D01*
X150612488Y-90947017D01*
X150612489Y-90947017D01*
X150601006Y-90943940D01*
X150472475Y-90909500D01*
X150327525Y-90909500D01*
X150198993Y-90943940D01*
X150187511Y-90947017D01*
X150061988Y-91019488D01*
X150061982Y-91019493D01*
X149959493Y-91121982D01*
X149959488Y-91121988D01*
X149887017Y-91247511D01*
X149887016Y-91247515D01*
X149849500Y-91387525D01*
X148120500Y-91387525D01*
X148120500Y-91357525D01*
X148082984Y-91217515D01*
X148027831Y-91121988D01*
X148010511Y-91091988D01*
X148010506Y-91091982D01*
X147908017Y-90989493D01*
X147908011Y-90989488D01*
X147782488Y-90917017D01*
X147782489Y-90917017D01*
X147754435Y-90909500D01*
X147642475Y-90879500D01*
X147497525Y-90879500D01*
X147385565Y-90909500D01*
X147357511Y-90917017D01*
X147231988Y-90989488D01*
X147231982Y-90989493D01*
X147129493Y-91091982D01*
X147129488Y-91091988D01*
X147057017Y-91217511D01*
X147057016Y-91217515D01*
X147019500Y-91357525D01*
X145285141Y-91357525D01*
X145252984Y-91237515D01*
X145186284Y-91121988D01*
X145180511Y-91111988D01*
X145180506Y-91111982D01*
X145078017Y-91009493D01*
X145078011Y-91009488D01*
X144952488Y-90937017D01*
X144952489Y-90937017D01*
X144941006Y-90933940D01*
X144812475Y-90899500D01*
X144667525Y-90899500D01*
X144538993Y-90933940D01*
X144527511Y-90937017D01*
X144401988Y-91009488D01*
X144401982Y-91009493D01*
X144299493Y-91111982D01*
X144299488Y-91111988D01*
X144227017Y-91237511D01*
X144227016Y-91237515D01*
X144189500Y-91377525D01*
X140500500Y-91377525D01*
X140500500Y-90378995D01*
X141399499Y-90378995D01*
X141426418Y-90514322D01*
X141426421Y-90514332D01*
X141479221Y-90641804D01*
X141479228Y-90641817D01*
X141555885Y-90756541D01*
X141555888Y-90756545D01*
X141653454Y-90854111D01*
X141653458Y-90854114D01*
X141768182Y-90930771D01*
X141768195Y-90930778D01*
X141895667Y-90983578D01*
X141895672Y-90983580D01*
X141895676Y-90983580D01*
X141895677Y-90983581D01*
X142031004Y-91010500D01*
X142031007Y-91010500D01*
X142168995Y-91010500D01*
X142260041Y-90992389D01*
X142304328Y-90983580D01*
X142402924Y-90942740D01*
X142431804Y-90930778D01*
X142431804Y-90930777D01*
X142431811Y-90930775D01*
X142546542Y-90854114D01*
X142644114Y-90756542D01*
X142720775Y-90641811D01*
X142773580Y-90514328D01*
X142800500Y-90378993D01*
X142800500Y-90241007D01*
X142800500Y-90241004D01*
X142773581Y-90105677D01*
X142773580Y-90105676D01*
X142773580Y-90105672D01*
X142773578Y-90105667D01*
X142720778Y-89978195D01*
X142720771Y-89978182D01*
X142644114Y-89863458D01*
X142644111Y-89863454D01*
X142546545Y-89765888D01*
X142546541Y-89765885D01*
X142431817Y-89689228D01*
X142431804Y-89689221D01*
X142304332Y-89636421D01*
X142304322Y-89636418D01*
X142168995Y-89609500D01*
X142168993Y-89609500D01*
X142031007Y-89609500D01*
X142031005Y-89609500D01*
X141895677Y-89636418D01*
X141895667Y-89636421D01*
X141768195Y-89689221D01*
X141768182Y-89689228D01*
X141653458Y-89765885D01*
X141653454Y-89765888D01*
X141555888Y-89863454D01*
X141555885Y-89863458D01*
X141479228Y-89978182D01*
X141479221Y-89978195D01*
X141426421Y-90105667D01*
X141426418Y-90105677D01*
X141399500Y-90241004D01*
X141399500Y-90241007D01*
X141399500Y-90378993D01*
X141399500Y-90378995D01*
X141399499Y-90378995D01*
X140500500Y-90378995D01*
X140500500Y-88527525D01*
X163249500Y-88527525D01*
X163249500Y-88672475D01*
X163287016Y-88812485D01*
X163287017Y-88812488D01*
X163359488Y-88938011D01*
X163359490Y-88938013D01*
X163359491Y-88938015D01*
X163461985Y-89040509D01*
X163461986Y-89040510D01*
X163461988Y-89040511D01*
X163587511Y-89112982D01*
X163587512Y-89112982D01*
X163587515Y-89112984D01*
X163727525Y-89150500D01*
X163727528Y-89150500D01*
X163872472Y-89150500D01*
X163872475Y-89150500D01*
X164012485Y-89112984D01*
X164138015Y-89040509D01*
X164240509Y-88938015D01*
X164312984Y-88812485D01*
X164350500Y-88672475D01*
X164350500Y-88527525D01*
X164312984Y-88387515D01*
X164240509Y-88261985D01*
X164138015Y-88159491D01*
X164138013Y-88159490D01*
X164138011Y-88159488D01*
X164012488Y-88087017D01*
X164012489Y-88087017D01*
X164001006Y-88083940D01*
X163872475Y-88049500D01*
X163727525Y-88049500D01*
X163598993Y-88083940D01*
X163587511Y-88087017D01*
X163461988Y-88159488D01*
X163461982Y-88159493D01*
X163359493Y-88261982D01*
X163359488Y-88261988D01*
X163287017Y-88387511D01*
X163287016Y-88387515D01*
X163249500Y-88527525D01*
X140500500Y-88527525D01*
X140500500Y-87677525D01*
X152149500Y-87677525D01*
X152149500Y-87822475D01*
X152179644Y-87934973D01*
X152187017Y-87962488D01*
X152259488Y-88088011D01*
X152259490Y-88088013D01*
X152259491Y-88088015D01*
X152361985Y-88190509D01*
X152361986Y-88190510D01*
X152361988Y-88190511D01*
X152487511Y-88262982D01*
X152487512Y-88262982D01*
X152487515Y-88262984D01*
X152627525Y-88300500D01*
X152627528Y-88300500D01*
X152772472Y-88300500D01*
X152772475Y-88300500D01*
X152912485Y-88262984D01*
X153038015Y-88190509D01*
X153140509Y-88088015D01*
X153212984Y-87962485D01*
X153250500Y-87822475D01*
X153250500Y-87677525D01*
X153237102Y-87627525D01*
X154499500Y-87627525D01*
X154499500Y-87772475D01*
X154512897Y-87822472D01*
X154537017Y-87912488D01*
X154609488Y-88038011D01*
X154609490Y-88038013D01*
X154609491Y-88038015D01*
X154711985Y-88140509D01*
X154711986Y-88140510D01*
X154711988Y-88140511D01*
X154837511Y-88212982D01*
X154837512Y-88212982D01*
X154837515Y-88212984D01*
X154977525Y-88250500D01*
X154977528Y-88250500D01*
X155122472Y-88250500D01*
X155122475Y-88250500D01*
X155262485Y-88212984D01*
X155388015Y-88140509D01*
X155462319Y-88066205D01*
X155523642Y-88032720D01*
X155593334Y-88037704D01*
X155637681Y-88066205D01*
X155711985Y-88140509D01*
X155711986Y-88140510D01*
X155711988Y-88140511D01*
X155837511Y-88212982D01*
X155837512Y-88212982D01*
X155837515Y-88212984D01*
X155977525Y-88250500D01*
X155977528Y-88250500D01*
X156122472Y-88250500D01*
X156122475Y-88250500D01*
X156262485Y-88212984D01*
X156388015Y-88140509D01*
X156437319Y-88091205D01*
X156498642Y-88057720D01*
X156568334Y-88062704D01*
X156612681Y-88091205D01*
X156661985Y-88140509D01*
X156661986Y-88140510D01*
X156661988Y-88140511D01*
X156787511Y-88212982D01*
X156787512Y-88212982D01*
X156787515Y-88212984D01*
X156927525Y-88250500D01*
X156927528Y-88250500D01*
X157072472Y-88250500D01*
X157072475Y-88250500D01*
X157212485Y-88212984D01*
X157338015Y-88140509D01*
X157440509Y-88038015D01*
X157512984Y-87912485D01*
X157550500Y-87772475D01*
X157550500Y-87627525D01*
X157512984Y-87487515D01*
X157499473Y-87464114D01*
X157440511Y-87361988D01*
X157440506Y-87361982D01*
X157338017Y-87259493D01*
X157338011Y-87259488D01*
X157212488Y-87187017D01*
X157212489Y-87187017D01*
X157201006Y-87183940D01*
X157072475Y-87149500D01*
X156927525Y-87149500D01*
X156798993Y-87183940D01*
X156787511Y-87187017D01*
X156661988Y-87259488D01*
X156661982Y-87259493D01*
X156612681Y-87308795D01*
X156551358Y-87342280D01*
X156481666Y-87337296D01*
X156437319Y-87308795D01*
X156388017Y-87259493D01*
X156388011Y-87259488D01*
X156262488Y-87187017D01*
X156262489Y-87187017D01*
X156251006Y-87183940D01*
X156122475Y-87149500D01*
X155977525Y-87149500D01*
X155848993Y-87183940D01*
X155837511Y-87187017D01*
X155711988Y-87259488D01*
X155711982Y-87259493D01*
X155637681Y-87333795D01*
X155576358Y-87367280D01*
X155506666Y-87362296D01*
X155462319Y-87333795D01*
X155388017Y-87259493D01*
X155388011Y-87259488D01*
X155262488Y-87187017D01*
X155262489Y-87187017D01*
X155251006Y-87183940D01*
X155122475Y-87149500D01*
X154977525Y-87149500D01*
X154848993Y-87183940D01*
X154837511Y-87187017D01*
X154711988Y-87259488D01*
X154711982Y-87259493D01*
X154609493Y-87361982D01*
X154609488Y-87361988D01*
X154537017Y-87487511D01*
X154537016Y-87487515D01*
X154499500Y-87627525D01*
X153237102Y-87627525D01*
X153212984Y-87537515D01*
X153212744Y-87537100D01*
X153140511Y-87411988D01*
X153140506Y-87411982D01*
X153038017Y-87309493D01*
X153038011Y-87309488D01*
X152912488Y-87237017D01*
X152912489Y-87237017D01*
X152901006Y-87233940D01*
X152772475Y-87199500D01*
X152627525Y-87199500D01*
X152498993Y-87233940D01*
X152487511Y-87237017D01*
X152361988Y-87309488D01*
X152361982Y-87309493D01*
X152259493Y-87411982D01*
X152259488Y-87411988D01*
X152187017Y-87537511D01*
X152186142Y-87540775D01*
X152149500Y-87677525D01*
X140500500Y-87677525D01*
X140500500Y-86988995D01*
X141399499Y-86988995D01*
X141426418Y-87124322D01*
X141426421Y-87124332D01*
X141479221Y-87251804D01*
X141479228Y-87251817D01*
X141555885Y-87366541D01*
X141555888Y-87366545D01*
X141653454Y-87464111D01*
X141653458Y-87464114D01*
X141768182Y-87540771D01*
X141768195Y-87540778D01*
X141895667Y-87593578D01*
X141895672Y-87593580D01*
X141895676Y-87593580D01*
X141895677Y-87593581D01*
X142031004Y-87620500D01*
X142031007Y-87620500D01*
X142168995Y-87620500D01*
X142260041Y-87602389D01*
X142304328Y-87593580D01*
X142431811Y-87540775D01*
X142546542Y-87464114D01*
X142644114Y-87366542D01*
X142720775Y-87251811D01*
X142773580Y-87124328D01*
X142800500Y-86988993D01*
X142800500Y-86851007D01*
X142800500Y-86851004D01*
X142773581Y-86715677D01*
X142773580Y-86715676D01*
X142773580Y-86715672D01*
X142730632Y-86611985D01*
X142720778Y-86588195D01*
X142720771Y-86588182D01*
X142644114Y-86473458D01*
X142644111Y-86473454D01*
X142546545Y-86375888D01*
X142546541Y-86375885D01*
X142431817Y-86299228D01*
X142431804Y-86299221D01*
X142304332Y-86246421D01*
X142304322Y-86246418D01*
X142168995Y-86219500D01*
X142168993Y-86219500D01*
X142031007Y-86219500D01*
X142031005Y-86219500D01*
X141895677Y-86246418D01*
X141895667Y-86246421D01*
X141768195Y-86299221D01*
X141768182Y-86299228D01*
X141653458Y-86375885D01*
X141653454Y-86375888D01*
X141555888Y-86473454D01*
X141555885Y-86473458D01*
X141479228Y-86588182D01*
X141479221Y-86588195D01*
X141426421Y-86715667D01*
X141426418Y-86715677D01*
X141399500Y-86851004D01*
X141399500Y-86851007D01*
X141399500Y-86988993D01*
X141399500Y-86988995D01*
X141399499Y-86988995D01*
X140500500Y-86988995D01*
X140500500Y-84088995D01*
X141409499Y-84088995D01*
X141436418Y-84224322D01*
X141436421Y-84224332D01*
X141489221Y-84351804D01*
X141489228Y-84351817D01*
X141565885Y-84466541D01*
X141565888Y-84466545D01*
X141663454Y-84564111D01*
X141663458Y-84564114D01*
X141778182Y-84640771D01*
X141778195Y-84640778D01*
X141905667Y-84693578D01*
X141905672Y-84693580D01*
X141905676Y-84693580D01*
X141905677Y-84693581D01*
X142041004Y-84720500D01*
X142041007Y-84720500D01*
X142178995Y-84720500D01*
X142270041Y-84702389D01*
X142314328Y-84693580D01*
X142441811Y-84640775D01*
X142556542Y-84564114D01*
X142654114Y-84466542D01*
X142730775Y-84351811D01*
X142730776Y-84351808D01*
X142730778Y-84351805D01*
X142740835Y-84327525D01*
X150899500Y-84327525D01*
X150899500Y-84472475D01*
X150912099Y-84519493D01*
X150937017Y-84612488D01*
X151009488Y-84738011D01*
X151009490Y-84738013D01*
X151009491Y-84738015D01*
X151111985Y-84840509D01*
X151111986Y-84840510D01*
X151111988Y-84840511D01*
X151237511Y-84912982D01*
X151237512Y-84912982D01*
X151237515Y-84912984D01*
X151301861Y-84930225D01*
X151361520Y-84966591D01*
X151392049Y-85029438D01*
X151383754Y-85098813D01*
X151339268Y-85152691D01*
X151301862Y-85169774D01*
X151247516Y-85184336D01*
X151237511Y-85187017D01*
X151111988Y-85259488D01*
X151111982Y-85259493D01*
X151009493Y-85361982D01*
X151009488Y-85361988D01*
X150937017Y-85487511D01*
X150937016Y-85487515D01*
X150899500Y-85627525D01*
X150899500Y-85772475D01*
X150937016Y-85912485D01*
X150937017Y-85912488D01*
X151009488Y-86038011D01*
X151009490Y-86038013D01*
X151009491Y-86038015D01*
X151111985Y-86140509D01*
X151111986Y-86140510D01*
X151111988Y-86140511D01*
X151244553Y-86217048D01*
X151242971Y-86219787D01*
X151285774Y-86254281D01*
X151307838Y-86320575D01*
X151290558Y-86388274D01*
X151243859Y-86431751D01*
X151244553Y-86432952D01*
X151111988Y-86509488D01*
X151111982Y-86509493D01*
X151009493Y-86611982D01*
X151009488Y-86611988D01*
X150937017Y-86737511D01*
X150937016Y-86737515D01*
X150899500Y-86877525D01*
X150899500Y-87022475D01*
X150910086Y-87061981D01*
X150937017Y-87162488D01*
X151009488Y-87288011D01*
X151009490Y-87288013D01*
X151009491Y-87288015D01*
X151111985Y-87390509D01*
X151111986Y-87390510D01*
X151111988Y-87390511D01*
X151237511Y-87462982D01*
X151237512Y-87462982D01*
X151237515Y-87462984D01*
X151377525Y-87500500D01*
X151377528Y-87500500D01*
X151522472Y-87500500D01*
X151522475Y-87500500D01*
X151662485Y-87462984D01*
X151788015Y-87390509D01*
X151890509Y-87288015D01*
X151962984Y-87162485D01*
X151989914Y-87061981D01*
X175199499Y-87061981D01*
X175226418Y-87197308D01*
X175226421Y-87197318D01*
X175279221Y-87324790D01*
X175279228Y-87324803D01*
X175355885Y-87439527D01*
X175355888Y-87439531D01*
X175453454Y-87537097D01*
X175453458Y-87537100D01*
X175568182Y-87613757D01*
X175568195Y-87613764D01*
X175695667Y-87666564D01*
X175695672Y-87666566D01*
X175695676Y-87666566D01*
X175695677Y-87666567D01*
X175831004Y-87693486D01*
X175831007Y-87693486D01*
X175968995Y-87693486D01*
X176060041Y-87675375D01*
X176104328Y-87666566D01*
X176231811Y-87613761D01*
X176346542Y-87537100D01*
X176444114Y-87439528D01*
X176520775Y-87324797D01*
X176573580Y-87197314D01*
X176600500Y-87061979D01*
X176600500Y-86923993D01*
X176600500Y-86923990D01*
X176573581Y-86788663D01*
X176573580Y-86788662D01*
X176573580Y-86788658D01*
X176552396Y-86737515D01*
X176520778Y-86661181D01*
X176520771Y-86661168D01*
X176444114Y-86546444D01*
X176444111Y-86546440D01*
X176346545Y-86448874D01*
X176346541Y-86448871D01*
X176231817Y-86372214D01*
X176231804Y-86372207D01*
X176104332Y-86319407D01*
X176104322Y-86319404D01*
X175968995Y-86292486D01*
X175968993Y-86292486D01*
X175831007Y-86292486D01*
X175831005Y-86292486D01*
X175695677Y-86319404D01*
X175695667Y-86319407D01*
X175568195Y-86372207D01*
X175568182Y-86372214D01*
X175453458Y-86448871D01*
X175453454Y-86448874D01*
X175355888Y-86546440D01*
X175355885Y-86546444D01*
X175279228Y-86661168D01*
X175279221Y-86661181D01*
X175226421Y-86788653D01*
X175226418Y-86788663D01*
X175199500Y-86923990D01*
X175199500Y-86923993D01*
X175199500Y-87061979D01*
X175199500Y-87061981D01*
X175199499Y-87061981D01*
X151989914Y-87061981D01*
X152000500Y-87022475D01*
X152000500Y-86877525D01*
X151962984Y-86737515D01*
X151918912Y-86661181D01*
X151890511Y-86611988D01*
X151890506Y-86611982D01*
X151788017Y-86509493D01*
X151788011Y-86509488D01*
X151655447Y-86432952D01*
X151657031Y-86430208D01*
X151614244Y-86395746D01*
X151592162Y-86329457D01*
X151609424Y-86261753D01*
X151656136Y-86218241D01*
X151655447Y-86217048D01*
X151742731Y-86166653D01*
X151788015Y-86140509D01*
X151890509Y-86038015D01*
X151962984Y-85912485D01*
X152000500Y-85772475D01*
X152000500Y-85627525D01*
X156449500Y-85627525D01*
X156449500Y-85772475D01*
X156487016Y-85912485D01*
X156487017Y-85912488D01*
X156559488Y-86038011D01*
X156559490Y-86038013D01*
X156559491Y-86038015D01*
X156661985Y-86140509D01*
X156661986Y-86140510D01*
X156661988Y-86140511D01*
X156787511Y-86212982D01*
X156787512Y-86212982D01*
X156787515Y-86212984D01*
X156927525Y-86250500D01*
X156927528Y-86250500D01*
X157072472Y-86250500D01*
X157072475Y-86250500D01*
X157212485Y-86212984D01*
X157338015Y-86140509D01*
X157440509Y-86038015D01*
X157512984Y-85912485D01*
X157550500Y-85772475D01*
X157550500Y-85627525D01*
X157512984Y-85487515D01*
X157504594Y-85472984D01*
X157440511Y-85361988D01*
X157440506Y-85361982D01*
X157338017Y-85259493D01*
X157338011Y-85259488D01*
X157212488Y-85187017D01*
X157212489Y-85187017D01*
X157201006Y-85183940D01*
X157072475Y-85149500D01*
X156927525Y-85149500D01*
X156798993Y-85183940D01*
X156787511Y-85187017D01*
X156661988Y-85259488D01*
X156661982Y-85259493D01*
X156559493Y-85361982D01*
X156559488Y-85361988D01*
X156487017Y-85487511D01*
X156487016Y-85487515D01*
X156449500Y-85627525D01*
X152000500Y-85627525D01*
X151962984Y-85487515D01*
X151954594Y-85472984D01*
X151890511Y-85361988D01*
X151890506Y-85361982D01*
X151788017Y-85259493D01*
X151788011Y-85259488D01*
X151662488Y-85187017D01*
X151662489Y-85187017D01*
X151656157Y-85185320D01*
X151598137Y-85169773D01*
X151538479Y-85133410D01*
X151507950Y-85070563D01*
X151516245Y-85001187D01*
X151560730Y-84947309D01*
X151598135Y-84930226D01*
X151662485Y-84912984D01*
X151706581Y-84887525D01*
X157582000Y-84887525D01*
X157582000Y-85032475D01*
X157609046Y-85133410D01*
X157619517Y-85172488D01*
X157691988Y-85298011D01*
X157691990Y-85298013D01*
X157691991Y-85298015D01*
X157794485Y-85400509D01*
X157794486Y-85400510D01*
X157794488Y-85400511D01*
X157920011Y-85472982D01*
X157920012Y-85472982D01*
X157920015Y-85472984D01*
X158060025Y-85510500D01*
X158060028Y-85510500D01*
X158204972Y-85510500D01*
X158204975Y-85510500D01*
X158344985Y-85472984D01*
X158470515Y-85400509D01*
X158573009Y-85298015D01*
X158645484Y-85172485D01*
X158683000Y-85032475D01*
X158683000Y-84887525D01*
X160822000Y-84887525D01*
X160822000Y-85032475D01*
X160849046Y-85133410D01*
X160859517Y-85172488D01*
X160931988Y-85298011D01*
X160931990Y-85298013D01*
X160931991Y-85298015D01*
X161034485Y-85400509D01*
X161034486Y-85400510D01*
X161034488Y-85400511D01*
X161160011Y-85472982D01*
X161160012Y-85472982D01*
X161160015Y-85472984D01*
X161300025Y-85510500D01*
X161300028Y-85510500D01*
X161444972Y-85510500D01*
X161444975Y-85510500D01*
X161584985Y-85472984D01*
X161710515Y-85400509D01*
X161813009Y-85298015D01*
X161885484Y-85172485D01*
X161923000Y-85032475D01*
X161923000Y-84887525D01*
X161885484Y-84747515D01*
X161880000Y-84738017D01*
X161813011Y-84621988D01*
X161813006Y-84621982D01*
X161710517Y-84519493D01*
X161710511Y-84519488D01*
X161584988Y-84447017D01*
X161584989Y-84447017D01*
X161573506Y-84443940D01*
X161444975Y-84409500D01*
X161300025Y-84409500D01*
X161171493Y-84443940D01*
X161160011Y-84447017D01*
X161034488Y-84519488D01*
X161034482Y-84519493D01*
X160931993Y-84621982D01*
X160931988Y-84621988D01*
X160859517Y-84747511D01*
X160859516Y-84747515D01*
X160822000Y-84887525D01*
X158683000Y-84887525D01*
X158645484Y-84747515D01*
X158640000Y-84738017D01*
X158573011Y-84621988D01*
X158573006Y-84621982D01*
X158470517Y-84519493D01*
X158470511Y-84519488D01*
X158344988Y-84447017D01*
X158344989Y-84447017D01*
X158333506Y-84443940D01*
X158204975Y-84409500D01*
X158060025Y-84409500D01*
X157931493Y-84443940D01*
X157920011Y-84447017D01*
X157794488Y-84519488D01*
X157794482Y-84519493D01*
X157691993Y-84621982D01*
X157691988Y-84621988D01*
X157619517Y-84747511D01*
X157619516Y-84747515D01*
X157582000Y-84887525D01*
X151706581Y-84887525D01*
X151788015Y-84840509D01*
X151890509Y-84738015D01*
X151962984Y-84612485D01*
X152000500Y-84472475D01*
X152000500Y-84327525D01*
X151962984Y-84187515D01*
X151935843Y-84140506D01*
X151890511Y-84061988D01*
X151890506Y-84061982D01*
X151788017Y-83959493D01*
X151788011Y-83959488D01*
X151662488Y-83887017D01*
X151662489Y-83887017D01*
X151651006Y-83883940D01*
X151522475Y-83849500D01*
X151377525Y-83849500D01*
X151248993Y-83883940D01*
X151237511Y-83887017D01*
X151111988Y-83959488D01*
X151111982Y-83959493D01*
X151009493Y-84061982D01*
X151009488Y-84061988D01*
X150937017Y-84187511D01*
X150936214Y-84190509D01*
X150899500Y-84327525D01*
X142740835Y-84327525D01*
X142763856Y-84271946D01*
X142763856Y-84271945D01*
X142767568Y-84262984D01*
X142783580Y-84224328D01*
X142800114Y-84141205D01*
X142810500Y-84088995D01*
X142810500Y-83951004D01*
X142783581Y-83815677D01*
X142783580Y-83815676D01*
X142783580Y-83815672D01*
X142773976Y-83792485D01*
X142730778Y-83688195D01*
X142730771Y-83688182D01*
X142654114Y-83573458D01*
X142654111Y-83573454D01*
X142556545Y-83475888D01*
X142556541Y-83475885D01*
X142441817Y-83399228D01*
X142441804Y-83399221D01*
X142314332Y-83346421D01*
X142314322Y-83346418D01*
X142178995Y-83319500D01*
X142178993Y-83319500D01*
X142041007Y-83319500D01*
X142041005Y-83319500D01*
X141905677Y-83346418D01*
X141905667Y-83346421D01*
X141778195Y-83399221D01*
X141778182Y-83399228D01*
X141663458Y-83475885D01*
X141663454Y-83475888D01*
X141565888Y-83573454D01*
X141565885Y-83573458D01*
X141489228Y-83688182D01*
X141489221Y-83688195D01*
X141436421Y-83815667D01*
X141436418Y-83815677D01*
X141409500Y-83951004D01*
X141409500Y-83951007D01*
X141409500Y-84088993D01*
X141409500Y-84088995D01*
X141409499Y-84088995D01*
X140500500Y-84088995D01*
X140500500Y-82587525D01*
X144539500Y-82587525D01*
X144539500Y-82732475D01*
X144573534Y-82859491D01*
X144577017Y-82872488D01*
X144649488Y-82998011D01*
X144649490Y-82998013D01*
X144649491Y-82998015D01*
X144751985Y-83100509D01*
X144751986Y-83100510D01*
X144751988Y-83100511D01*
X144877511Y-83172982D01*
X144877512Y-83172982D01*
X144877515Y-83172984D01*
X145017525Y-83210500D01*
X145017528Y-83210500D01*
X145170602Y-83210500D01*
X145170602Y-83212676D01*
X145228346Y-83221680D01*
X145280604Y-83268058D01*
X145299500Y-83333855D01*
X145299500Y-83462475D01*
X145324935Y-83557397D01*
X145337017Y-83602488D01*
X145409488Y-83728011D01*
X145409490Y-83728013D01*
X145409491Y-83728015D01*
X145511985Y-83830509D01*
X145511986Y-83830510D01*
X145511988Y-83830511D01*
X145637511Y-83902982D01*
X145637512Y-83902982D01*
X145637515Y-83902984D01*
X145777525Y-83940500D01*
X145777528Y-83940500D01*
X145922472Y-83940500D01*
X145922475Y-83940500D01*
X146062485Y-83902984D01*
X146188015Y-83830509D01*
X146253629Y-83764895D01*
X146314952Y-83731410D01*
X146384644Y-83736394D01*
X146404422Y-83747350D01*
X146404946Y-83746445D01*
X146537511Y-83822982D01*
X146537512Y-83822982D01*
X146537515Y-83822984D01*
X146677525Y-83860500D01*
X146677528Y-83860500D01*
X146822472Y-83860500D01*
X146822475Y-83860500D01*
X146962485Y-83822984D01*
X147088015Y-83750509D01*
X147190509Y-83648015D01*
X147202339Y-83627525D01*
X152149500Y-83627525D01*
X152149500Y-83772475D01*
X152165051Y-83830511D01*
X152187017Y-83912488D01*
X152259488Y-84038011D01*
X152259490Y-84038013D01*
X152259491Y-84038015D01*
X152361985Y-84140509D01*
X152361986Y-84140510D01*
X152361988Y-84140511D01*
X152487511Y-84212982D01*
X152487512Y-84212982D01*
X152487515Y-84212984D01*
X152627525Y-84250500D01*
X152627528Y-84250500D01*
X152772472Y-84250500D01*
X152772475Y-84250500D01*
X152912485Y-84212984D01*
X153038015Y-84140509D01*
X153140509Y-84038015D01*
X153212984Y-83912485D01*
X153250500Y-83772475D01*
X153250500Y-83677525D01*
X154499500Y-83677525D01*
X154499500Y-83822475D01*
X154536213Y-83959488D01*
X154537017Y-83962488D01*
X154609488Y-84088011D01*
X154609490Y-84088013D01*
X154609491Y-84088015D01*
X154711985Y-84190509D01*
X154711986Y-84190510D01*
X154711988Y-84190511D01*
X154837511Y-84262982D01*
X154837512Y-84262982D01*
X154837515Y-84262984D01*
X154977525Y-84300500D01*
X154977528Y-84300500D01*
X155122472Y-84300500D01*
X155122475Y-84300500D01*
X155262485Y-84262984D01*
X155388015Y-84190509D01*
X155462319Y-84116205D01*
X155523642Y-84082720D01*
X155593334Y-84087704D01*
X155637681Y-84116205D01*
X155711985Y-84190509D01*
X155711986Y-84190510D01*
X155711988Y-84190511D01*
X155837511Y-84262982D01*
X155837512Y-84262982D01*
X155837515Y-84262984D01*
X155977525Y-84300500D01*
X155977528Y-84300500D01*
X156122472Y-84300500D01*
X156122475Y-84300500D01*
X156262485Y-84262984D01*
X156388015Y-84190509D01*
X156437319Y-84141205D01*
X156498642Y-84107720D01*
X156568334Y-84112704D01*
X156612681Y-84141205D01*
X156661985Y-84190509D01*
X156661986Y-84190510D01*
X156661988Y-84190511D01*
X156787511Y-84262982D01*
X156787512Y-84262982D01*
X156787515Y-84262984D01*
X156927525Y-84300500D01*
X156927528Y-84300500D01*
X157072472Y-84300500D01*
X157072475Y-84300500D01*
X157212485Y-84262984D01*
X157338015Y-84190509D01*
X157440509Y-84088015D01*
X157512984Y-83962485D01*
X157550500Y-83822475D01*
X157550500Y-83677525D01*
X157512984Y-83537515D01*
X157504306Y-83522485D01*
X157440511Y-83411988D01*
X157440506Y-83411982D01*
X157338017Y-83309493D01*
X157338011Y-83309488D01*
X157212488Y-83237017D01*
X157212489Y-83237017D01*
X157201006Y-83233940D01*
X157177065Y-83227525D01*
X159199500Y-83227525D01*
X159199500Y-83372475D01*
X159237016Y-83512485D01*
X159237017Y-83512488D01*
X159309488Y-83638011D01*
X159309490Y-83638013D01*
X159309491Y-83638015D01*
X159411985Y-83740509D01*
X159411986Y-83740510D01*
X159411988Y-83740511D01*
X159537511Y-83812982D01*
X159537512Y-83812982D01*
X159537515Y-83812984D01*
X159677525Y-83850500D01*
X159677528Y-83850500D01*
X159822472Y-83850500D01*
X159822475Y-83850500D01*
X159962485Y-83812984D01*
X160088015Y-83740509D01*
X160190509Y-83638015D01*
X160262984Y-83512485D01*
X160264313Y-83507525D01*
X169709500Y-83507525D01*
X169709500Y-83652475D01*
X169747016Y-83792485D01*
X169747017Y-83792488D01*
X169819488Y-83918011D01*
X169819490Y-83918013D01*
X169819491Y-83918015D01*
X169921985Y-84020509D01*
X169921986Y-84020510D01*
X169921988Y-84020511D01*
X170047511Y-84092982D01*
X170047512Y-84092982D01*
X170047515Y-84092984D01*
X170187525Y-84130500D01*
X170187528Y-84130500D01*
X170332472Y-84130500D01*
X170332475Y-84130500D01*
X170472485Y-84092984D01*
X170598015Y-84020509D01*
X170700509Y-83918015D01*
X170772984Y-83792485D01*
X170810500Y-83652475D01*
X170810500Y-83507525D01*
X170772984Y-83367515D01*
X170769791Y-83361985D01*
X170700511Y-83241988D01*
X170700506Y-83241982D01*
X170598017Y-83139493D01*
X170598011Y-83139488D01*
X170472488Y-83067017D01*
X170472489Y-83067017D01*
X170461006Y-83063940D01*
X170332475Y-83029500D01*
X170187525Y-83029500D01*
X170058993Y-83063940D01*
X170047511Y-83067017D01*
X169921988Y-83139488D01*
X169921982Y-83139493D01*
X169819493Y-83241982D01*
X169819488Y-83241988D01*
X169747017Y-83367511D01*
X169747016Y-83367515D01*
X169709500Y-83507525D01*
X160264313Y-83507525D01*
X160300500Y-83372475D01*
X160300500Y-83227525D01*
X160262984Y-83087515D01*
X160251149Y-83067017D01*
X160190511Y-82961988D01*
X160190506Y-82961982D01*
X160088017Y-82859493D01*
X160088011Y-82859488D01*
X159962488Y-82787017D01*
X159962489Y-82787017D01*
X159943467Y-82781920D01*
X159822475Y-82749500D01*
X159677525Y-82749500D01*
X159556533Y-82781920D01*
X159537511Y-82787017D01*
X159411988Y-82859488D01*
X159411982Y-82859493D01*
X159309493Y-82961982D01*
X159309488Y-82961988D01*
X159237017Y-83087511D01*
X159237016Y-83087515D01*
X159199500Y-83227525D01*
X157177065Y-83227525D01*
X157072475Y-83199500D01*
X156927525Y-83199500D01*
X156798993Y-83233940D01*
X156787511Y-83237017D01*
X156661988Y-83309488D01*
X156661982Y-83309493D01*
X156612681Y-83358795D01*
X156551358Y-83392280D01*
X156481666Y-83387296D01*
X156437319Y-83358795D01*
X156388017Y-83309493D01*
X156388011Y-83309488D01*
X156262488Y-83237017D01*
X156262489Y-83237017D01*
X156251006Y-83233940D01*
X156122475Y-83199500D01*
X155977525Y-83199500D01*
X155848993Y-83233940D01*
X155837511Y-83237017D01*
X155711988Y-83309488D01*
X155711982Y-83309493D01*
X155637681Y-83383795D01*
X155576358Y-83417280D01*
X155506666Y-83412296D01*
X155462319Y-83383795D01*
X155388017Y-83309493D01*
X155388011Y-83309488D01*
X155262488Y-83237017D01*
X155262489Y-83237017D01*
X155251006Y-83233940D01*
X155122475Y-83199500D01*
X154977525Y-83199500D01*
X154848993Y-83233940D01*
X154837511Y-83237017D01*
X154711988Y-83309488D01*
X154711982Y-83309493D01*
X154609493Y-83411982D01*
X154609488Y-83411988D01*
X154537017Y-83537511D01*
X154537016Y-83537515D01*
X154499500Y-83677525D01*
X153250500Y-83677525D01*
X153250500Y-83627525D01*
X153212984Y-83487515D01*
X153206269Y-83475885D01*
X153140511Y-83361988D01*
X153140506Y-83361982D01*
X153038017Y-83259493D01*
X153038011Y-83259488D01*
X152912488Y-83187017D01*
X152912489Y-83187017D01*
X152860117Y-83172984D01*
X152772475Y-83149500D01*
X152627525Y-83149500D01*
X152539883Y-83172984D01*
X152487511Y-83187017D01*
X152361988Y-83259488D01*
X152361982Y-83259493D01*
X152259493Y-83361982D01*
X152259488Y-83361988D01*
X152187017Y-83487511D01*
X152187016Y-83487515D01*
X152149500Y-83627525D01*
X147202339Y-83627525D01*
X147262984Y-83522485D01*
X147300500Y-83382475D01*
X147300500Y-83237525D01*
X147262984Y-83097515D01*
X147257210Y-83087515D01*
X147190511Y-82971988D01*
X147190506Y-82971982D01*
X147088017Y-82869493D01*
X147088011Y-82869488D01*
X146962488Y-82797017D01*
X146962489Y-82797017D01*
X146951006Y-82793940D01*
X146822475Y-82759500D01*
X146677525Y-82759500D01*
X146548993Y-82793940D01*
X146537511Y-82797017D01*
X146411988Y-82869488D01*
X146346371Y-82935105D01*
X146285047Y-82968589D01*
X146215356Y-82963604D01*
X146195575Y-82952651D01*
X146195054Y-82953555D01*
X146062488Y-82877017D01*
X146062489Y-82877017D01*
X146034409Y-82869493D01*
X145922475Y-82839500D01*
X145777525Y-82839500D01*
X145769398Y-82839500D01*
X145769398Y-82837327D01*
X145711631Y-82828309D01*
X145659383Y-82781920D01*
X145640500Y-82716144D01*
X145640500Y-82587527D01*
X145640500Y-82587525D01*
X145602984Y-82447515D01*
X145582759Y-82412485D01*
X145530511Y-82321988D01*
X145530506Y-82321982D01*
X145428016Y-82219492D01*
X145428015Y-82219491D01*
X145406113Y-82206846D01*
X145302488Y-82147017D01*
X145302489Y-82147017D01*
X145291006Y-82143940D01*
X145229745Y-82127525D01*
X161599500Y-82127525D01*
X161599500Y-82272475D01*
X161637016Y-82412485D01*
X161637017Y-82412488D01*
X161709488Y-82538011D01*
X161709490Y-82538013D01*
X161709491Y-82538015D01*
X161811985Y-82640509D01*
X161811986Y-82640510D01*
X161811988Y-82640511D01*
X161937511Y-82712982D01*
X161937512Y-82712982D01*
X161937515Y-82712984D01*
X162077525Y-82750500D01*
X162077528Y-82750500D01*
X162222472Y-82750500D01*
X162222475Y-82750500D01*
X162362485Y-82712984D01*
X162488015Y-82640509D01*
X162590509Y-82538015D01*
X162662984Y-82412485D01*
X162700500Y-82272475D01*
X162700500Y-82127525D01*
X162662984Y-81987515D01*
X162590509Y-81861985D01*
X162488015Y-81759491D01*
X162488013Y-81759490D01*
X162488011Y-81759488D01*
X162362488Y-81687017D01*
X162362489Y-81687017D01*
X162351006Y-81683940D01*
X162222475Y-81649500D01*
X162077525Y-81649500D01*
X161948993Y-81683940D01*
X161937511Y-81687017D01*
X161811988Y-81759488D01*
X161811982Y-81759493D01*
X161709493Y-81861982D01*
X161709488Y-81861988D01*
X161637017Y-81987511D01*
X161637016Y-81987515D01*
X161599500Y-82127525D01*
X145229745Y-82127525D01*
X145162475Y-82109500D01*
X145017525Y-82109500D01*
X144888993Y-82143940D01*
X144877511Y-82147017D01*
X144751988Y-82219488D01*
X144751982Y-82219493D01*
X144649493Y-82321982D01*
X144649488Y-82321988D01*
X144577017Y-82447511D01*
X144577016Y-82447515D01*
X144539500Y-82587525D01*
X140500500Y-82587525D01*
X140500500Y-81127525D01*
X143419500Y-81127525D01*
X143419500Y-81272475D01*
X143457016Y-81412485D01*
X143457017Y-81412488D01*
X143529488Y-81538011D01*
X143529490Y-81538013D01*
X143529491Y-81538015D01*
X143631985Y-81640509D01*
X143631986Y-81640510D01*
X143631988Y-81640511D01*
X143757511Y-81712982D01*
X143757512Y-81712982D01*
X143757515Y-81712984D01*
X143897525Y-81750500D01*
X143897528Y-81750500D01*
X144042472Y-81750500D01*
X144042475Y-81750500D01*
X144182485Y-81712984D01*
X144308015Y-81640509D01*
X144410509Y-81538015D01*
X144482984Y-81412485D01*
X144520500Y-81272475D01*
X144520500Y-81127525D01*
X144482984Y-80987515D01*
X144410509Y-80861985D01*
X144308015Y-80759491D01*
X144308013Y-80759490D01*
X144308011Y-80759488D01*
X144182488Y-80687017D01*
X144182489Y-80687017D01*
X144171006Y-80683940D01*
X144147065Y-80677525D01*
X169787000Y-80677525D01*
X169787000Y-80822475D01*
X169797587Y-80861985D01*
X169824517Y-80962488D01*
X169896988Y-81088011D01*
X169896990Y-81088013D01*
X169896991Y-81088015D01*
X169999485Y-81190509D01*
X169999486Y-81190510D01*
X169999488Y-81190511D01*
X170125011Y-81262982D01*
X170125012Y-81262982D01*
X170125015Y-81262984D01*
X170265025Y-81300500D01*
X170265028Y-81300500D01*
X170409972Y-81300500D01*
X170409975Y-81300500D01*
X170549985Y-81262984D01*
X170675515Y-81190509D01*
X170778009Y-81088015D01*
X170850484Y-80962485D01*
X170888000Y-80822475D01*
X170888000Y-80677525D01*
X170850484Y-80537515D01*
X170778009Y-80411985D01*
X170675515Y-80309491D01*
X170675513Y-80309490D01*
X170675511Y-80309488D01*
X170549988Y-80237017D01*
X170549989Y-80237017D01*
X170538506Y-80233940D01*
X170409975Y-80199500D01*
X170265025Y-80199500D01*
X170136493Y-80233940D01*
X170125011Y-80237017D01*
X169999488Y-80309488D01*
X169999482Y-80309493D01*
X169896993Y-80411982D01*
X169896988Y-80411988D01*
X169824517Y-80537511D01*
X169824516Y-80537515D01*
X169787000Y-80677525D01*
X144147065Y-80677525D01*
X144042475Y-80649500D01*
X143897525Y-80649500D01*
X143768993Y-80683940D01*
X143757511Y-80687017D01*
X143631988Y-80759488D01*
X143631982Y-80759493D01*
X143529493Y-80861982D01*
X143529488Y-80861988D01*
X143457017Y-80987511D01*
X143457016Y-80987515D01*
X143419500Y-81127525D01*
X140500500Y-81127525D01*
X140500500Y-78727525D01*
X141559500Y-78727525D01*
X141559500Y-78872475D01*
X141597016Y-79012485D01*
X141597017Y-79012488D01*
X141669488Y-79138011D01*
X141669490Y-79138013D01*
X141669491Y-79138015D01*
X141771985Y-79240509D01*
X141771986Y-79240510D01*
X141771988Y-79240511D01*
X141897511Y-79312982D01*
X141897512Y-79312982D01*
X141897515Y-79312984D01*
X142037525Y-79350500D01*
X142037528Y-79350500D01*
X142182472Y-79350500D01*
X142182475Y-79350500D01*
X142322485Y-79312984D01*
X142448015Y-79240509D01*
X142550509Y-79138015D01*
X142622984Y-79012485D01*
X142660500Y-78872475D01*
X142660500Y-78727525D01*
X144514500Y-78727525D01*
X144514500Y-78872475D01*
X144552016Y-79012485D01*
X144552017Y-79012488D01*
X144624488Y-79138011D01*
X144624490Y-79138013D01*
X144624491Y-79138015D01*
X144726985Y-79240509D01*
X144726986Y-79240510D01*
X144726988Y-79240511D01*
X144852511Y-79312982D01*
X144852512Y-79312982D01*
X144852515Y-79312984D01*
X144992525Y-79350500D01*
X144992528Y-79350500D01*
X145137472Y-79350500D01*
X145137475Y-79350500D01*
X145277485Y-79312984D01*
X145403015Y-79240509D01*
X145505509Y-79138015D01*
X145577984Y-79012485D01*
X145615500Y-78872475D01*
X145615500Y-78727525D01*
X145583577Y-78608389D01*
X156721250Y-78608389D01*
X156721250Y-78731610D01*
X156745285Y-78852444D01*
X156745287Y-78852452D01*
X156752349Y-78869500D01*
X156792437Y-78966283D01*
X156792442Y-78966292D01*
X156860891Y-79068732D01*
X156860894Y-79068736D01*
X156948013Y-79155855D01*
X156948017Y-79155858D01*
X157050457Y-79224307D01*
X157050463Y-79224310D01*
X157050464Y-79224311D01*
X157164298Y-79271463D01*
X157285139Y-79295499D01*
X157285143Y-79295500D01*
X157285144Y-79295500D01*
X157408357Y-79295500D01*
X157408358Y-79295499D01*
X157529202Y-79271463D01*
X157643036Y-79224311D01*
X157643041Y-79224307D01*
X157643044Y-79224306D01*
X157677858Y-79201044D01*
X157744535Y-79180165D01*
X157811916Y-79198649D01*
X157813599Y-79199707D01*
X157814611Y-79200354D01*
X157850464Y-79224311D01*
X157854924Y-79226158D01*
X157864099Y-79232031D01*
X157883956Y-79254862D01*
X157905542Y-79276063D01*
X157906884Y-79281226D01*
X157909950Y-79284751D01*
X157912685Y-79303534D01*
X157921250Y-79336469D01*
X157921250Y-79441610D01*
X157945285Y-79562444D01*
X157945288Y-79562454D01*
X157992437Y-79676283D01*
X157992442Y-79676292D01*
X158060891Y-79778732D01*
X158060894Y-79778736D01*
X158148013Y-79865855D01*
X158148017Y-79865858D01*
X158250457Y-79934307D01*
X158250463Y-79934310D01*
X158250464Y-79934311D01*
X158364298Y-79981463D01*
X158485139Y-80005499D01*
X158485143Y-80005500D01*
X158485144Y-80005500D01*
X158608357Y-80005500D01*
X158608358Y-80005499D01*
X158729202Y-79981463D01*
X158843036Y-79934311D01*
X158843041Y-79934307D01*
X158843044Y-79934306D01*
X158877858Y-79911044D01*
X158944535Y-79890165D01*
X159011916Y-79908649D01*
X159015642Y-79911044D01*
X159050455Y-79934306D01*
X159050463Y-79934310D01*
X159050464Y-79934311D01*
X159164298Y-79981463D01*
X159285139Y-80005499D01*
X159285143Y-80005500D01*
X159285144Y-80005500D01*
X159408357Y-80005500D01*
X159408358Y-80005499D01*
X159529202Y-79981463D01*
X159643036Y-79934311D01*
X159643041Y-79934307D01*
X159643044Y-79934306D01*
X159677858Y-79911044D01*
X159744535Y-79890165D01*
X159811916Y-79908649D01*
X159815642Y-79911044D01*
X159850455Y-79934306D01*
X159850463Y-79934310D01*
X159850464Y-79934311D01*
X159964298Y-79981463D01*
X160085139Y-80005499D01*
X160085143Y-80005500D01*
X160085144Y-80005500D01*
X160208357Y-80005500D01*
X160208358Y-80005499D01*
X160329202Y-79981463D01*
X160443036Y-79934311D01*
X160443041Y-79934307D01*
X160443044Y-79934306D01*
X160477858Y-79911044D01*
X160544535Y-79890165D01*
X160611916Y-79908649D01*
X160615642Y-79911044D01*
X160650455Y-79934306D01*
X160650463Y-79934310D01*
X160650464Y-79934311D01*
X160764298Y-79981463D01*
X160885139Y-80005499D01*
X160885143Y-80005500D01*
X160885144Y-80005500D01*
X161008357Y-80005500D01*
X161008358Y-80005499D01*
X161129202Y-79981463D01*
X161243036Y-79934311D01*
X161345483Y-79865858D01*
X161432608Y-79778733D01*
X161501061Y-79676286D01*
X161548213Y-79562452D01*
X161572250Y-79441606D01*
X161572250Y-79336469D01*
X161591935Y-79269430D01*
X161629401Y-79232031D01*
X161638575Y-79226158D01*
X161643036Y-79224311D01*
X161678888Y-79200354D01*
X161679901Y-79199707D01*
X161712336Y-79190247D01*
X161744535Y-79180165D01*
X161745758Y-79180500D01*
X161746977Y-79180145D01*
X161779376Y-79189722D01*
X161811916Y-79198649D01*
X161813911Y-79199931D01*
X161813980Y-79199952D01*
X161814025Y-79200005D01*
X161815642Y-79201044D01*
X161850455Y-79224306D01*
X161850463Y-79224310D01*
X161850464Y-79224311D01*
X161964298Y-79271463D01*
X162085139Y-79295499D01*
X162085143Y-79295500D01*
X162085144Y-79295500D01*
X162208357Y-79295500D01*
X162208358Y-79295499D01*
X162329202Y-79271463D01*
X162443036Y-79224311D01*
X162545483Y-79155858D01*
X162632608Y-79068733D01*
X162701061Y-78966286D01*
X162748213Y-78852452D01*
X162772250Y-78731606D01*
X162772250Y-78608394D01*
X162748213Y-78487548D01*
X162701061Y-78373714D01*
X162701060Y-78373713D01*
X162701057Y-78373707D01*
X162632608Y-78271267D01*
X162632605Y-78271263D01*
X162545486Y-78184144D01*
X162545482Y-78184141D01*
X162443042Y-78115692D01*
X162443033Y-78115687D01*
X162329204Y-78068538D01*
X162329205Y-78068538D01*
X162329202Y-78068537D01*
X162329198Y-78068536D01*
X162329194Y-78068535D01*
X162208360Y-78044500D01*
X162208356Y-78044500D01*
X162085144Y-78044500D01*
X162085139Y-78044500D01*
X161964305Y-78068535D01*
X161964295Y-78068538D01*
X161850466Y-78115687D01*
X161850459Y-78115691D01*
X161815640Y-78138957D01*
X161748963Y-78159834D01*
X161681583Y-78141349D01*
X161677860Y-78138957D01*
X161643040Y-78115691D01*
X161643033Y-78115687D01*
X161529204Y-78068538D01*
X161529205Y-78068538D01*
X161529202Y-78068537D01*
X161529198Y-78068536D01*
X161529194Y-78068535D01*
X161408360Y-78044500D01*
X161408356Y-78044500D01*
X161285144Y-78044500D01*
X161285139Y-78044500D01*
X161164305Y-78068535D01*
X161164295Y-78068538D01*
X161050466Y-78115687D01*
X161050459Y-78115691D01*
X161015640Y-78138957D01*
X160948963Y-78159834D01*
X160881583Y-78141349D01*
X160877860Y-78138957D01*
X160843040Y-78115691D01*
X160843033Y-78115687D01*
X160729204Y-78068538D01*
X160729205Y-78068538D01*
X160729202Y-78068537D01*
X160729198Y-78068536D01*
X160729194Y-78068535D01*
X160608360Y-78044500D01*
X160608356Y-78044500D01*
X160485144Y-78044500D01*
X160485139Y-78044500D01*
X160364305Y-78068535D01*
X160364295Y-78068538D01*
X160250466Y-78115687D01*
X160250457Y-78115692D01*
X160148017Y-78184141D01*
X160148013Y-78184144D01*
X160060894Y-78271263D01*
X160060891Y-78271267D01*
X159992442Y-78373707D01*
X159992437Y-78373716D01*
X159945288Y-78487545D01*
X159945285Y-78487555D01*
X159921250Y-78608389D01*
X159921250Y-78713530D01*
X159901565Y-78780569D01*
X159864100Y-78817967D01*
X159854919Y-78823843D01*
X159850464Y-78825689D01*
X159814624Y-78849636D01*
X159813600Y-78850292D01*
X159781183Y-78859746D01*
X159748963Y-78869835D01*
X159747742Y-78869500D01*
X159746525Y-78869855D01*
X159714116Y-78860275D01*
X159681583Y-78851350D01*
X159679589Y-78850069D01*
X159679521Y-78850049D01*
X159679474Y-78849995D01*
X159677860Y-78848958D01*
X159643030Y-78825685D01*
X159637791Y-78822885D01*
X159587949Y-78773920D01*
X159572250Y-78713530D01*
X159572250Y-78608393D01*
X159572249Y-78608389D01*
X159548214Y-78487555D01*
X159548213Y-78487548D01*
X159501061Y-78373714D01*
X159501060Y-78373713D01*
X159501057Y-78373707D01*
X159432608Y-78271267D01*
X159432605Y-78271263D01*
X159345486Y-78184144D01*
X159345482Y-78184141D01*
X159243042Y-78115692D01*
X159243033Y-78115687D01*
X159129204Y-78068538D01*
X159129205Y-78068538D01*
X159129202Y-78068537D01*
X159129198Y-78068536D01*
X159129194Y-78068535D01*
X159008360Y-78044500D01*
X159008356Y-78044500D01*
X158885144Y-78044500D01*
X158885139Y-78044500D01*
X158764305Y-78068535D01*
X158764295Y-78068538D01*
X158650466Y-78115687D01*
X158650459Y-78115691D01*
X158615640Y-78138957D01*
X158548963Y-78159834D01*
X158481583Y-78141349D01*
X158477860Y-78138957D01*
X158443040Y-78115691D01*
X158443033Y-78115687D01*
X158329204Y-78068538D01*
X158329205Y-78068538D01*
X158329202Y-78068537D01*
X158329198Y-78068536D01*
X158329194Y-78068535D01*
X158208360Y-78044500D01*
X158208356Y-78044500D01*
X158085144Y-78044500D01*
X158085139Y-78044500D01*
X157964305Y-78068535D01*
X157964295Y-78068538D01*
X157850466Y-78115687D01*
X157850459Y-78115691D01*
X157815640Y-78138957D01*
X157748963Y-78159834D01*
X157681583Y-78141349D01*
X157677860Y-78138957D01*
X157643040Y-78115691D01*
X157643033Y-78115687D01*
X157529204Y-78068538D01*
X157529205Y-78068538D01*
X157529202Y-78068537D01*
X157529198Y-78068536D01*
X157529194Y-78068535D01*
X157408360Y-78044500D01*
X157408356Y-78044500D01*
X157285144Y-78044500D01*
X157285139Y-78044500D01*
X157164305Y-78068535D01*
X157164295Y-78068538D01*
X157050466Y-78115687D01*
X157050457Y-78115692D01*
X156948017Y-78184141D01*
X156948013Y-78184144D01*
X156860894Y-78271263D01*
X156860891Y-78271267D01*
X156792442Y-78373707D01*
X156792437Y-78373716D01*
X156745288Y-78487545D01*
X156745285Y-78487555D01*
X156721250Y-78608389D01*
X145583577Y-78608389D01*
X145577984Y-78587515D01*
X145505509Y-78461985D01*
X145403015Y-78359491D01*
X145403013Y-78359490D01*
X145403011Y-78359488D01*
X145277488Y-78287017D01*
X145277489Y-78287017D01*
X145266006Y-78283940D01*
X145137475Y-78249500D01*
X144992525Y-78249500D01*
X144863993Y-78283940D01*
X144852511Y-78287017D01*
X144726988Y-78359488D01*
X144726982Y-78359493D01*
X144624493Y-78461982D01*
X144624488Y-78461988D01*
X144552017Y-78587511D01*
X144552016Y-78587515D01*
X144514500Y-78727525D01*
X142660500Y-78727525D01*
X142622984Y-78587515D01*
X142550509Y-78461985D01*
X142448015Y-78359491D01*
X142448013Y-78359490D01*
X142448011Y-78359488D01*
X142322488Y-78287017D01*
X142322489Y-78287017D01*
X142311006Y-78283940D01*
X142182475Y-78249500D01*
X142037525Y-78249500D01*
X141908993Y-78283940D01*
X141897511Y-78287017D01*
X141771988Y-78359488D01*
X141771982Y-78359493D01*
X141669493Y-78461982D01*
X141669488Y-78461988D01*
X141597017Y-78587511D01*
X141597016Y-78587515D01*
X141559500Y-78727525D01*
X140500500Y-78727525D01*
X140500500Y-76777525D01*
X146949500Y-76777525D01*
X146949500Y-76922475D01*
X146961964Y-76968989D01*
X146987017Y-77062488D01*
X147059488Y-77188011D01*
X147059490Y-77188013D01*
X147059491Y-77188015D01*
X147161985Y-77290509D01*
X147161986Y-77290510D01*
X147161988Y-77290511D01*
X147287511Y-77362982D01*
X147287512Y-77362982D01*
X147287515Y-77362984D01*
X147427525Y-77400500D01*
X147427528Y-77400500D01*
X147572472Y-77400500D01*
X147572475Y-77400500D01*
X147712485Y-77362984D01*
X147838015Y-77290509D01*
X147940509Y-77188015D01*
X148012984Y-77062485D01*
X148050500Y-76922475D01*
X148050500Y-76777525D01*
X148047674Y-76766978D01*
X176308427Y-76766978D01*
X176308427Y-76968993D01*
X176347834Y-77167105D01*
X176347836Y-77167113D01*
X176425139Y-77353738D01*
X176425144Y-77353748D01*
X176537368Y-77521704D01*
X176680208Y-77664544D01*
X176848164Y-77776768D01*
X176848168Y-77776770D01*
X176848171Y-77776772D01*
X177034800Y-77854077D01*
X177232919Y-77893485D01*
X177232923Y-77893486D01*
X177232924Y-77893486D01*
X177434931Y-77893486D01*
X177434932Y-77893485D01*
X177633054Y-77854077D01*
X177819683Y-77776772D01*
X177987645Y-77664544D01*
X178130485Y-77521704D01*
X178242713Y-77353742D01*
X178320018Y-77167113D01*
X178359427Y-76968989D01*
X178359427Y-76766983D01*
X178320018Y-76568859D01*
X178242713Y-76382230D01*
X178242711Y-76382227D01*
X178242709Y-76382223D01*
X178130485Y-76214267D01*
X177987645Y-76071427D01*
X177819689Y-75959203D01*
X177819679Y-75959198D01*
X177633054Y-75881895D01*
X177633046Y-75881893D01*
X177434934Y-75842486D01*
X177434930Y-75842486D01*
X177232924Y-75842486D01*
X177232919Y-75842486D01*
X177034807Y-75881893D01*
X177034799Y-75881895D01*
X176848174Y-75959198D01*
X176848164Y-75959203D01*
X176680208Y-76071427D01*
X176537368Y-76214267D01*
X176425144Y-76382223D01*
X176425139Y-76382233D01*
X176347836Y-76568858D01*
X176347834Y-76568866D01*
X176308427Y-76766978D01*
X148047674Y-76766978D01*
X148012984Y-76637515D01*
X147973349Y-76568866D01*
X147940511Y-76511988D01*
X147940506Y-76511982D01*
X147838017Y-76409493D01*
X147838011Y-76409488D01*
X147712488Y-76337017D01*
X147712489Y-76337017D01*
X147701006Y-76333940D01*
X147572475Y-76299500D01*
X147427525Y-76299500D01*
X147298993Y-76333940D01*
X147287511Y-76337017D01*
X147161988Y-76409488D01*
X147161982Y-76409493D01*
X147059493Y-76511982D01*
X147059488Y-76511988D01*
X146987017Y-76637511D01*
X146987016Y-76637515D01*
X146949500Y-76777525D01*
X140500500Y-76777525D01*
X140500500Y-71628995D01*
X167939499Y-71628995D01*
X167966418Y-71764322D01*
X167966421Y-71764332D01*
X168019221Y-71891804D01*
X168019228Y-71891817D01*
X168095885Y-72006541D01*
X168095888Y-72006545D01*
X168193454Y-72104111D01*
X168193458Y-72104114D01*
X168308182Y-72180771D01*
X168308195Y-72180778D01*
X168435667Y-72233578D01*
X168435672Y-72233580D01*
X168435676Y-72233580D01*
X168435677Y-72233581D01*
X168571004Y-72260500D01*
X168571007Y-72260500D01*
X168708995Y-72260500D01*
X168800041Y-72242389D01*
X168844328Y-72233580D01*
X168971811Y-72180775D01*
X169086542Y-72104114D01*
X169184114Y-72006542D01*
X169260775Y-71891811D01*
X169313580Y-71764328D01*
X169340500Y-71628993D01*
X169340500Y-71491007D01*
X169340500Y-71491004D01*
X169313581Y-71355677D01*
X169313580Y-71355676D01*
X169313580Y-71355672D01*
X169313578Y-71355667D01*
X169260778Y-71228195D01*
X169260771Y-71228182D01*
X169184114Y-71113458D01*
X169184111Y-71113454D01*
X169086545Y-71015888D01*
X169086541Y-71015885D01*
X168971817Y-70939228D01*
X168971804Y-70939221D01*
X168844332Y-70886421D01*
X168844322Y-70886418D01*
X168708995Y-70859500D01*
X168708993Y-70859500D01*
X168571007Y-70859500D01*
X168571005Y-70859500D01*
X168435677Y-70886418D01*
X168435667Y-70886421D01*
X168308195Y-70939221D01*
X168308182Y-70939228D01*
X168193458Y-71015885D01*
X168193454Y-71015888D01*
X168095888Y-71113454D01*
X168095885Y-71113458D01*
X168019228Y-71228182D01*
X168019221Y-71228195D01*
X167966421Y-71355667D01*
X167966418Y-71355677D01*
X167939500Y-71491004D01*
X167939500Y-71491007D01*
X167939500Y-71628993D01*
X167939500Y-71628995D01*
X167939499Y-71628995D01*
X140500500Y-71628995D01*
X140500500Y-70324500D01*
X140520185Y-70257461D01*
X140572989Y-70211706D01*
X140624500Y-70200500D01*
X199975500Y-70200500D01*
X200042539Y-70220185D01*
G37*
%TD.AperFunction*%
%TD*%
M02*
