%TF.GenerationSoftware,KiCad,Pcbnew,10.0.0*%
%TF.CreationDate,2026-06-03T00:00:45+05:30*%
%TF.ProjectId,ESP32,45535033-322e-46b6-9963-61645f706362,rev?*%
%TF.SameCoordinates,Original*%
%TF.FileFunction,Soldermask,Top*%
%TF.FilePolarity,Negative*%
%FSLAX46Y46*%
G04 Gerber Fmt 4.6, Leading zero omitted, Abs format (unit mm)*
G04 Created by KiCad (PCBNEW 10.0.0) date 2026-06-03 00:00:45*
%MOMM*%
%LPD*%
G01*
G04 APERTURE LIST*
G04 Aperture macros list*
%AMRoundRect*
0 Rectangle with rounded corners*
0 $1 Rounding radius*
0 $2 $3 $4 $5 $6 $7 $8 $9 X,Y pos of 4 corners*
0 Add a 4 corners polygon primitive as box body*
4,1,4,$2,$3,$4,$5,$6,$7,$8,$9,$2,$3,0*
0 Add four circle primitives for the rounded corners*
1,1,$1+$1,$2,$3*
1,1,$1+$1,$4,$5*
1,1,$1+$1,$6,$7*
1,1,$1+$1,$8,$9*
0 Add four rect primitives between the rounded corners*
20,1,$1+$1,$2,$3,$4,$5,0*
20,1,$1+$1,$4,$5,$6,$7,0*
20,1,$1+$1,$6,$7,$8,$9,0*
20,1,$1+$1,$8,$9,$2,$3,0*%
G04 Aperture macros list end*
%ADD10RoundRect,0.250000X-0.262500X-0.450000X0.262500X-0.450000X0.262500X0.450000X-0.262500X0.450000X0*%
%ADD11RoundRect,0.250000X-0.475000X0.250000X-0.475000X-0.250000X0.475000X-0.250000X0.475000X0.250000X0*%
%ADD12RoundRect,0.250000X0.262500X0.450000X-0.262500X0.450000X-0.262500X-0.450000X0.262500X-0.450000X0*%
%ADD13RoundRect,0.250000X0.250000X0.475000X-0.250000X0.475000X-0.250000X-0.475000X0.250000X-0.475000X0*%
%ADD14RoundRect,0.250000X0.450000X-0.262500X0.450000X0.262500X-0.450000X0.262500X-0.450000X-0.262500X0*%
%ADD15RoundRect,0.250000X-0.450000X0.262500X-0.450000X-0.262500X0.450000X-0.262500X0.450000X0.262500X0*%
%ADD16O,1.804000X0.804000*%
%ADD17C,1.000000*%
%ADD18RoundRect,0.116000X-0.406000X-0.116000X0.406000X-0.116000X0.406000X0.116000X-0.406000X0.116000X0*%
%ADD19RoundRect,0.116000X-0.116000X-0.406000X0.116000X-0.406000X0.116000X0.406000X-0.116000X0.406000X0*%
%ADD20RoundRect,0.102000X-1.350000X-1.350000X1.350000X-1.350000X1.350000X1.350000X-1.350000X1.350000X0*%
%ADD21C,1.412000*%
%ADD22R,1.700000X1.700000*%
%ADD23C,1.700000*%
%ADD24RoundRect,0.150000X0.150000X-0.512500X0.150000X0.512500X-0.150000X0.512500X-0.150000X-0.512500X0*%
%ADD25RoundRect,0.150000X-0.587500X-0.150000X0.587500X-0.150000X0.587500X0.150000X-0.587500X0.150000X0*%
%ADD26R,1.000000X1.400000*%
%ADD27R,0.910000X2.810000*%
%ADD28RoundRect,0.250000X0.475000X-0.250000X0.475000X0.250000X-0.475000X0.250000X-0.475000X-0.250000X0*%
%ADD29R,1.400000X1.000000*%
%ADD30RoundRect,0.150000X0.587500X0.150000X-0.587500X0.150000X-0.587500X-0.150000X0.587500X-0.150000X0*%
%ADD31RoundRect,0.102000X0.400000X-0.550000X0.400000X0.550000X-0.400000X0.550000X-0.400000X-0.550000X0*%
%ADD32RoundRect,0.102000X0.500000X-0.550000X0.500000X0.550000X-0.500000X0.550000X-0.500000X-0.550000X0*%
%ADD33R,1.800000X1.230000*%
%ADD34RoundRect,0.102000X0.150000X0.600000X-0.150000X0.600000X-0.150000X-0.600000X0.150000X-0.600000X0*%
%ADD35C,0.854000*%
%ADD36RoundRect,0.102000X0.100000X0.500000X-0.100000X0.500000X-0.100000X-0.500000X0.100000X-0.500000X0*%
%ADD37O,1.254000X2.304000*%
%ADD38RoundRect,0.250000X-0.250000X-0.475000X0.250000X-0.475000X0.250000X0.475000X-0.250000X0.475000X0*%
%ADD39RoundRect,0.081750X-0.265250X-0.245250X0.265250X-0.245250X0.265250X0.245250X-0.265250X0.245250X0*%
%ADD40RoundRect,0.102000X-0.475000X1.075000X-0.475000X-1.075000X0.475000X-1.075000X0.475000X1.075000X0*%
%ADD41RoundRect,0.102000X-1.625000X1.075000X-1.625000X-1.075000X1.625000X-1.075000X1.625000X1.075000X0*%
%ADD42RoundRect,0.102000X0.600000X-0.600000X0.600000X0.600000X-0.600000X0.600000X-0.600000X-0.600000X0*%
%ADD43RoundRect,0.102000X0.800000X-0.750000X0.800000X0.750000X-0.800000X0.750000X-0.800000X-0.750000X0*%
%ADD44RoundRect,0.116000X-0.116000X0.406000X-0.116000X-0.406000X0.116000X-0.406000X0.116000X0.406000X0*%
%ADD45RoundRect,0.116000X-0.406000X0.116000X-0.406000X-0.116000X0.406000X-0.116000X0.406000X0.116000X0*%
%ADD46RoundRect,0.102000X-1.350000X1.350000X-1.350000X-1.350000X1.350000X-1.350000X1.350000X1.350000X0*%
%ADD47RoundRect,0.102000X-0.735000X0.600000X-0.735000X-0.600000X0.735000X-0.600000X0.735000X0.600000X0*%
%ADD48RoundRect,0.102000X0.275000X0.285000X-0.275000X0.285000X-0.275000X-0.285000X0.275000X-0.285000X0*%
%ADD49R,1.230000X1.800000*%
%ADD50C,1.150000*%
%ADD51C,1.650000*%
%ADD52RoundRect,0.102000X0.750000X-0.500000X0.750000X0.500000X-0.750000X0.500000X-0.750000X-0.500000X0*%
%ADD53RoundRect,0.102000X0.750000X-0.350000X0.750000X0.350000X-0.750000X0.350000X-0.750000X-0.350000X0*%
%ADD54RoundRect,0.102000X1.400000X-0.750000X1.400000X0.750000X-1.400000X0.750000X-1.400000X-0.750000X0*%
%ADD55RoundRect,0.151000X-0.546000X-0.151000X0.546000X-0.151000X0.546000X0.151000X-0.546000X0.151000X0*%
%ADD56RoundRect,0.102000X-0.450000X0.750000X-0.450000X-0.750000X0.450000X-0.750000X0.450000X0.750000X0*%
%ADD57RoundRect,0.102000X-0.350000X0.350000X-0.350000X-0.350000X0.350000X-0.350000X0.350000X0.350000X0*%
%ADD58RoundRect,0.102000X-0.600000X-0.735000X0.600000X-0.735000X0.600000X0.735000X-0.600000X0.735000X0*%
G04 APERTURE END LIST*
D10*
%TO.C,R22*%
X172087500Y-135975000D03*
X173912500Y-135975000D03*
%TD*%
D11*
%TO.C,C23*%
X149360000Y-131860000D03*
X149360000Y-133760000D03*
%TD*%
D12*
%TO.C,R13*%
X157762500Y-99250000D03*
X155937500Y-99250000D03*
%TD*%
D13*
%TO.C,C21*%
X158550000Y-138412500D03*
X156650000Y-138412500D03*
%TD*%
D10*
%TO.C,R3*%
X151037500Y-80250000D03*
X152862500Y-80250000D03*
%TD*%
%TO.C,R31*%
X158300000Y-114610000D03*
X160125000Y-114610000D03*
%TD*%
D14*
%TO.C,R27*%
X151610000Y-133722500D03*
X151610000Y-131897500D03*
%TD*%
D12*
%TO.C,R18*%
X185187500Y-119000000D03*
X183362500Y-119000000D03*
%TD*%
D15*
%TO.C,R4*%
X149390000Y-84557500D03*
X149390000Y-86382500D03*
%TD*%
D14*
%TO.C,R1*%
X146860000Y-86382500D03*
X146860000Y-84557500D03*
%TD*%
D16*
%TO.C,U6*%
X182650000Y-104095000D03*
X182650000Y-105365000D03*
X182650000Y-106635000D03*
X182650000Y-107905000D03*
X189850000Y-107905000D03*
X189850000Y-106635000D03*
X189850000Y-105365000D03*
X189850000Y-104095000D03*
%TD*%
D17*
%TO.C,TP1*%
X181350000Y-119000000D03*
%TD*%
D18*
%TO.C,U1*%
X145065000Y-79250000D03*
X145065000Y-79750000D03*
X145065000Y-80250000D03*
X145065000Y-80750000D03*
X145065000Y-81250000D03*
D19*
X146000000Y-82185000D03*
X146500000Y-82185000D03*
X147000000Y-82185000D03*
X147500000Y-82185000D03*
X148000000Y-82185000D03*
D18*
X148935000Y-81250000D03*
X148935000Y-80750000D03*
X148935000Y-80250000D03*
X148935000Y-79750000D03*
X148935000Y-79250000D03*
D19*
X148000000Y-78315000D03*
X147500000Y-78315000D03*
X147000000Y-78315000D03*
X146500000Y-78315000D03*
X146000000Y-78315000D03*
D20*
X147000000Y-80250000D03*
%TD*%
D21*
%TO.C,MK1*%
X143750000Y-132950000D03*
X143750000Y-131050000D03*
%TD*%
D12*
%TO.C,R29*%
X152512500Y-139912500D03*
X150687500Y-139912500D03*
%TD*%
D22*
%TO.C,J4*%
X167515000Y-139625000D03*
D23*
X170055000Y-139625000D03*
X172595000Y-139625000D03*
X175135000Y-139625000D03*
%TD*%
D14*
%TO.C,R7*%
X150400000Y-96012500D03*
X150400000Y-94187500D03*
%TD*%
%TO.C,R5*%
X144740000Y-95982500D03*
X144740000Y-94157500D03*
%TD*%
D24*
%TO.C,U5*%
X158800000Y-87237500D03*
X159750000Y-87237500D03*
X160700000Y-87237500D03*
X160700000Y-84962500D03*
X159750000Y-84962500D03*
X158800000Y-84962500D03*
%TD*%
D25*
%TO.C,Q2*%
X158275000Y-122910000D03*
X158275000Y-124810000D03*
X160150000Y-123860000D03*
%TD*%
D26*
%TO.C,LED4*%
X171670000Y-106690000D03*
X173470000Y-106690000D03*
%TD*%
D27*
%TO.C,F1*%
X155920000Y-85700000D03*
X152680000Y-85700000D03*
%TD*%
D10*
%TO.C,R21*%
X172087500Y-133850000D03*
X173912500Y-133850000D03*
%TD*%
%TO.C,R32*%
X158300000Y-120610000D03*
X160125000Y-120610000D03*
%TD*%
D14*
%TO.C,R24*%
X153870000Y-129562500D03*
X153870000Y-127737500D03*
%TD*%
D11*
%TO.C,C24*%
X152150000Y-121420000D03*
X152150000Y-123320000D03*
%TD*%
D13*
%TO.C,C16*%
X172200000Y-121500000D03*
X170300000Y-121500000D03*
%TD*%
D28*
%TO.C,C18*%
X176000000Y-125200000D03*
X176000000Y-123300000D03*
%TD*%
D29*
%TO.C,LED6*%
X171500000Y-86400000D03*
X171500000Y-84600000D03*
%TD*%
D15*
%TO.C,R25*%
X149370000Y-127737500D03*
X149370000Y-129562500D03*
%TD*%
D30*
%TO.C,Q3*%
X160150000Y-118560000D03*
X160150000Y-116660000D03*
X158275000Y-117610000D03*
%TD*%
D17*
%TO.C,TP3*%
X183350000Y-114600000D03*
%TD*%
D22*
%TO.C,J5*%
X143250000Y-114130000D03*
D23*
X143250000Y-116670000D03*
X143250000Y-119210000D03*
X143250000Y-121750000D03*
X143250000Y-124290000D03*
%TD*%
D28*
%TO.C,C5*%
X173890000Y-112340000D03*
X173890000Y-110440000D03*
%TD*%
D31*
%TO.C,Q1*%
X167200000Y-125005000D03*
X168300000Y-125005000D03*
D32*
X167750000Y-121495000D03*
%TD*%
D33*
%TO.C,C13*%
X168640000Y-74000000D03*
X171260000Y-74000000D03*
%TD*%
D34*
%TO.C,J1*%
X162496750Y-80630000D03*
X161996750Y-80630000D03*
X161496750Y-80630000D03*
X160996750Y-80630000D03*
X160496750Y-80630000D03*
X159996750Y-80630000D03*
X159496750Y-80630000D03*
X158996750Y-80630000D03*
X158496750Y-80630000D03*
X157996750Y-80630000D03*
X157496750Y-80630000D03*
X156996750Y-80630000D03*
D35*
X156946750Y-79380000D03*
X157346750Y-78670000D03*
X158146750Y-78670000D03*
X158546750Y-79380000D03*
X158946750Y-78670000D03*
X159346750Y-79380000D03*
X160146750Y-79380000D03*
X160546750Y-78670000D03*
X160946750Y-79380000D03*
X161346750Y-78670000D03*
X162146750Y-78670000D03*
X162546750Y-79380000D03*
X157746750Y-79380000D03*
X161746750Y-79380000D03*
D36*
X159746750Y-76050000D03*
X159746750Y-72950000D03*
D37*
X164016750Y-78230000D03*
X155476750Y-78230000D03*
X164016750Y-73500000D03*
X155476750Y-73500000D03*
%TD*%
D10*
%TO.C,R19*%
X183362500Y-117000000D03*
X185187500Y-117000000D03*
%TD*%
D38*
%TO.C,C15*%
X166800000Y-131500000D03*
X168700000Y-131500000D03*
%TD*%
D39*
%TO.C,U2*%
X168720000Y-133275000D03*
X168720000Y-133925000D03*
X168720000Y-134575000D03*
X168720000Y-135225000D03*
X166780000Y-135225000D03*
X166780000Y-134575000D03*
X166780000Y-133925000D03*
X166780000Y-133275000D03*
%TD*%
D40*
%TO.C,VR1*%
X168940000Y-106490000D03*
X166640000Y-106490000D03*
X164340000Y-106490000D03*
D41*
X166640000Y-112290000D03*
%TD*%
D11*
%TO.C,C25*%
X152150000Y-114300000D03*
X152150000Y-116200000D03*
%TD*%
D14*
%TO.C,R9*%
X166250000Y-79812500D03*
X166250000Y-77987500D03*
%TD*%
D38*
%TO.C,C20*%
X156650000Y-132912500D03*
X158550000Y-132912500D03*
%TD*%
D42*
%TO.C,R30*%
X161450000Y-138400000D03*
D43*
X162450000Y-135150000D03*
D42*
X163450000Y-138400000D03*
%TD*%
D10*
%TO.C,R12*%
X156087500Y-101350000D03*
X157912500Y-101350000D03*
%TD*%
D14*
%TO.C,R6*%
X147570000Y-96002500D03*
X147570000Y-94177500D03*
%TD*%
D29*
%TO.C,LED1*%
X147570000Y-97940000D03*
X147570000Y-99740000D03*
%TD*%
D12*
%TO.C,R28*%
X152512500Y-137662500D03*
X150687500Y-137662500D03*
%TD*%
D17*
%TO.C,TP4*%
X176980000Y-104095000D03*
%TD*%
D10*
%TO.C,R33*%
X154512500Y-114580000D03*
X156337500Y-114580000D03*
%TD*%
D15*
%TO.C,R26*%
X153860000Y-131897500D03*
X153860000Y-133722500D03*
%TD*%
D11*
%TO.C,C3*%
X161640000Y-106440000D03*
X161640000Y-108340000D03*
%TD*%
D15*
%TO.C,R15*%
X171500000Y-88837500D03*
X171500000Y-90662500D03*
%TD*%
D11*
%TO.C,C10*%
X156650000Y-89800000D03*
X156650000Y-91700000D03*
%TD*%
D14*
%TO.C,R23*%
X170500000Y-125162500D03*
X170500000Y-123337500D03*
%TD*%
D44*
%TO.C,U4*%
X161500000Y-90765000D03*
X161000000Y-90765000D03*
X160500000Y-90765000D03*
X160000000Y-90765000D03*
X159500000Y-90765000D03*
D45*
X158565000Y-91700000D03*
X158565000Y-92200000D03*
X158565000Y-92700000D03*
X158565000Y-93200000D03*
X158565000Y-93700000D03*
D44*
X159500000Y-94635000D03*
X160000000Y-94635000D03*
X160500000Y-94635000D03*
X161000000Y-94635000D03*
X161500000Y-94635000D03*
D45*
X162435000Y-93700000D03*
X162435000Y-93200000D03*
X162435000Y-92700000D03*
X162435000Y-92200000D03*
X162435000Y-91700000D03*
D46*
X160500000Y-92700000D03*
%TD*%
D29*
%TO.C,LED5*%
X169000000Y-86400000D03*
X169000000Y-84600000D03*
%TD*%
D13*
%TO.C,C14*%
X187200000Y-110250000D03*
X185300000Y-110250000D03*
%TD*%
D47*
%TO.C,FB2*%
X142100000Y-80070000D03*
X142100000Y-81790000D03*
%TD*%
D13*
%TO.C,C11*%
X157800000Y-97150000D03*
X155900000Y-97150000D03*
%TD*%
D48*
%TO.C,S1*%
X149900000Y-122950000D03*
X147350000Y-122950000D03*
X149900000Y-121790000D03*
X147350000Y-121790000D03*
%TD*%
D15*
%TO.C,R20*%
X179750000Y-105362500D03*
X179750000Y-107187500D03*
%TD*%
D38*
%TO.C,C22*%
X146940000Y-137662500D03*
X148840000Y-137662500D03*
%TD*%
D14*
%TO.C,R11*%
X159650000Y-98762500D03*
X159650000Y-96937500D03*
%TD*%
D29*
%TO.C,LED3*%
X144740000Y-97920000D03*
X144740000Y-99720000D03*
%TD*%
D17*
%TO.C,TP5*%
X190000000Y-111975000D03*
%TD*%
D15*
%TO.C,R14*%
X169000000Y-88837500D03*
X169000000Y-90662500D03*
%TD*%
D49*
%TO.C,C9*%
X153700000Y-93370000D03*
X153700000Y-90750000D03*
%TD*%
D50*
%TO.C,J3*%
X177333927Y-97867986D03*
D51*
X177333927Y-76867986D03*
D52*
X174533927Y-79492986D03*
X174533927Y-81992986D03*
X174533927Y-84492986D03*
X174533927Y-86992986D03*
X174533927Y-89492986D03*
X174533927Y-91992986D03*
X174533927Y-94417986D03*
X174533927Y-96117986D03*
X174533927Y-76992986D03*
D53*
X174533927Y-97417986D03*
D54*
X176333927Y-100017986D03*
X176333927Y-74917986D03*
X197833927Y-72717986D03*
X197833927Y-100017986D03*
D53*
X174533927Y-98617986D03*
%TD*%
D55*
%TO.C,U7*%
X156640000Y-135012500D03*
X156640000Y-135662500D03*
X156640000Y-136312500D03*
X158560000Y-136312500D03*
X158560000Y-135012500D03*
%TD*%
D28*
%TO.C,C17*%
X173250000Y-125200000D03*
X173250000Y-123300000D03*
%TD*%
%TO.C,C4*%
X171640000Y-112340000D03*
X171640000Y-110440000D03*
%TD*%
%TO.C,C19*%
X151620000Y-129600000D03*
X151620000Y-127700000D03*
%TD*%
D12*
%TO.C,R8*%
X165662500Y-84650000D03*
X163837500Y-84650000D03*
%TD*%
D49*
%TO.C,C6*%
X142050000Y-73040000D03*
X142050000Y-75660000D03*
%TD*%
D56*
%TO.C,U3*%
X192700000Y-121650000D03*
X191200000Y-121650000D03*
X189700000Y-121650000D03*
X188200000Y-121650000D03*
X186700000Y-121650000D03*
X185200000Y-121650000D03*
X183700000Y-121650000D03*
X182200000Y-121650000D03*
X180700000Y-121650000D03*
X180700000Y-139150000D03*
X182200000Y-139150000D03*
X183700000Y-139150000D03*
X185200000Y-139150000D03*
X186700000Y-139150000D03*
X188200000Y-139150000D03*
X189700000Y-139150000D03*
X191200000Y-139150000D03*
X192700000Y-139150000D03*
D57*
X187600000Y-130260000D03*
X187600000Y-131360000D03*
X187600000Y-132460000D03*
X186500000Y-130260000D03*
X186500000Y-131360000D03*
X186500000Y-132460000D03*
X185400000Y-130260000D03*
X185400000Y-131360000D03*
X185400000Y-132460000D03*
%TD*%
D17*
%TO.C,TP2*%
X180170000Y-109660000D03*
%TD*%
D48*
%TO.C,S2*%
X149900000Y-115750000D03*
X147350000Y-115750000D03*
X149900000Y-114590000D03*
X147350000Y-114590000D03*
%TD*%
D49*
%TO.C,C7*%
X189750000Y-118260000D03*
X189750000Y-115640000D03*
%TD*%
D38*
%TO.C,C1*%
X163800000Y-87200000D03*
X165700000Y-87200000D03*
%TD*%
D15*
%TO.C,R16*%
X171940000Y-94417986D03*
X171940000Y-96242986D03*
%TD*%
%TO.C,R2*%
X144320000Y-84557500D03*
X144320000Y-86382500D03*
%TD*%
D29*
%TO.C,LED2*%
X150350000Y-97950000D03*
X150350000Y-99750000D03*
%TD*%
D11*
%TO.C,C2*%
X159390000Y-106440000D03*
X159390000Y-108340000D03*
%TD*%
D58*
%TO.C,J2*%
X147440000Y-71050000D03*
X149160000Y-71050000D03*
%TD*%
D38*
%TO.C,C12*%
X170300000Y-77000000D03*
X172200000Y-77000000D03*
%TD*%
D28*
%TO.C,C8*%
X192750000Y-119200000D03*
X192750000Y-117300000D03*
%TD*%
D10*
%TO.C,R17*%
X170337500Y-79500000D03*
X172162500Y-79500000D03*
%TD*%
%TO.C,R10*%
X171677500Y-104190000D03*
X173502500Y-104190000D03*
%TD*%
M02*
